font.ufo
<glyph name="numbersign" format="2">
	<unicode hex="0023"/>
	<advance width="479"/>
	<outline>
		<contour>
			<point x="92" y="0" type="line"/>
			<point x="129" y="0" type="line"/>
			<point x="155" y="213" type="line"/>
			<point x="302" y="213" type="line"/>
			<point x="277" y="0" type="line"/>
			<point x="313" y="0" type="line"/>
			<point x="339" y="213" type="line"/>
			<point x="429" y="213" type="line"/>
			<point x="429" y="251" type="line"/>
			<point x="344" y="251" type="line"/>
			<point x="365" y="419" type="line"/>
			<point x="449" y="419" type="line"/>
			<point x="449" y="457" type="line"/>
			<point x="368" y="457" type="line"/>
			<point x="393" y="650" type="line"/>
			<point x="357" y="650" type="line"/>
			<point x="331" y="457" type="line"/>
			<point x="184" y="457" type="line"/>
			<point x="209" y="650" type="line"/>
			<point x="172" y="650" type="line"/>
			<point x="147" y="457" type="line"/>
			<point x="55" y="457" type="line"/>
			<point x="55" y="419" type="line"/>
			<point x="144" y="419" type="line"/>
			<point x="123" y="251" type="line"/>
			<point x="35" y="251" type="line"/>
			<point x="35" y="213" type="line"/>
			<point x="118" y="213" type="line"/>
		</contour>
		<contour>
			<point x="159" y="251" type="line"/>
			<point x="180" y="419" type="line"/>
			<point x="328" y="419" type="line"/>
			<point x="307" y="251" type="line"/>
		</contour>
	</outline>
</glyph>
<glyph name="dollar" format="2">
	<unicode hex="0024"/>
	<advance width="479"/>
	<outline>
		<contour>
			<point x="244" y="-12" type="curve" smooth="yes"/>
			<point x="343" y="-12"/>
			<point x="419" y="54"/>
			<point x="419" y="162" type="curve" smooth="yes"/>
			<point x="419" y="354"/>
			<point x="130" y="346"/>
			<point x="130" y="497" type="curve" smooth="yes"/>
			<point x="130" y="562"/>
			<point x="177" y="612"/>
			<point x="246" y="612" type="curve" smooth="yes"/>
			<point x="307" y="612"/>
			<point x="345" y="591"/>
			<point x="376" y="554" type="curve"/>
			<point x="402" y="578" type="line"/>
			<point x="368" y="621"/>
			<point x="321" y="651"/>
			<point x="247" y="651" type="curve" smooth="yes"/>
			<point x="154" y="651"/>
			<point x="85" y="586"/>
			<point x="85" y="495" type="curve" smooth="yes"/>
			<point x="85" y="315"/>
			<point x="374" y="323"/>
			<point x="374" y="158" type="curve" smooth="yes"/>
			<point x="374" y="81"/>
			<point x="328" y="27"/>
			<point x="244" y="27" type="curve" smooth="yes"/>
			<point x="175" y="27"/>
			<point x="121" y="57"/>
			<point x="83" y="95" type="curve"/>
			<point x="59" y="68" type="line"/>
			<point x="98" y="21"/>
			<point x="167" y="-12"/>
		</contour>
		<contour>
			<point x="226" y="-110" type="line"/>
			<point x="265" y="-110" type="line"/>
			<point x="265" y="-1" type="line"/>
			<point x="226" y="-1" type="line"/>
		</contour>
		<contour>
			<point x="226" y="630" type="line"/>
			<point x="265" y="630" type="line"/>
			<point x="265" y="749" type="line"/>
			<point x="226" y="749" type="line"/>
		</contour>
	</outline>
</glyph>
<glyph name="quotesingle" format="2">
	<unicode hex="0027"/>
	<advance width="219"/>
	<outline>
		<contour>
			<point x="92" y="477" type="line"/>
			<point x="125" y="477" type="line"/>
			<point x="134" y="624" type="line"/>
			<point x="134" y="693" type="line"/>
			<point x="83" y="693" type="line"/>
			<point x="84" y="624" type="line"/>
		</contour>
	</outline>
</glyph>
<glyph name="asterisk" format="2">
	<unicode hex="002A"/>
	<advance width="395"/>
	<outline>
		<contour>
			<point x="132" y="462" type="line"/>
			<point x="198" y="545" type="line"/>
			<point x="262" y="462" type="line"/>
			<point x="289" y="482" type="line"/>
			<point x="234" y="570" type="line"/>
			<point x="325" y="606" type="line"/>
			<point x="315" y="636" type="line"/>
			<point x="220" y="612" type="line"/>
			<point x="213" y="712" type="line"/>
			<point x="181" y="712" type="line"/>
			<point x="174" y="610" type="line"/>
			<point x="80" y="636" type="line"/>
			<point x="70" y="606" type="line"/>
			<point x="160" y="570" type="line"/>
			<point x="105" y="482" type="line"/>
		</contour>
	</outline>
</glyph>
<glyph name="F" format="2">
	<unicode hex="0046"/>
	<advance width="477"/>
	<outline>
		<contour>
			<point x="97" y="0" type="line"/>
			<point x="143" y="0" type="line"/>
			<point x="143" y="317" type="line"/>
			<point x="408" y="317" type="line"/>
			<point x="408" y="357" type="line"/>
			<point x="143" y="357" type="line"/>
			<point x="143" y="619" type="line"/>
			<point x="456" y="619" type="line"/>
			<point x="456" y="659" type="line"/>
			<point x="97" y="659" type="line"/>
		</contour>
	</outline>
	<anchor name="aboveUC" x="285" y="681"/>
	<anchor name="belowLC" x="121" y="-22"/>
</glyph>
<glyph name="H" format="2">
	<unicode hex="0048"/>
	<advance width="639"/>
	<outline>
		<contour>
			<point x="97" y="0" type="line"/>
			<point x="143" y="0" type="line"/>
			<point x="143" y="330" type="line"/>
			<point x="496" y="330" type="line"/>
			<point x="496" y="0" type="line"/>
			<point x="542" y="0" type="line"/>
			<point x="542" y="659" type="line"/>
			<point x="496" y="659" type="line"/>
			<point x="496" y="370" type="line"/>
			<point x="143" y="370" type="line"/>
			<point x="143" y="659" type="line"/>
			<point x="97" y="659" type="line"/>
		</contour>
	</outline>
	<anchor name="aboveUC" x="318" y="681"/>
	<anchor name="belowLC" x="318" y="-22"/>
</glyph>
<glyph name="J" format="2">
	<unicode hex="004A"/>
	<advance width="462"/>
	<outline>
		<contour>
			<point x="202" y="-12" type="curve" smooth="yes"/>
			<point x="322" y="-12"/>
			<point x="367" y="73"/>
			<point x="367" y="180" type="curve" smooth="yes"/>
			<point x="367" y="659" type="line"/>
			<point x="321" y="659" type="line"/>
			<point x="321" y="185" type="line" smooth="yes"/>
			<point x="321" y="77"/>
			<point x="283" y="30"/>
			<point x="202" y="30" type="curve" smooth="yes"/>
			<point x="147" y="30"/>
			<point x="107" y="52"/>
			<point x="75" y="107" type="curve"/>
			<point x="41" y="85" type="line"/>
			<point x="74" y="22"/>
			<point x="129" y="-12"/>
		</contour>
	</outline>
	<anchor name="aboveUC" x="340" y="681"/>
	<anchor name="belowLC" x="243" y="-22"/>
</glyph>
<glyph name="K" format="2">
	<unicode hex="004B"/>
	<advance width="558"/>
	<outline>
		<contour>
			<point x="97" y="0" type="line"/>
			<point x="143" y="0" type="line"/>
			<point x="143" y="227" type="line"/>
			<point x="277" y="380" type="line"/>
			<point x="495" y="0" type="line"/>
			<point x="548" y="0" type="line"/>
			<point x="309" y="415" type="line"/>
			<point x="519" y="659" type="line"/>
			<point x="464" y="659" type="line"/>
			<point x="145" y="293" type="line"/>
			<point x="143" y="293" type="line"/>
			<point x="143" y="659" type="line"/>
			<point x="97" y="659" type="line"/>
		</contour>
	</outline>
	<anchor name="aboverightUC" x="503" y="681"/>
	<anchor name="aboveUC" x="306" y="681"/>
	<anchor name="belowLC" x="325" y="-22"/>
</glyph>
<glyph name="Z" format="2">
	<unicode hex="005A"/>
	<advance width="538"/>
	<outline>
		<contour>
			<point x="50" y="0" type="line"/>
			<point x="490" y="0" type="line"/>
			<point x="490" y="40" type="line"/>
			<point x="107" y="40" type="line"/>
			<point x="487" y="632" type="line"/>
			<point x="487" y="659" type="line"/>
			<point x="83" y="659" type="line"/>
			<point x="83" y="619" type="line"/>
			<point x="429" y="619" type="line"/>
			<point x="50" y="27" type="line"/>
		</contour>
	</outline>
	<anchor name="aboveUC" x="279" y="681"/>
	<anchor name="belowLC" x="282" y="-22"/>
</glyph>
<glyph name="backslash" format="2">
	<unicode hex="005C"/>
	<advance width="357"/>
	<outline>
		<contour>
			<point x="311" y="-160" type="line"/>
			<point x="349" y="-160" type="line"/>
			<point x="43" y="710" type="line"/>
			<point x="5" y="710" type="line"/>
		</contour>
	</outline>
</glyph>
<glyph name="underscore" format="2">
	<unicode hex="005F"/>
	<advance width="500"/>
	<outline>
		<contour>
			<point x="12" y="-117" type="line"/>
			<point x="488" y="-117" type="line"/>
			<point x="488" y="-79" type="line"/>
			<point x="12" y="-79" type="line"/>
		</contour>
	</outline>
</glyph>
<glyph name="c" format="2">
	<unicode hex="0063"/>
	<advance width="449"/>
	<outline>
		<contour>
			<point x="270" y="-12" type="curve" smooth="yes"/>
			<point x="332" y="-12"/>
			<point x="383" y="14"/>
			<point x="423" y="53" type="curve"/>
			<point x="400" y="80" type="line"/>
			<point x="369" y="49"/>
			<point x="323" y="27"/>
			<point x="272" y="27" type="curve" smooth="yes"/>
			<point x="167" y="27"/>
			<point x="98" y="113"/>
			<point x="98" y="239" type="curve" smooth="yes"/>
			<point x="98" y="366"/>
			<point x="174" y="453"/>
			<point x="272" y="453" type="curve" smooth="yes"/>
			<point x="321" y="453"/>
			<point x="359" y="434"/>
			<point x="388" y="406" type="curve"/>
			<point x="412" y="433" type="line"/>
			<point x="379" y="467"/>
			<point x="337" y="492"/>
			<point x="271" y="492" type="curve" smooth="yes"/>
			<point x="154" y="492"/>
			<point x="52" y="400"/>
			<point x="52" y="239" type="curve" smooth="yes"/>
			<point x="52" y="80"/>
			<point x="146" y="-12"/>
		</contour>
	</outline>
	<anchor name="aboveLC" x="271" y="504"/>
	<anchor name="aboverightLC" x="411" y="504"/>
	<anchor name="baseLC" x="269" y="0"/>
	<anchor name="belowLC" x="269" y="-22"/>
</glyph>
<glyph name="f" format="2">
	<unicode hex="0066"/>
	<advance width="263"/>
	<outline>
		<contour>
			<point x="99" y="0" type="line"/>
			<point x="143" y="0" type="line"/>
			<point x="143" y="584" type="line" smooth="yes"/>
			<point x="143" y="653"/>
			<point x="167" y="693"/>
			<point x="218" y="693" type="curve" smooth="yes"/>
			<point x="236" y="693"/>
			<point x="255" y="689"/>
			<point x="275" y="681" type="curve"/>
			<point x="288" y="715" type="line"/>
			<point x="267" y="725"/>
			<point x="240" y="731"/>
			<point x="218" y="731" type="curve" smooth="yes"/>
			<point x="142" y="731"/>
			<point x="99" y="682"/>
			<point x="99" y="587" type="curve" smooth="yes"/>
		</contour>
		<contour>
			<point x="28" y="442" type="line"/>
			<point x="254" y="442" type="line"/>
			<point x="254" y="480" type="line"/>
			<point x="100" y="480" type="line"/>
			<point x="28" y="476" type="line"/>
		</contour>
	</outline>
	<anchor name="aboveUC" x="205" y="731"/>
	<anchor name="belowLC" x="122" y="-22"/>
	<anchor name="center" x="135" y="238"/>
</glyph>
<glyph name="n" format="2">
	<unicode hex="006E"/>
	<advance width="532"/>
	<outline>
		<contour>
			<point x="92" y="0" type="line"/>
			<point x="136" y="0" type="line"/>
			<point x="136" y="362" type="line"/>
			<point x="195" y="422"/>
			<point x="236" y="452"/>
			<point x="293" y="452" type="curve" smooth="yes"/>
			<point x="371" y="452"/>
			<point x="403" y="404"/>
			<point x="403" y="302" type="curve" smooth="yes"/>
			<point x="403" y="0" type="line"/>
			<point x="447" y="0" type="line"/>
			<point x="447" y="308" type="line" smooth="yes"/>
			<point x="447" y="432"/>
			<point x="401" y="492"/>
			<point x="302" y="492" type="curve" smooth="yes"/>
			<point x="236" y="492"/>
			<point x="186" y="455"/>
			<point x="137" y="406" type="curve"/>
			<point x="134" y="406" type="line"/>
			<point x="130" y="480" type="line"/>
			<point x="92" y="480" type="line"/>
		</contour>
	</outline>
	<anchor name="aboveLC" x="284" y="504"/>
	<anchor name="belowLC" x="272" y="-22"/>
</glyph>
<glyph name="r" format="2">
	<unicode hex="0072"/>
	<advance width="317"/>
	<outline>
		<contour>
			<point x="92" y="0" type="line"/>
			<point x="136" y="0" type="line"/>
			<point x="136" y="327" type="line"/>
			<point x="173" y="417"/>
			<point x="224" y="450"/>
			<point x="267" y="450" type="curve" smooth="yes"/>
			<point x="286" y="450"/>
			<point x="296" y="448"/>
			<point x="309" y="444" type="curve"/>
			<point x="321" y="482" type="line"/>
			<point x="305" y="490"/>
			<point x="291" y="492"/>
			<point x="273" y="492" type="curve" smooth="yes"/>
			<point x="214" y="492"/>
			<point x="167" y="450"/>
			<point x="137" y="391" type="curve"/>
			<point x="134" y="391" type="line"/>
			<point x="130" y="480" type="line"/>
			<point x="92" y="480" type="line"/>
		</contour>
	</outline>
	<anchor name="aboveLC" x="206" y="504"/>
	<anchor name="belowLC" x="113" y="-22"/>
	<anchor name="center" x="132" y="219"/>
</glyph>
<glyph name="u" format="2">
	<unicode hex="0075"/>
	<advance width="529"/>
	<outline>
		<contour>
			<point x="230" y="-12" type="curve" smooth="yes"/>
			<point x="296" y="-12"/>
			<point x="346" y="25"/>
			<point x="393" y="80" type="curve"/>
			<point x="395" y="80" type="line"/>
			<point x="400" y="0" type="line"/>
			<point x="437" y="0" type="line"/>
			<point x="437" y="480" type="line"/>
			<point x="393" y="480" type="line"/>
			<point x="393" y="126" type="line"/>
			<point x="337" y="58"/>
			<point x="295" y="28"/>
			<point x="238" y="28" type="curve" smooth="yes"/>
			<point x="161" y="28"/>
			<point x="129" y="76"/>
			<point x="129" y="178" type="curve" smooth="yes"/>
			<point x="129" y="480" type="line"/>
			<point x="85" y="480" type="line"/>
			<point x="85" y="172" type="line" smooth="yes"/>
			<point x="85" y="48"/>
			<point x="131" y="-12"/>
		</contour>
	</outline>
	<anchor name="aboveLC" x="263" y="504"/>
	<anchor name="baseLC" x="259" y="0"/>
	<anchor name="belowLC" x="271" y="-22"/>
	<anchor name="hornLC" x="400" y="494"/>
	<anchor name="ogonekLC" x="380" y="0"/>
</glyph>
<glyph name="cent" format="2">
	<unicode hex="00A2"/>
	<advance width="479"/>
	<outline>
		<contour>
			<point x="282" y="80" type="curve" smooth="yes"/>
			<point x="343" y="80"/>
			<point x="394" y="107"/>
			<point x="435" y="144" type="curve"/>
			<point x="412" y="173" type="line"/>
			<point x="379" y="143"/>
			<point x="335" y="119"/>
			<point x="284" y="119" type="curve" smooth="yes"/>
			<point x="176" y="119"/>
			<point x="107" y="196"/>
			<point x="107" y="311" type="curve" smooth="yes"/>
			<point x="107" y="427"/>
			<point x="183" y="504"/>
			<point x="284" y="504" type="curve" smooth="yes"/>
			<point x="331" y="504"/>
			<point x="369" y="483"/>
			<point x="400" y="455" type="curve"/>
			<point x="424" y="483" type="line"/>
			<point x="392" y="514"/>
			<point x="349" y="543"/>
			<point x="283" y="543" type="curve" smooth="yes"/>
			<point x="164" y="543"/>
			<point x="62" y="461"/>
			<point x="62" y="311" type="curve" smooth="yes"/>
			<point x="62" y="163"/>
			<point x="155" y="80"/>
		</contour>
		<contour>
			<point x="255" y="-28" type="line"/>
			<point x="289" y="-28" type="line"/>
			<point x="289" y="652" type="line"/>
			<point x="255" y="652" type="line"/>
		</contour>
	</outline>
</glyph>
<glyph name="plusminus" format="2">
	<unicode hex="00B1"/>
	<advance width="479"/>
	<outline>
		<contour>
			<point x="219" y="109" type="line"/>
			<point x="260" y="109" type="line"/>
			<point x="260" y="310" type="line"/>
			<point x="445" y="310" type="line"/>
			<point x="445" y="347" type="line"/>
			<point x="260" y="347" type="line"/>
			<point x="260" y="550" type="line"/>
			<point x="219" y="550" type="line"/>
			<point x="219" y="347" type="line"/>
			<point x="34" y="347" type="line"/>
			<point x="34" y="310" type="line"/>
			<point x="219" y="310" type="line"/>
		</contour>
		<contour>
			<point x="34" y="0" type="line"/>
			<point x="445" y="0" type="line"/>
			<point x="445" y="37" type="line"/>
			<point x="34" y="37" type="line"/>
		</contour>
	</outline>
</glyph>
<glyph name="ae" format="2">
	<unicode hex="00E6"/>
	<advance width="777"/>
	<outline>
		<contour>
			<point x="197" y="-12" type="curve" smooth="yes"/>
			<point x="258" y="-12"/>
			<point x="336" y="26"/>
			<point x="399" y="87" type="curve"/>
			<point x="434" y="37"/>
			<point x="485" y="-12"/>
			<point x="571" y="-12" type="curve" smooth="yes"/>
			<point x="642" y="-12"/>
			<point x="681" y="8"/>
			<point x="719" y="35" type="curve"/>
			<point x="701" y="66" type="line"/>
			<point x="667" y="40"/>
			<point x="627" y="27"/>
			<point x="575" y="27" type="curve" smooth="yes"/>
			<point x="478" y="27"/>
			<point x="404" y="113"/>
			<point x="405" y="233" type="curve"/>
			<point x="736" y="233" type="line"/>
			<point x="738" y="246"/>
			<point x="739" y="258"/>
			<point x="739" y="270" type="curve" smooth="yes"/>
			<point x="739" y="411"/>
			<point x="673" y="492"/>
			<point x="560" y="492" type="curve" smooth="yes"/>
			<point x="489" y="492"/>
			<point x="428" y="445"/>
			<point x="393" y="372" type="curve"/>
			<point x="378" y="445"/>
			<point x="331" y="492"/>
			<point x="253" y="492" type="curve" smooth="yes"/>
			<point x="181" y="492"/>
			<point x="115" y="456"/>
			<point x="81" y="430" type="curve"/>
			<point x="101" y="399" type="line"/>
			<point x="134" y="421"/>
			<point x="190" y="453"/>
			<point x="249" y="453" type="curve" smooth="yes"/>
			<point x="344" y="453"/>
			<point x="363" y="375"/>
			<point x="362" y="301" type="curve"/>
			<point x="156" y="277"/>
			<point x="58" y="227"/>
			<point x="58" y="119" type="curve" smooth="yes"/>
			<point x="58" y="29"/>
			<point x="121" y="-12"/>
		</contour>
		<contour>
			<point x="205" y="27" type="curve" smooth="yes"/>
			<point x="150" y="27"/>
			<point x="103" y="53"/>
			<point x="103" y="122" type="curve" smooth="yes"/>
			<point x="103" y="199"/>
			<point x="174" y="243"/>
			<point x="362" y="266" type="curve"/>
			<point x="362" y="240" type="line" smooth="yes"/>
			<point x="362" y="195"/>
			<point x="370" y="148"/>
			<point x="383" y="119" type="curve"/>
			<point x="329" y="60"/>
			<point x="256" y="27"/>
		</contour>
		<contour>
			<point x="405" y="269" type="line"/>
			<point x="415" y="378"/>
			<point x="480" y="454"/>
			<point x="560" y="454" type="curve" smooth="yes"/>
			<point x="644" y="454"/>
			<point x="697" y="392"/>
			<point x="697" y="269" type="curve"/>
		</contour>
	</outline>
	<anchor name="aboveLC" x="406" y="504"/>
	<anchor name="belowLC" x="418" y="-22"/>
</glyph>
<glyph name="eth" format="2">
	<unicode hex="00F0"/>
	<advance width="535"/>
	<outline>
		<contour>
			<point x="267" y="-12" type="curve" smooth="yes"/>
			<point x="387" y="-12"/>
			<point x="470" y="92"/>
			<point x="470" y="252" type="curve" smooth="yes"/>
			<point x="470" y="522"/>
			<point x="320" y="651"/>
			<point x="134" y="726" type="curve"/>
			<point x="114" y="696" type="line"/>
			<point x="294" y="619"/>
			<point x="425" y="506"/>
			<point x="425" y="251" type="curve" smooth="yes"/>
			<point x="425" y="126"/>
			<point x="376" y="27"/>
			<point x="267" y="27" type="curve" smooth="yes"/>
			<point x="178" y="27"/>
			<point x="104" y="106"/>
			<point x="104" y="219" type="curve" smooth="yes"/>
			<point x="104" y="318"/>
			<point x="161" y="404"/>
			<point x="269" y="404" type="curve" smooth="yes"/>
			<point x="321" y="404"/>
			<point x="374" y="387"/>
			<point x="427" y="306" type="curve"/>
			<point x="427" y="349" type="line"/>
			<point x="387" y="411"/>
			<point x="330" y="442"/>
			<point x="267" y="442" type="curve" smooth="yes"/>
			<point x="144" y="442"/>
			<point x="60" y="351"/>
			<point x="60" y="219" type="curve" smooth="yes"/>
			<point x="60" y="75"/>
			<point x="160" y="-12"/>
		</contour>
		<contour>
			<point x="139" y="513" type="line"/>
			<point x="450" y="674" type="line"/>
			<point x="433" y="705" type="line"/>
			<point x="122" y="544" type="line"/>
		</contour>
	</outline>
	<anchor name="aboveUC" x="282" y="731"/>
	<anchor name="belowLC" x="270" y="-22"/>
</glyph>
<glyph name="oslash" format="2">
	<unicode hex="00F8"/>
	<advance width="535"/>
	<outline>
		<contour>
			<point x="268" y="-12" type="curve" smooth="yes"/>
			<point x="383" y="-12"/>
			<point x="483" y="80"/>
			<point x="483" y="239" type="curve" smooth="yes"/>
			<point x="483" y="400"/>
			<point x="383" y="492"/>
			<point x="267" y="492" type="curve" smooth="yes"/>
			<point x="152" y="492"/>
			<point x="52" y="400"/>
			<point x="52" y="239" type="curve" smooth="yes"/>
			<point x="52" y="80"/>
			<point x="152" y="-12"/>
		</contour>
		<contour>
			<point x="268" y="26" type="curve" smooth="yes"/>
			<point x="170" y="26"/>
			<point x="97" y="112"/>
			<point x="97" y="240" type="curve" smooth="yes"/>
			<point x="97" y="366"/>
			<point x="170" y="454"/>
			<point x="267" y="454" type="curve" smooth="yes"/>
			<point x="365" y="454"/>
			<point x="438" y="367"/>
			<point x="438" y="238" type="curve" smooth="yes"/>
			<point x="438" y="112"/>
			<point x="364" y="26"/>
		</contour>
		<contour>
			<point x="73" y="-24" type="line"/>
			<point x="491" y="479" type="line"/>
			<point x="462" y="503" type="line"/>
			<point x="44" y="0" type="line"/>
		</contour>
	</outline>
	<anchor name="aboveLC" x="267" y="504"/>
	<anchor name="belowLC" x="267" y="-22"/>
</glyph>
<glyph name="Aogonek" format="2">
	<unicode hex="0104"/>
	<advance width="526"/>
	<outline>
		<contour>
			<point x="490" y="-215" type="curve" smooth="yes"/>
			<point x="521" y="-215"/>
			<point x="549" y="-201"/>
			<point x="566" y="-186" type="curve"/>
			<point x="550" y="-159" type="line"/>
			<point x="533" y="-172"/>
			<point x="517" y="-178"/>
			<point x="495" y="-178" type="curve" smooth="yes"/>
			<point x="466" y="-178"/>
			<point x="437" y="-161"/>
			<point x="437" y="-121" type="curve" smooth="yes"/>
			<point x="437" y="-78"/>
			<point x="474" y="-30"/>
			<point x="518" y="0" type="curve"/>
			<point x="286" y="659" type="line"/>
			<point x="240" y="659" type="line"/>
			<point x="8" y="0" type="line"/>
			<point x="54" y="0" type="line"/>
			<point x="188" y="388" type="line" smooth="yes"/>
			<point x="215" y="466"/>
			<point x="238" y="535"/>
			<point x="261" y="616" type="curve"/>
			<point x="265" y="616" type="line"/>
			<point x="288" y="535"/>
			<point x="311" y="466"/>
			<point x="338" y="388" type="curve" smooth="yes"/>
			<point x="470" y="0" type="line"/>
			<point x="475" y="0" type="line"/>
			<point x="437" y="-27"/>
			<point x="397" y="-76"/>
			<point x="397" y="-128" type="curve" smooth="yes"/>
			<point x="397" y="-188"/>
			<point x="439" y="-215"/>
		</contour>
		<contour>
			<point x="114" y="226" type="line"/>
			<point x="410" y="226" type="line"/>
			<point x="410" y="265" type="line"/>
			<point x="114" y="265" type="line"/>
		</contour>
	</outline>
	<anchor name="aboveUC" x="263" y="681"/>
</glyph>
<glyph name="Eogonek" format="2">
	<unicode hex="0118"/>
	<advance width="515"/>
	<outline>
		<contour>
			<point x="415" y="-215" type="curve" smooth="yes"/>
			<point x="446" y="-215"/>
			<point x="474" y="-201"/>
			<point x="492" y="-186" type="curve"/>
			<point x="475" y="-159" type="line"/>
			<point x="458" y="-172"/>
			<point x="442" y="-178"/>
			<point x="421" y="-178" type="curve" smooth="yes"/>
			<point x="391" y="-178"/>
			<point x="363" y="-161"/>
			<point x="363" y="-121" type="curve" smooth="yes"/>
			<point x="363" y="-62"/>
			<point x="428" y="0"/>
			<point x="465" y="0" type="curve" smooth="yes"/>
			<point x="468" y="0" type="line"/>
			<point x="468" y="40" type="line"/>
			<point x="143" y="40" type="line"/>
			<point x="143" y="330" type="line"/>
			<point x="407" y="330" type="line"/>
			<point x="407" y="370" type="line"/>
			<point x="143" y="370" type="line"/>
			<point x="143" y="619" type="line"/>
			<point x="458" y="619" type="line"/>
			<point x="458" y="659" type="line"/>
			<point x="97" y="659" type="line"/>
			<point x="97" y="0" type="line"/>
			<point x="402" y="0" type="line"/>
			<point x="359" y="-27"/>
			<point x="322" y="-73"/>
			<point x="322" y="-128" type="curve" smooth="yes"/>
			<point x="322" y="-188"/>
			<point x="364" y="-215"/>
		</contour>
	</outline>
	<anchor name="aboveUC" x="290" y="681"/>
	<anchor name="belowLC" x="300" y="-222"/>
</glyph>
<glyph name="eogonek" format="2">
	<unicode hex="0119"/>
	<advance width="483"/>
	<outline>
		<contour>
			<point x="357" y="-213" type="curve" smooth="yes"/>
			<point x="388" y="-213"/>
			<point x="415" y="-199"/>
			<point x="432" y="-184" type="curve"/>
			<point x="416" y="-157" type="line"/>
			<point x="399" y="-170"/>
			<point x="384" y="-176"/>
			<point x="363" y="-176" type="curve" smooth="yes"/>
			<point x="334" y="-176"/>
			<point x="307" y="-159"/>
			<point x="307" y="-119" type="curve" smooth="yes"/>
			<point x="307" y="-70"/>
			<point x="350" y="-10"/>
			<point x="425" y="35" type="curve"/>
			<point x="407" y="66" type="line"/>
			<point x="373" y="42"/>
			<point x="330" y="27"/>
			<point x="278" y="27" type="curve" smooth="yes"/>
			<point x="176" y="27"/>
			<point x="97" y="108"/>
			<point x="97" y="241" type="curve" smooth="yes"/>
			<point x="97" y="386"/>
			<point x="182" y="454"/>
			<point x="262" y="454" type="curve" smooth="yes"/>
			<point x="348" y="454"/>
			<point x="403" y="393"/>
			<point x="403" y="271" type="curve"/>
			<point x="79" y="271" type="line"/>
			<point x="79" y="233" type="line"/>
			<point x="442" y="233" type="line"/>
			<point x="445" y="246"/>
			<point x="445" y="258"/>
			<point x="445" y="270" type="curve" smooth="yes"/>
			<point x="445" y="411"/>
			<point x="375" y="492"/>
			<point x="261" y="492" type="curve" smooth="yes"/>
			<point x="154" y="492"/>
			<point x="52" y="396"/>
			<point x="52" y="239" type="curve" smooth="yes"/>
			<point x="52" y="82"/>
			<point x="151" y="-12"/>
			<point x="274" y="-12" type="curve" smooth="yes"/>
			<point x="303" y="-12"/>
			<point x="336" y="-6"/>
			<point x="362" y="6" type="curve"/>
			<point x="357" y="14" type="line"/>
			<point x="305" y="-25"/>
			<point x="267" y="-72"/>
			<point x="267" y="-125" type="curve" smooth="yes"/>
			<point x="267" y="-186"/>
			<point x="307" y="-213"/>
		</contour>
	</outline>
	<anchor name="aboveLC" x="261" y="504"/>
	<anchor name="belowLC" x="262" y="-222"/>
</glyph>
<glyph name="Hbar" format="2">
	<unicode hex="0126"/>
	<advance width="679"/>
	<outline>
		<contour>
			<point x="22" y="493" type="line"/>
			<point x="653" y="493" type="line"/>
			<point x="653" y="531" type="line"/>
			<point x="120" y="531" type="line"/>
			<point x="22" y="526" type="line"/>
		</contour>
		<component base="H" xOffset="20"/>
	</outline>
</glyph>
<glyph name="kgreenlandic" format="2">
	<unicode hex="0138"/>
	<advance width="464"/>
	<outline>
		<contour>
			<point x="92" y="0" type="line"/>
			<point x="136" y="0" type="line"/>
			<point x="136" y="130" type="line"/>
			<point x="244" y="257" type="line"/>
			<point x="403" y="0" type="line"/>
			<point x="452" y="0" type="line"/>
			<point x="270" y="290" type="line"/>
			<point x="426" y="480" type="line"/>
			<point x="375" y="480" type="line"/>
			<point x="139" y="189" type="line"/>
			<point x="136" y="189" type="line"/>
			<point x="136" y="480" type="line"/>
			<point x="92" y="480" type="line"/>
		</contour>
	</outline>
</glyph>
<glyph name="Lslash" format="2">
	<unicode hex="0141"/>
	<advance width="475"/>
	<outline>
		<contour>
			<point x="18" y="227" type="line"/>
			<point x="116" y="269" type="line"/>
			<point x="141" y="278" type="line"/>
			<point x="370" y="376" type="line"/>
			<point x="352" y="412" type="line"/>
			<point x="140" y="321" type="line"/>
			<point x="114" y="312" type="line"/>
			<point x="1" y="263" type="line"/>
		</contour>
		<component base="L" xOffset="12"/>
	</outline>
	<anchor name="aboveUC" x="136" y="681"/>
	<anchor name="belowLC" x="293" y="-22"/>
</glyph>
<glyph name="oe" format="2">
	<unicode hex="0153"/>
	<advance width="848"/>
	<outline>
		<contour>
			<point x="262" y="-12" type="curve" smooth="yes"/>
			<point x="347" y="-12"/>
			<point x="413" y="36"/>
			<point x="450" y="129" type="curve"/>
			<point x="484" y="42"/>
			<point x="555" y="-12"/>
			<point x="641" y="-12" type="curve" smooth="yes"/>
			<point x="709" y="-12"/>
			<point x="753" y="10"/>
			<point x="791" y="35" type="curve"/>
			<point x="772" y="66" type="line"/>
			<point x="739" y="42"/>
			<point x="695" y="27"/>
			<point x="643" y="27" type="curve" smooth="yes"/>
			<point x="547" y="27"/>
			<point x="471" y="113"/>
			<point x="472" y="233" type="curve"/>
			<point x="808" y="233" type="line"/>
			<point x="810" y="246"/>
			<point x="811" y="257"/>
			<point x="811" y="270" type="curve" smooth="yes"/>
			<point x="811" y="411"/>
			<point x="741" y="492"/>
			<point x="628" y="492" type="curve"/>
			<point x="550" y="492"/>
			<point x="483" y="438"/>
			<point x="449" y="350" type="curve"/>
			<point x="416" y="444"/>
			<point x="340" y="492"/>
			<point x="262" y="492" type="curve" smooth="yes"/>
			<point x="151" y="492"/>
			<point x="52" y="400"/>
			<point x="52" y="239" type="curve" smooth="yes"/>
			<point x="52" y="80"/>
			<point x="150" y="-12"/>
		</contour>
		<contour>
			<point x="263" y="27" type="curve" smooth="yes"/>
			<point x="168" y="27"/>
			<point x="98" y="113"/>
			<point x="98" y="239" type="curve" smooth="yes"/>
			<point x="98" y="366"/>
			<point x="168" y="453"/>
			<point x="263" y="453" type="curve" smooth="yes"/>
			<point x="359" y="453"/>
			<point x="428" y="366"/>
			<point x="428" y="239" type="curve" smooth="yes"/>
			<point x="428" y="113"/>
			<point x="359" y="27"/>
		</contour>
		<contour>
			<point x="472" y="270" type="line"/>
			<point x="481" y="378"/>
			<point x="549" y="454"/>
			<point x="627" y="454" type="curve" smooth="yes"/>
			<point x="713" y="454"/>
			<point x="769" y="391"/>
			<point x="769" y="270" type="curve"/>
		</contour>
	</outline>
	<anchor name="aboveLC" x="448" y="504"/>
	<anchor name="belowLC" x="448" y="-22"/>
</glyph>
<glyph name="Uogonek" format="2">
	<unicode hex="0172"/>
	<advance width="634"/>
	<outline>
		<contour>
			<point x="329" y="-215" type="curve" smooth="yes"/>
			<point x="360" y="-215"/>
			<point x="388" y="-201"/>
			<point x="406" y="-186" type="curve"/>
			<point x="389" y="-159" type="line"/>
			<point x="372" y="-172"/>
			<point x="356" y="-178"/>
			<point x="335" y="-178" type="curve" smooth="yes"/>
			<point x="305" y="-178"/>
			<point x="276" y="-161"/>
			<point x="276" y="-121" type="curve" smooth="yes"/>
			<point x="276" y="-74"/>
			<point x="316" y="-19"/>
			<point x="360" y="-10" type="curve" smooth="yes"/>
			<point x="472" y="12"/>
			<point x="539" y="89"/>
			<point x="539" y="253" type="curve" smooth="yes"/>
			<point x="539" y="659" type="line"/>
			<point x="496" y="659" type="line"/>
			<point x="496" y="258" type="line" smooth="yes"/>
			<point x="496" y="82"/>
			<point x="411" y="29"/>
			<point x="316" y="29" type="curve" smooth="yes"/>
			<point x="223" y="29"/>
			<point x="141" y="82"/>
			<point x="141" y="258" type="curve" smooth="yes"/>
			<point x="141" y="659" type="line"/>
			<point x="95" y="659" type="line"/>
			<point x="95" y="253" type="line" smooth="yes"/>
			<point x="95" y="47"/>
			<point x="203" y="-12"/>
			<point x="316" y="-12" type="curve"/>
			<point x="314" y="4" type="line"/>
			<point x="276" y="-26"/>
			<point x="236" y="-72"/>
			<point x="236" y="-128" type="curve" smooth="yes"/>
			<point x="236" y="-188"/>
			<point x="278" y="-215"/>
		</contour>
	</outline>
	<anchor name="aboveUC" x="316" y="681"/>
</glyph>
<glyph name="longs" format="2">
	<unicode hex="017F"/>
	<advance width="245"/>
	<outline>
		<contour>
			<point x="99" y="0" type="line"/>
			<point x="143" y="0" type="line"/>
			<point x="143" y="584" type="line" smooth="yes"/>
			<point x="143" y="654"/>
			<point x="167" y="693"/>
			<point x="218" y="693" type="curve" smooth="yes"/>
			<point x="236" y="693"/>
			<point x="256" y="689"/>
			<point x="276" y="681" type="curve"/>
			<point x="288" y="715" type="line"/>
			<point x="267" y="725"/>
			<point x="240" y="731"/>
			<point x="218" y="731" type="curve" smooth="yes"/>
			<point x="142" y="731"/>
			<point x="99" y="682"/>
			<point x="99" y="587" type="curve" smooth="yes"/>
		</contour>
		<contour>
			<point x="33" y="442" type="line"/>
			<point x="127" y="442" type="line"/>
			<point x="127" y="480" type="line"/>
			<point x="100" y="480" type="line"/>
			<point x="33" y="476" type="line"/>
		</contour>
	</outline>
	<anchor name="aboveUC" x="205" y="731"/>
	<anchor name="belowLC" x="122" y="-22"/>
</glyph>
<glyph name="bstroke" format="2">
	<unicode hex="0180"/>
	<advance width="560"/>
	<outline>
		<contour>
			<point x="298" y="-12" type="curve" smooth="yes"/>
			<point x="412" y="-12"/>
			<point x="510" y="78"/>
			<point x="510" y="230" type="curve" smooth="yes"/>
			<point x="510" y="368"/>
			<point x="446" y="458"/>
			<point x="317" y="458" type="curve" smooth="yes"/>
			<point x="259" y="458"/>
			<point x="201" y="424"/>
			<point x="152" y="383" type="curve"/>
			<point x="154" y="477" type="line"/>
			<point x="154" y="719" type="line"/>
			<point x="110" y="719" type="line"/>
			<point x="110" y="0" type="line"/>
			<point x="147" y="0" type="line"/>
			<point x="152" y="49" type="line"/>
			<point x="154" y="49" type="line"/>
			<point x="199" y="12"/>
			<point x="252" y="-12"/>
		</contour>
		<contour>
			<point x="296" y="27" type="curve" smooth="yes"/>
			<point x="259" y="27"/>
			<point x="207" y="44"/>
			<point x="154" y="89" type="curve"/>
			<point x="154" y="340" type="line"/>
			<point x="211" y="391"/>
			<point x="263" y="419"/>
			<point x="311" y="419" type="curve" smooth="yes"/>
			<point x="421" y="419"/>
			<point x="463" y="337"/>
			<point x="463" y="230" type="curve" smooth="yes"/>
			<point x="463" y="111"/>
			<point x="393" y="27"/>
		</contour>
		<contour>
			<point x="19" y="577" type="line"/>
			<point x="344" y="577" type="line"/>
			<point x="344" y="615" type="line"/>
			<point x="111" y="615" type="line"/>
			<point x="19" y="610" type="line"/>
		</contour>
	</outline>
</glyph>
<glyph name="Eturned" format="2">
	<unicode hex="018E"/>
	<advance width="515"/>
	<outline>
		<contour>
			<point x="47" y="0" type="line"/>
			<point x="417" y="0" type="line"/>
			<point x="417" y="659" type="line"/>
			<point x="57" y="659" type="line"/>
			<point x="57" y="619" type="line"/>
			<point x="371" y="619" type="line"/>
			<point x="371" y="370" type="line"/>
			<point x="107" y="370" type="line"/>
			<point x="107" y="330" type="line"/>
			<point x="371" y="330" type="line"/>
			<point x="371" y="40" type="line"/>
			<point x="47" y="40" type="line"/>
		</contour>
	</outline>
	<anchor name="aboveUC" x="244" y="681"/>
	<anchor name="belowLC" x="234" y="-22"/>
	<anchor name="ogonekUC" x="234" y="0"/>
</glyph>
<glyph name="Schwa" format="2">
	<unicode hex="018F"/>
	<advance width="638"/>
	<outline>
		<contour>
			<point x="322" y="-12" type="curve" smooth="yes"/>
			<point x="481" y="-12"/>
			<point x="583" y="104"/>
			<point x="583" y="331" type="curve" smooth="yes"/>
			<point x="583" y="548"/>
			<point x="483" y="671"/>
			<point x="324" y="671" type="curve" smooth="yes"/>
			<point x="226" y="671"/>
			<point x="159" y="633"/>
			<point x="109" y="585" type="curve"/>
			<point x="136" y="557" type="line"/>
			<point x="182" y="601"/>
			<point x="241" y="632"/>
			<point x="325" y="632" type="curve" smooth="yes"/>
			<point x="457" y="632"/>
			<point x="537" y="522"/>
			<point x="537" y="331" type="curve" smooth="yes"/>
			<point x="537" y="133"/>
			<point x="457" y="27"/>
			<point x="322" y="27" type="curve" smooth="yes"/>
			<point x="198" y="27"/>
			<point x="110" y="126"/>
			<point x="108" y="299" type="curve"/>
			<point x="545" y="299" type="line"/>
			<point x="545" y="337" type="line"/>
			<point x="63" y="337" type="line"/>
			<point x="63" y="330"/>
			<point x="62" y="323"/>
			<point x="62" y="317" type="curve" smooth="yes"/>
			<point x="62" y="104"/>
			<point x="164" y="-12"/>
		</contour>
	</outline>
	<anchor name="aboveUC" x="323" y="681"/>
	<anchor name="belowLC" x="322" y="-22"/>
</glyph>
<glyph name="Iotalatin" format="2">
	<unicode hex="0196"/>
	<advance width="242"/>
	<outline>
		<contour>
			<point x="165" y="-8" type="curve" smooth="yes"/>
			<point x="180" y="-8"/>
			<point x="193" y="-4"/>
			<point x="202" y="0" type="curve"/>
			<point x="195" y="35" type="line"/>
			<point x="187" y="33"/>
			<point x="179" y="32"/>
			<point x="173" y="32" type="curve" smooth="yes"/>
			<point x="156" y="32"/>
			<point x="143" y="40"/>
			<point x="143" y="68" type="curve" smooth="yes"/>
			<point x="143" y="659" type="line"/>
			<point x="97" y="659" type="line"/>
			<point x="97" y="73" type="line" smooth="yes"/>
			<point x="97" y="15"/>
			<point x="121" y="-8"/>
		</contour>
	</outline>
	<anchor name="aboveUC" x="120" y="681"/>
	<anchor name="belowLC" x="145" y="-22"/>
</glyph>
<glyph name="Istroke" format="2">
	<unicode hex="0197"/>
	<advance width="280"/>
	<outline>
		<contour>
			<point x="22" y="331" type="line"/>
			<point x="255" y="331" type="line"/>
			<point x="255" y="369" type="line"/>
			<point x="120" y="369" type="line"/>
			<point x="22" y="365" type="line"/>
		</contour>
		<component base="I" xOffset="20"/>
	</outline>
	<anchor name="aboveUC" x="140" y="681"/>
	<anchor name="belowLC" x="140" y="-22"/>
</glyph>
<glyph name="lbar" format="2">
	<unicode hex="019A"/>
	<advance width="269"/>
	<outline>
		<contour>
			<point x="22" y="378" type="line"/>
			<point x="243" y="378" type="line"/>
			<point x="243" y="416" type="line"/>
			<point x="113" y="416" type="line"/>
			<point x="22" y="412" type="line"/>
		</contour>
		<component base="l" xOffset="21"/>
	</outline>
	<anchor name="aboveUC" x="135" y="731"/>
	<anchor name="belowLC" x="155" y="-22"/>
</glyph>
<glyph name="lambdabar" format="2">
	<unicode hex="019B"/>
	<advance width="436"/>
	<outline>
		<contour>
			<point x="55" y="482" type="line"/>
			<point x="366" y="644" type="line"/>
			<point x="348" y="675" type="line"/>
			<point x="38" y="513" type="line"/>
		</contour>
		<component base="lambda.latin"/>
	</outline>
	<anchor name="aboverightUC" x="294" y="681"/>
	<anchor name="aboveUC" x="184" y="731"/>
	<anchor name="belowLC" x="216" y="-22"/>
</glyph>
<glyph name="ohorn" format="2">
	<unicode hex="01A1"/>
	<advance width="535"/>
	<outline>
		<contour>
			<point x="390" y="445" type="line"/>
			<point x="443" y="460"/>
			<point x="501" y="494"/>
			<point x="501" y="572" type="curve" smooth="yes"/>
			<point x="501" y="596"/>
			<point x="492" y="620"/>
			<point x="480" y="642" type="curve"/>
			<point x="444" y="622" type="line"/>
			<point x="452" y="605"/>
			<point x="458" y="586"/>
			<point x="458" y="569" type="curve" smooth="yes"/>
			<point x="458" y="512"/>
			<point x="423" y="480"/>
			<point x="355" y="470" type="curve"/>
		</contour>
		<component base="o"/>
	</outline>
	<anchor name="aboveLC" x="267" y="504"/>
	<anchor name="belowLC" x="267" y="-22"/>
</glyph>
<glyph name="uhorn" format="2">
	<unicode hex="01B0"/>
	<advance width="529"/>
	<outline>
		<contour>
			<point x="437" y="457" type="line"/>
			<point x="477" y="471"/>
			<point x="529" y="501"/>
			<point x="529" y="582" type="curve" smooth="yes"/>
			<point x="529" y="606"/>
			<point x="522" y="629"/>
			<point x="508" y="652" type="curve"/>
			<point x="472" y="632" type="line"/>
			<point x="481" y="615"/>
			<point x="486" y="595"/>
			<point x="486" y="579" type="curve" smooth="yes"/>
			<point x="486" y="519"/>
			<point x="452" y="490"/>
			<point x="400" y="480" type="curve"/>
		</contour>
		<component base="u"/>
	</outline>
	<anchor name="aboveLC" x="263" y="504"/>
	<anchor name="belowLC" x="273" y="-22"/>
</glyph>
<glyph name="Ezh" format="2">
	<unicode hex="01B7"/>
	<advance width="547"/>
	<outline>
		<contour>
			<point x="280" y="-12" type="curve" smooth="yes"/>
			<point x="401" y="-12"/>
			<point x="503" y="59"/>
			<point x="503" y="185" type="curve" smooth="yes"/>
			<point x="503" y="307"/>
			<point x="401" y="388"/>
			<point x="245" y="362" type="curve"/>
			<point x="492" y="632" type="line"/>
			<point x="492" y="659" type="line"/>
			<point x="89" y="659" type="line"/>
			<point x="89" y="619" type="line"/>
			<point x="429" y="619" type="line"/>
			<point x="179" y="348" type="line"/>
			<point x="202" y="315" type="line"/>
			<point x="228" y="327"/>
			<point x="247" y="331"/>
			<point x="289" y="331" type="curve" smooth="yes"/>
			<point x="390" y="331"/>
			<point x="457" y="276"/>
			<point x="457" y="183" type="curve" smooth="yes"/>
			<point x="457" y="84"/>
			<point x="374" y="30"/>
			<point x="278" y="30" type="curve" smooth="yes"/>
			<point x="196" y="30"/>
			<point x="133" y="48"/>
			<point x="72" y="113" type="curve"/>
			<point x="45" y="84" type="line"/>
			<point x="108" y="12"/>
			<point x="181" y="-12"/>
		</contour>
	</outline>
	<anchor name="aboveUC" x="289" y="681"/>
	<anchor name="belowLC" x="280" y="-22"/>
</glyph>
<glyph name="wynn" format="2">
	<unicode hex="01BF"/>
	<advance width="526"/>
	<outline>
		<contour>
			<point x="92" y="-217" type="line"/>
			<point x="136" y="-217" type="line"/>
			<point x="136" y="-100" type="line"/>
			<point x="136" y="-12" type="line"/>
			<point x="329" y="35"/>
			<point x="474" y="172"/>
			<point x="474" y="325" type="curve" smooth="yes"/>
			<point x="474" y="426"/>
			<point x="419" y="492"/>
			<point x="313" y="492" type="curve" smooth="yes"/>
			<point x="246" y="492"/>
			<point x="193" y="465"/>
			<point x="137" y="396" type="curve"/>
			<point x="134" y="396" type="line"/>
			<point x="130" y="480" type="line"/>
			<point x="92" y="480" type="line"/>
		</contour>
		<contour>
			<point x="136" y="31" type="curve"/>
			<point x="136" y="347" type="line"/>
			<point x="208" y="435"/>
			<point x="255" y="453"/>
			<point x="307" y="453" type="curve" smooth="yes"/>
			<point x="391" y="453"/>
			<point x="427" y="395"/>
			<point x="427" y="322" type="curve" smooth="yes"/>
			<point x="427" y="196"/>
			<point x="305" y="74"/>
		</contour>
	</outline>
	<anchor name="aboveLC" x="284" y="504"/>
	<anchor name="belowLC" x="114" y="-218"/>
</glyph>
<glyph name="OU" format="2">
	<unicode hex="0222"/>
	<advance width="652"/>
	<outline>
		<contour>
			<point x="326" y="-12" type="curve" smooth="yes"/>
			<point x="478" y="-12"/>
			<point x="598" y="61"/>
			<point x="598" y="197" type="curve" smooth="yes"/>
			<point x="598" y="317"/>
			<point x="501" y="381"/>
			<point x="385" y="395" type="curve"/>
			<point x="385" y="377" type="line"/>
			<point x="502" y="399"/>
			<point x="549" y="469"/>
			<point x="549" y="582" type="curve" smooth="yes"/>
			<point x="549" y="659" type="line"/>
			<point x="505" y="659" type="line"/>
			<point x="505" y="590" type="line" smooth="yes"/>
			<point x="505" y="448"/>
			<point x="421" y="405"/>
			<point x="326" y="405" type="curve" smooth="yes"/>
			<point x="233" y="405"/>
			<point x="151" y="448"/>
			<point x="151" y="590" type="curve" smooth="yes"/>
			<point x="151" y="659" type="line"/>
			<point x="105" y="659" type="line"/>
			<point x="105" y="582" type="line" smooth="yes"/>
			<point x="105" y="469"/>
			<point x="152" y="399"/>
			<point x="269" y="377" type="curve"/>
			<point x="269" y="395" type="line"/>
			<point x="153" y="381"/>
			<point x="55" y="317"/>
			<point x="55" y="197" type="curve" smooth="yes"/>
			<point x="55" y="61"/>
			<point x="174" y="-12"/>
		</contour>
		<contour>
			<point x="326" y="30" type="curve" smooth="yes"/>
			<point x="200" y="30"/>
			<point x="103" y="86"/>
			<point x="103" y="199" type="curve" smooth="yes"/>
			<point x="103" y="310"/>
			<point x="200" y="364"/>
			<point x="326" y="364" type="curve" smooth="yes"/>
			<point x="453" y="364"/>
			<point x="549" y="310"/>
			<point x="549" y="199" type="curve" smooth="yes"/>
			<point x="549" y="86"/>
			<point x="453" y="30"/>
		</contour>
	</outline>
	<anchor name="aboveUC" x="326" y="681"/>
	<anchor name="belowLC" x="326" y="-22"/>
</glyph>
<glyph name="ou" format="2">
	<unicode hex="0223"/>
	<advance width="526"/>
	<outline>
		<contour>
			<point x="268" y="27" type="curve" smooth="yes"/>
			<point x="167" y="27"/>
			<point x="94" y="99"/>
			<point x="94" y="188" type="curve" smooth="yes"/>
			<point x="94" y="273"/>
			<point x="140" y="338"/>
			<point x="239" y="383" type="curve"/>
			<point x="356" y="340"/>
			<point x="431" y="294"/>
			<point x="431" y="178" type="curve" smooth="yes"/>
			<point x="431" y="95"/>
			<point x="367" y="27"/>
		</contour>
		<contour>
			<point x="267" y="-12" type="curve" smooth="yes"/>
			<point x="394" y="-12"/>
			<point x="478" y="71"/>
			<point x="478" y="178" type="curve" smooth="yes"/>
			<point x="478" y="290"/>
			<point x="406" y="353"/>
			<point x="337" y="388" type="curve"/>
			<point x="337" y="392" type="line"/>
			<point x="397" y="434"/>
			<point x="452" y="496"/>
			<point x="452" y="586" type="curve" smooth="yes"/>
			<point x="452" y="636"/>
			<point x="439" y="678"/>
			<point x="408" y="722" type="curve"/>
			<point x="374" y="702" type="line"/>
			<point x="398" y="666"/>
			<point x="408" y="624"/>
			<point x="408" y="584" type="curve" smooth="yes"/>
			<point x="408" y="513"/>
			<point x="371" y="454"/>
			<point x="297" y="406" type="curve"/>
			<point x="208" y="444"/>
			<point x="125" y="488"/>
			<point x="125" y="593" type="curve" smooth="yes"/>
			<point x="125" y="640"/>
			<point x="135" y="680"/>
			<point x="158" y="715" type="curve"/>
			<point x="123" y="731" type="line"/>
			<point x="94" y="690"/>
			<point x="80" y="649"/>
			<point x="80" y="590" type="curve" smooth="yes"/>
			<point x="80" y="505"/>
			<point x="130" y="449"/>
			<point x="204" y="406" type="curve"/>
			<point x="204" y="402" type="line"/>
			<point x="114" y="369"/>
			<point x="48" y="290"/>
			<point x="48" y="187" type="curve" smooth="yes"/>
			<point x="48" y="73"/>
			<point x="141" y="-12"/>
		</contour>
	</outline>
	<anchor name="aboveUC" x="262" y="731"/>
	<anchor name="belowLC" x="262" y="-22"/>
</glyph>
<glyph name="Astroke" format="2">
	<unicode hex="023A"/>
	<advance width="526"/>
	<outline>
		<contour>
			<point x="152" y="-44" type="line"/>
			<point x="400" y="695" type="line"/>
			<point x="371" y="702" type="line"/>
			<point x="123" y="-37" type="line"/>
		</contour>
		<component base="A"/>
	</outline>
	<anchor name="aboveUC" x="263" y="681"/>
	<anchor name="belowLC" x="263" y="-22"/>
</glyph>
<glyph name="Cstroke" format="2">
	<unicode hex="023B"/>
	<advance width="564"/>
	<outline>
		<contour>
			<point x="191" y="-44" type="line"/>
			<point x="444" y="695" type="line"/>
			<point x="414" y="702" type="line"/>
			<point x="161" y="-37" type="line"/>
		</contour>
		<component base="C"/>
	</outline>
	<anchor name="aboveUC" x="323" y="681"/>
	<anchor name="belowLC" x="341" y="-22"/>
</glyph>
<glyph name="Lbar" format="2">
	<unicode hex="023D"/>
	<advance width="483"/>
	<outline>
		<contour>
			<point x="22" y="332" type="line"/>
			<point x="357" y="332" type="line"/>
			<point x="357" y="370" type="line"/>
			<point x="119" y="370" type="line"/>
			<point x="22" y="368" type="line"/>
		</contour>
		<component base="L" xOffset="20"/>
	</outline>
	<anchor name="aboveUC" x="144" y="681"/>
	<anchor name="belowLC" x="301" y="-22"/>
</glyph>
<glyph name="Bstroke" format="2">
	<unicode hex="0243"/>
	<advance width="594"/>
	<outline>
		<contour>
			<point x="117" y="0" type="line"/>
			<point x="308" y="0" type="line" smooth="yes"/>
			<point x="457" y="0"/>
			<point x="553" y="65"/>
			<point x="553" y="193" type="curve" smooth="yes"/>
			<point x="553" y="285"/>
			<point x="493" y="339"/>
			<point x="396" y="353" type="curve"/>
			<point x="396" y="357" type="line"/>
			<point x="473" y="377"/>
			<point x="513" y="431"/>
			<point x="513" y="499" type="curve" smooth="yes"/>
			<point x="513" y="609"/>
			<point x="428" y="659"/>
			<point x="295" y="659" type="curve" smooth="yes"/>
			<point x="117" y="659" type="line"/>
		</contour>
		<contour>
			<point x="163" y="371" type="line"/>
			<point x="163" y="621" type="line"/>
			<point x="282" y="621" type="line" smooth="yes"/>
			<point x="403" y="621"/>
			<point x="467" y="586"/>
			<point x="467" y="501" type="curve" smooth="yes"/>
			<point x="467" y="414"/>
			<point x="412" y="371"/>
			<point x="277" y="371" type="curve" smooth="yes"/>
		</contour>
		<contour>
			<point x="163" y="38" type="line"/>
			<point x="163" y="333" type="line"/>
			<point x="296" y="333" type="line" smooth="yes"/>
			<point x="431" y="333"/>
			<point x="508" y="289"/>
			<point x="508" y="193" type="curve" smooth="yes"/>
			<point x="508" y="86"/>
			<point x="427" y="38"/>
			<point x="296" y="38" type="curve" smooth="yes"/>
		</contour>
		<contour>
			<point x="22" y="175" type="line"/>
			<point x="330" y="175" type="line"/>
			<point x="330" y="213" type="line"/>
			<point x="118" y="213" type="line"/>
			<point x="22" y="209" type="line"/>
		</contour>
	</outline>
</glyph>
<glyph name="Ubar" format="2">
	<unicode hex="0244"/>
	<advance width="674"/>
	<outline>
		<contour>
			<point x="20" y="335" type="line"/>
			<point x="651" y="335" type="line"/>
			<point x="651" y="373" type="line"/>
			<point x="117" y="373" type="line"/>
			<point x="20" y="369" type="line"/>
		</contour>
		<component base="U" xOffset="20"/>
	</outline>
	<anchor name="aboveUC" x="336" y="681"/>
	<anchor name="belowLC" x="336" y="-22"/>
</glyph>
<glyph name="ccurl" format="2">
	<unicode hex="0255"/>
	<advance width="450"/>
	<outline>
		<contour>
			<point x="112" y="-67" type="line"/>
			<point x="165" y="59"/>
			<point x="247" y="139"/>
			<point x="338" y="139" type="curve" smooth="yes"/>
			<point x="373" y="139"/>
			<point x="388" y="125"/>
			<point x="388" y="104" type="curve" smooth="yes"/>
			<point x="388" y="59"/>
			<point x="338" y="26"/>
			<point x="273" y="26" type="curve" smooth="yes"/>
			<point x="175" y="26"/>
			<point x="97" y="113"/>
			<point x="97" y="239" type="curve" smooth="yes"/>
			<point x="97" y="366"/>
			<point x="173" y="454"/>
			<point x="272" y="454" type="curve" smooth="yes"/>
			<point x="321" y="454"/>
			<point x="359" y="434"/>
			<point x="388" y="405" type="curve"/>
			<point x="412" y="433" type="line"/>
			<point x="379" y="465"/>
			<point x="337" y="492"/>
			<point x="271" y="492" type="curve" smooth="yes"/>
			<point x="154" y="492"/>
			<point x="52" y="401"/>
			<point x="52" y="239" type="curve" smooth="yes"/>
			<point x="52" y="80"/>
			<point x="153" y="-12"/>
			<point x="271" y="-12" type="curve" smooth="yes"/>
			<point x="365" y="-12"/>
			<point x="428" y="39"/>
			<point x="428" y="100" type="curve" smooth="yes"/>
			<point x="428" y="142"/>
			<point x="402" y="176"/>
			<point x="340" y="176" type="curve" smooth="yes"/>
			<point x="232" y="176"/>
			<point x="135" y="87"/>
			<point x="78" y="-53" type="curve"/>
		</contour>
	</outline>
	<anchor name="aboveLC" x="272" y="504"/>
	<anchor name="belowLC" x="290" y="-22"/>
</glyph>
<glyph name="schwahookrhotic" format="2">
	<unicode hex="025A"/>
	<advance width="633"/>
	<outline>
		<contour>
			<point x="234" y="-12" type="curve" smooth="yes"/>
			<point x="358" y="-12"/>
			<point x="431" y="102"/>
			<point x="431" y="240" type="curve" smooth="yes"/>
			<point x="431" y="407"/>
			<point x="342" y="492"/>
			<point x="225" y="492" type="curve" smooth="yes"/>
			<point x="156" y="492"/>
			<point x="108" y="469"/>
			<point x="68" y="442" type="curve"/>
			<point x="86" y="408" type="line"/>
			<point x="124" y="435"/>
			<point x="167" y="453"/>
			<point x="222" y="453" type="curve" smooth="yes"/>
			<point x="312" y="453"/>
			<point x="385" y="386"/>
			<point x="385" y="237" type="curve" smooth="yes"/>
			<point x="385" y="123"/>
			<point x="331" y="27"/>
			<point x="234" y="27" type="curve" smooth="yes"/>
			<point x="147" y="27"/>
			<point x="97" y="78"/>
			<point x="82" y="166" type="curve"/>
			<point x="510" y="327" type="line"/>
			<point x="510" y="305" type="line" smooth="yes"/>
			<point x="510" y="223"/>
			<point x="547" y="194"/>
			<point x="590" y="194" type="curve" smooth="yes"/>
			<point x="618" y="194"/>
			<point x="637" y="206"/>
			<point x="652" y="216" type="curve"/>
			<point x="634" y="244" type="line"/>
			<point x="626" y="236"/>
			<point x="612" y="229"/>
			<point x="596" y="229" type="curve" smooth="yes"/>
			<point x="562" y="229"/>
			<point x="544" y="250"/>
			<point x="544" y="325" type="curve" smooth="yes"/>
			<point x="544" y="338"/>
			<point x="544" y="349"/>
			<point x="546" y="368" type="curve"/>
			<point x="536" y="375" type="line"/>
			<point x="38" y="187" type="line"/>
			<point x="49" y="73"/>
			<point x="112" y="-12"/>
		</contour>
	</outline>
	<anchor name="aboveLC" x="224" y="504"/>
	<anchor name="belowLC" x="261" y="-22"/>
</glyph>
<glyph name="eopenreversed" format="2">
	<unicode hex="025C"/>
	<advance width="441"/>
	<outline>
		<contour>
			<point x="205" y="-12" type="curve" smooth="yes"/>
			<point x="313" y="-12"/>
			<point x="389" y="47"/>
			<point x="389" y="132" type="curve" smooth="yes"/>
			<point x="389" y="202"/>
			<point x="333" y="239"/>
			<point x="280" y="253" type="curve"/>
			<point x="280" y="257" type="line"/>
			<point x="330" y="277"/>
			<point x="362" y="321"/>
			<point x="362" y="371" type="curve" smooth="yes"/>
			<point x="362" y="450"/>
			<point x="291" y="492"/>
			<point x="208" y="492" type="curve" smooth="yes"/>
			<point x="148" y="492"/>
			<point x="100" y="474"/>
			<point x="60" y="442" type="curve"/>
			<point x="80" y="412" type="line"/>
			<point x="121" y="443"/>
			<point x="160" y="454"/>
			<point x="208" y="454" type="curve" smooth="yes"/>
			<point x="267" y="454"/>
			<point x="316" y="425"/>
			<point x="316" y="368" type="curve" smooth="yes"/>
			<point x="316" y="313"/>
			<point x="274" y="271"/>
			<point x="178" y="271" type="curve" smooth="yes"/>
			<point x="132" y="271" type="line"/>
			<point x="132" y="233" type="line"/>
			<point x="192" y="233" type="line" smooth="yes"/>
			<point x="288" y="233"/>
			<point x="343" y="196"/>
			<point x="343" y="135" type="curve" smooth="yes"/>
			<point x="343" y="69"/>
			<point x="285" y="26"/>
			<point x="199" y="26" type="curve" smooth="yes"/>
			<point x="146" y="26"/>
			<point x="104" y="38"/>
			<point x="58" y="74" type="curve"/>
			<point x="38" y="46" type="line"/>
			<point x="89" y="4"/>
			<point x="137" y="-12"/>
		</contour>
	</outline>
	<anchor name="aboveLC" x="212" y="504"/>
	<anchor name="belowLC" x="216" y="-22"/>
</glyph>
<glyph name="ghook" format="2">
	<unicode hex="0260"/>
	<advance width="544"/>
	<outline>
		<contour>
			<point x="258" y="-230" type="curve" smooth="yes"/>
			<point x="381" y="-230"/>
			<point x="452" y="-156"/>
			<point x="452" y="-41" type="curve" smooth="yes"/>
			<point x="452" y="585" type="line" smooth="yes"/>
			<point x="452" y="645"/>
			<point x="467" y="693"/>
			<point x="513" y="693" type="curve" smooth="yes"/>
			<point x="529" y="693"/>
			<point x="541" y="689"/>
			<point x="552" y="685" type="curve"/>
			<point x="562" y="721" type="line"/>
			<point x="549" y="727"/>
			<point x="531" y="731"/>
			<point x="513" y="731" type="curve" smooth="yes"/>
			<point x="447" y="731"/>
			<point x="408" y="686"/>
			<point x="408" y="596" type="curve"/>
			<point x="410" y="433" type="line"/>
			<point x="362" y="470"/>
			<point x="323" y="492"/>
			<point x="266" y="492" type="curve" smooth="yes"/>
			<point x="151" y="492"/>
			<point x="52" y="398"/>
			<point x="52" y="246" type="curve" smooth="yes"/>
			<point x="52" y="88"/>
			<point x="130" y="0"/>
			<point x="251" y="0" type="curve" smooth="yes"/>
			<point x="314" y="0"/>
			<point x="369" y="35"/>
			<point x="408" y="74" type="curve"/>
			<point x="408" y="-35" type="line" smooth="yes"/>
			<point x="407" y="-133"/>
			<point x="356" y="-192"/>
			<point x="258" y="-192" type="curve" smooth="yes"/>
			<point x="207" y="-192"/>
			<point x="157" y="-178"/>
			<point x="109" y="-143" type="curve"/>
			<point x="89" y="-178" type="line"/>
			<point x="137" y="-210"/>
			<point x="193" y="-230"/>
		</contour>
		<contour>
			<point x="257" y="39" type="curve" smooth="yes"/>
			<point x="155" y="39"/>
			<point x="98" y="122"/>
			<point x="98" y="246" type="curve" smooth="yes"/>
			<point x="98" y="363"/>
			<point x="172" y="453"/>
			<point x="268" y="453" type="curve" smooth="yes"/>
			<point x="315" y="453"/>
			<point x="357" y="436"/>
			<point x="408" y="391" type="curve"/>
			<point x="408" y="118" type="line"/>
			<point x="357" y="67"/>
			<point x="310" y="39"/>
		</contour>
	</outline>
	<anchor name="aboveLC" x="249" y="504"/>
	<anchor name="belowLC" x="273" y="-218"/>
</glyph>
<glyph name="ramshorn" format="2">
	<unicode hex="0264"/>
	<advance width="477"/>
	<outline>
		<contour>
			<point x="238" y="-12" type="curve" smooth="yes"/>
			<point x="347" y="-12"/>
			<point x="398" y="51"/>
			<point x="398" y="146" type="curve" smooth="yes"/>
			<point x="398" y="226"/>
			<point x="339" y="305"/>
			<point x="269" y="373" type="curve"/>
			<point x="311" y="422"/>
			<point x="352" y="453"/>
			<point x="396" y="453" type="curve" smooth="yes"/>
			<point x="414" y="453"/>
			<point x="430" y="449"/>
			<point x="444" y="439" type="curve"/>
			<point x="461" y="472" type="line"/>
			<point x="442" y="485"/>
			<point x="419" y="492"/>
			<point x="393" y="492" type="curve" smooth="yes"/>
			<point x="340" y="492"/>
			<point x="286" y="453"/>
			<point x="238" y="400" type="curve"/>
			<point x="190" y="453"/>
			<point x="137" y="492"/>
			<point x="83" y="492" type="curve" smooth="yes"/>
			<point x="58" y="492"/>
			<point x="34" y="485"/>
			<point x="16" y="472" type="curve"/>
			<point x="32" y="439" type="line"/>
			<point x="46" y="449"/>
			<point x="62" y="453"/>
			<point x="80" y="453" type="curve" smooth="yes"/>
			<point x="124" y="453"/>
			<point x="166" y="422"/>
			<point x="208" y="373" type="curve"/>
			<point x="136" y="305"/>
			<point x="79" y="226"/>
			<point x="79" y="146" type="curve" smooth="yes"/>
			<point x="79" y="51"/>
			<point x="130" y="-12"/>
		</contour>
		<contour>
			<point x="238" y="26" type="curve" smooth="yes"/>
			<point x="160" y="26"/>
			<point x="124" y="81"/>
			<point x="124" y="147" type="curve" smooth="yes"/>
			<point x="124" y="218"/>
			<point x="176" y="290"/>
			<point x="238" y="349" type="curve"/>
			<point x="301" y="290"/>
			<point x="353" y="218"/>
			<point x="353" y="147" type="curve" smooth="yes"/>
			<point x="353" y="81"/>
			<point x="317" y="26"/>
		</contour>
	</outline>
	<anchor name="aboveLC" x="237" y="504"/>
	<anchor name="belowLC" x="237" y="-22"/>
</glyph>
<glyph name="iotalatin" format="2">
	<unicode hex="0269"/>
	<advance width="237"/>
	<outline>
		<contour>
			<point x="151" y="-8" type="curve" smooth="yes"/>
			<point x="164" y="-8"/>
			<point x="177" y="-4"/>
			<point x="183" y="-2" type="curve"/>
			<point x="175" y="33" type="line"/>
			<point x="167" y="31"/>
			<point x="163" y="31"/>
			<point x="159" y="31" type="curve" smooth="yes"/>
			<point x="145" y="31"/>
			<point x="136" y="41"/>
			<point x="136" y="62" type="curve" smooth="yes"/>
			<point x="136" y="480" type="line"/>
			<point x="92" y="480" type="line"/>
			<point x="92" y="68" type="line" smooth="yes"/>
			<point x="92" y="15"/>
			<point x="112" y="-8"/>
		</contour>
	</outline>
	<anchor name="aboveLC" x="114" y="504"/>
	<anchor name="belowLC" x="134" y="-22"/>
</glyph>
<glyph name="obar" format="2">
	<unicode hex="0275"/>
	<advance width="535"/>
	<outline>
		<contour>
			<point x="267" y="-12" type="curve" smooth="yes"/>
			<point x="385" y="-12"/>
			<point x="483" y="74"/>
			<point x="483" y="239" type="curve" smooth="yes"/>
			<point x="483" y="406"/>
			<point x="385" y="492"/>
			<point x="267" y="492" type="curve" smooth="yes"/>
			<point x="150" y="492"/>
			<point x="52" y="406"/>
			<point x="52" y="239" type="curve" smooth="yes"/>
			<point x="52" y="74"/>
			<point x="150" y="-12"/>
		</contour>
		<contour>
			<point x="267" y="27" type="curve" smooth="yes"/>
			<point x="168" y="27"/>
			<point x="95" y="107"/>
			<point x="95" y="239" type="curve" smooth="yes"/>
			<point x="95" y="372"/>
			<point x="168" y="454"/>
			<point x="267" y="454" type="curve" smooth="yes"/>
			<point x="367" y="454"/>
			<point x="440" y="372"/>
			<point x="440" y="239" type="curve" smooth="yes"/>
			<point x="440" y="107"/>
			<point x="367" y="27"/>
		</contour>
		<contour>
			<point x="83" y="233" type="line"/>
			<point x="448" y="233" type="line"/>
			<point x="448" y="271" type="line"/>
			<point x="83" y="271" type="line"/>
		</contour>
	</outline>
	<anchor name="aboveLC" x="267" y="504"/>
	<anchor name="belowLC" x="267" y="-22"/>
	<anchor name="ogonekLC" x="267" y="0"/>
</glyph>
<glyph name="oesmall" format="2">
	<unicode hex="0276"/>
	<advance width="684"/>
	<outline>
		<contour>
			<point x="285" y="-12" type="curve" smooth="yes"/>
			<point x="314" y="-12"/>
			<point x="344" y="-10"/>
			<point x="380" y="0" type="curve"/>
			<point x="667" y="0" type="line"/>
			<point x="667" y="38" type="line"/>
			<point x="414" y="38" type="line"/>
			<point x="414" y="233" type="line"/>
			<point x="616" y="233" type="line"/>
			<point x="616" y="271" type="line"/>
			<point x="414" y="271" type="line"/>
			<point x="414" y="442" type="line"/>
			<point x="657" y="442" type="line"/>
			<point x="657" y="480" type="line"/>
			<point x="380" y="480" type="line"/>
			<point x="344" y="490"/>
			<point x="314" y="492"/>
			<point x="285" y="492" type="curve" smooth="yes"/>
			<point x="151" y="492"/>
			<point x="52" y="403"/>
			<point x="52" y="241" type="curve" smooth="yes"/>
			<point x="52" y="79"/>
			<point x="151" y="-12"/>
		</contour>
		<contour>
			<point x="287" y="27" type="curve" smooth="yes"/>
			<point x="180" y="27"/>
			<point x="100" y="101"/>
			<point x="100" y="241" type="curve" smooth="yes"/>
			<point x="100" y="380"/>
			<point x="180" y="453"/>
			<point x="287" y="453" type="curve" smooth="yes"/>
			<point x="312" y="453"/>
			<point x="343" y="446"/>
			<point x="368" y="439" type="curve"/>
			<point x="368" y="41" type="line"/>
			<point x="343" y="34"/>
			<point x="312" y="27"/>
		</contour>
	</outline>
	<anchor name="aboveLC" x="411" y="504"/>
	<anchor name="belowLC" x="431" y="-22"/>
</glyph>
<glyph name="rtail" format="2">
	<unicode hex="027D"/>
	<advance width="317"/>
	<outline>
		<contour>
			<point x="190" y="-229" type="curve" smooth="yes"/>
			<point x="208" y="-229"/>
			<point x="230" y="-223"/>
			<point x="241" y="-217" type="curve"/>
			<point x="231" y="-181" type="line"/>
			<point x="221" y="-185"/>
			<point x="206" y="-191"/>
			<point x="191" y="-191" type="curve" smooth="yes"/>
			<point x="148" y="-191"/>
			<point x="136" y="-151"/>
			<point x="136" y="-93" type="curve" smooth="yes"/>
			<point x="136" y="327" type="line"/>
			<point x="173" y="417"/>
			<point x="224" y="450"/>
			<point x="267" y="450" type="curve" smooth="yes"/>
			<point x="286" y="450"/>
			<point x="295" y="448"/>
			<point x="311" y="442" type="curve"/>
			<point x="321" y="482" type="line"/>
			<point x="305" y="490"/>
			<point x="291" y="492"/>
			<point x="273" y="492" type="curve" smooth="yes"/>
			<point x="214" y="492"/>
			<point x="167" y="450"/>
			<point x="137" y="391" type="curve"/>
			<point x="134" y="391" type="line"/>
			<point x="130" y="480" type="line"/>
			<point x="92" y="480" type="line"/>
			<point x="92" y="-96" type="line" smooth="yes"/>
			<point x="92" y="-187"/>
			<point x="122" y="-229"/>
		</contour>
	</outline>
	<anchor name="aboveLC" x="206" y="504"/>
	<anchor name="belowLC" x="180" y="-218"/>
</glyph>
<glyph name="apicaldental" format="2">
	<unicode hex="027F"/>
	<advance width="243"/>
	<outline>
		<contour>
			<point x="114" y="-217" type="line"/>
			<point x="158" y="-217" type="line"/>
			<point x="158" y="352" type="line" smooth="yes"/>
			<point x="158" y="446"/>
			<point x="125" y="492"/>
			<point x="50" y="492" type="curve" smooth="yes"/>
			<point x="30" y="492"/>
			<point x="11" y="486"/>
			<point x="-2" y="480" type="curve"/>
			<point x="10" y="446" type="line"/>
			<point x="20" y="450"/>
			<point x="34" y="454"/>
			<point x="49" y="454" type="curve" smooth="yes"/>
			<point x="104" y="454"/>
			<point x="114" y="410"/>
			<point x="114" y="349" type="curve" smooth="yes"/>
		</contour>
	</outline>
	<anchor name="aboveLC" x="122" y="504"/>
	<anchor name="belowLC" x="135" y="-218"/>
</glyph>
<glyph name="dotlessjstrokehook" format="2">
	<unicode hex="0284"/>
	<advance width="262"/>
	<outline>
		<contour>
			<point x="22" y="233" type="line"/>
			<point x="245" y="233" type="line"/>
			<point x="245" y="271" type="line"/>
			<point x="113" y="271" type="line"/>
			<point x="22" y="267" type="line"/>
		</contour>
		<component base="esh" xOffset="21"/>
	</outline>
	<anchor name="aboveUC" x="196" y="731"/>
	<anchor name="belowLC" x="75" y="-218"/>
</glyph>
<glyph name="ysmall" format="2">
	<unicode hex="028F"/>
	<advance width="385"/>
	<outline>
		<contour>
			<point x="171" y="0" type="line"/>
			<point x="215" y="0" type="line"/>
			<point x="215" y="173" type="line"/>
			<point x="383" y="480" type="line"/>
			<point x="334" y="480" type="line"/>
			<point x="254" y="325" type="line"/>
			<point x="235" y="287"/>
			<point x="216" y="253"/>
			<point x="196" y="216" type="curve"/>
			<point x="192" y="216" type="line"/>
			<point x="170" y="253"/>
			<point x="151" y="287"/>
			<point x="132" y="325" type="curve"/>
			<point x="51" y="480" type="line"/>
			<point x="3" y="480" type="line"/>
			<point x="171" y="173" type="line"/>
		</contour>
	</outline>
	<anchor name="aboveLC" x="195" y="504"/>
	<anchor name="belowLC" x="195" y="-22"/>
</glyph>
<glyph name="zcurl" format="2">
	<unicode hex="0291"/>
	<advance width="420"/>
	<outline>
		<contour>
			<point x="212" y="-80" type="line"/>
			<point x="243" y="82"/>
			<point x="298" y="152"/>
			<point x="348" y="152" type="curve" smooth="yes"/>
			<point x="382" y="152"/>
			<point x="394" y="134"/>
			<point x="394" y="109" type="curve" smooth="yes"/>
			<point x="394" y="74"/>
			<point x="360" y="38"/>
			<point x="299" y="38" type="curve" smooth="yes"/>
			<point x="227" y="38"/>
			<point x="156" y="38"/>
			<point x="84" y="39" type="curve"/>
			<point x="367" y="456" type="line"/>
			<point x="367" y="480" type="line"/>
			<point x="58" y="480" type="line"/>
			<point x="58" y="442" type="line"/>
			<point x="311" y="442" type="line"/>
			<point x="27" y="24" type="line"/>
			<point x="27" y="0" type="line"/>
			<point x="95" y="-1"/>
			<point x="221" y="-1"/>
			<point x="289" y="-1" type="curve" smooth="yes"/>
			<point x="384" y="-1"/>
			<point x="433" y="51"/>
			<point x="433" y="109" type="curve" smooth="yes"/>
			<point x="433" y="158"/>
			<point x="402" y="188"/>
			<point x="350" y="188" type="curve" smooth="yes"/>
			<point x="271" y="188"/>
			<point x="213" y="99"/>
			<point x="178" y="-73" type="curve"/>
		</contour>
	</outline>
	<anchor name="aboveLC" x="223" y="504"/>
	<anchor name="belowLC" x="208" y="-120"/>
</glyph>
<glyph name="glottalstop" format="2">
	<unicode hex="0294"/>
	<advance width="399"/>
	<outline>
		<contour>
			<point x="156" y="0" type="line"/>
			<point x="200" y="0" type="line"/>
			<point x="200" y="304" type="line"/>
			<point x="303" y="366"/>
			<point x="377" y="430"/>
			<point x="377" y="547" type="curve" smooth="yes"/>
			<point x="377" y="667"/>
			<point x="295" y="731"/>
			<point x="187" y="731" type="curve" smooth="yes"/>
			<point x="95" y="731"/>
			<point x="40" y="686"/>
			<point x="2" y="645" type="curve"/>
			<point x="28" y="615" type="line"/>
			<point x="62" y="654"/>
			<point x="109" y="692"/>
			<point x="187" y="692" type="curve" smooth="yes"/>
			<point x="280" y="692"/>
			<point x="331" y="634"/>
			<point x="331" y="548" type="curve" smooth="yes"/>
			<point x="331" y="452"/>
			<point x="274" y="392"/>
			<point x="156" y="329" type="curve"/>
		</contour>
	</outline>
	<anchor name="aboveUC" x="193" y="731"/>
	<anchor name="belowLC" x="173" y="-22"/>
</glyph>
<glyph name="clickbilabial" format="2">
	<unicode hex="0298"/>
	<advance width="507"/>
	<outline>
		<contour>
			<point x="253" y="-12" type="curve" smooth="yes"/>
			<point x="372" y="-12"/>
			<point x="441" y="99"/>
			<point x="441" y="363" type="curve" smooth="yes"/>
			<point x="441" y="598"/>
			<point x="372" y="731"/>
			<point x="253" y="731" type="curve" smooth="yes"/>
			<point x="135" y="731"/>
			<point x="66" y="598"/>
			<point x="66" y="363" type="curve" smooth="yes"/>
			<point x="66" y="99"/>
			<point x="135" y="-12"/>
		</contour>
		<contour>
			<point x="253" y="27" type="curve" smooth="yes"/>
			<point x="170" y="27"/>
			<point x="110" y="120"/>
			<point x="110" y="363" type="curve" smooth="yes"/>
			<point x="110" y="580"/>
			<point x="170" y="692"/>
			<point x="253" y="692" type="curve" smooth="yes"/>
			<point x="337" y="692"/>
			<point x="397" y="580"/>
			<point x="397" y="363" type="curve" smooth="yes"/>
			<point x="397" y="120"/>
			<point x="337" y="27"/>
		</contour>
		<contour>
			<point x="253" y="319" type="curve" smooth="yes"/>
			<point x="277" y="319"/>
			<point x="295" y="337"/>
			<point x="295" y="364" type="curve" smooth="yes"/>
			<point x="295" y="390"/>
			<point x="277" y="408"/>
			<point x="253" y="408" type="curve" smooth="yes"/>
			<point x="230" y="408"/>
			<point x="212" y="390"/>
			<point x="212" y="364" type="curve" smooth="yes"/>
			<point x="212" y="337"/>
			<point x="230" y="319"/>
		</contour>
	</outline>
	<anchor name="aboveUC" x="253" y="731"/>
	<anchor name="belowLC" x="253" y="-22"/>
</glyph>
<glyph name="glottalstopstrokereversed" format="2">
	<unicode hex="02A2"/>
	<advance width="409"/>
	<outline>
		<contour>
			<point x="74" y="147" type="line"/>
			<point x="363" y="147" type="line"/>
			<point x="363" y="185" type="line"/>
			<point x="153" y="185" type="line"/>
			<point x="74" y="181" type="line"/>
		</contour>
		<component base="glottalstopreversed"/>
	</outline>
	<anchor name="aboveUC" x="194" y="731"/>
	<anchor name="belowLC" x="214" y="-22"/>
</glyph>
<glyph name="dzcurl" format="2">
	<unicode hex="02A5"/>
	<advance width="836"/>
	<outline>
		<contour>
			<point x="241" y="-12" type="curve" smooth="yes"/>
			<point x="301" y="-12"/>
			<point x="349" y="24"/>
			<point x="387" y="62" type="curve"/>
			<point x="390" y="62" type="line"/>
			<point x="394" y="0" type="line"/>
			<point x="432" y="0" type="line"/>
			<point x="432" y="719" type="line"/>
			<point x="388" y="719" type="line"/>
			<point x="388" y="521" type="line"/>
			<point x="390" y="433" type="line"/>
			<point x="344" y="468"/>
			<point x="309" y="492"/>
			<point x="255" y="492" type="curve" smooth="yes"/>
			<point x="146" y="492"/>
			<point x="52" y="394"/>
			<point x="52" y="239" type="curve" smooth="yes"/>
			<point x="52" y="77"/>
			<point x="126" y="-12"/>
		</contour>
		<contour>
			<point x="247" y="27" type="curve" smooth="yes"/>
			<point x="152" y="27"/>
			<point x="99" y="112"/>
			<point x="99" y="239" type="curve" smooth="yes"/>
			<point x="99" y="360"/>
			<point x="167" y="453"/>
			<point x="258" y="453" type="curve" smooth="yes"/>
			<point x="302" y="453"/>
			<point x="339" y="434"/>
			<point x="388" y="391" type="curve"/>
			<point x="388" y="106" type="line"/>
			<point x="339" y="57"/>
			<point x="297" y="27"/>
		</contour>
		<contour>
			<point x="628" y="-80" type="line"/>
			<point x="658" y="80"/>
			<point x="714" y="152"/>
			<point x="764" y="152" type="curve" smooth="yes"/>
			<point x="797" y="152"/>
			<point x="810" y="132"/>
			<point x="810" y="106" type="curve" smooth="yes"/>
			<point x="810" y="72"/>
			<point x="776" y="38"/>
			<point x="715" y="38" type="curve" smooth="yes"/>
			<point x="656" y="38"/>
			<point x="597" y="38"/>
			<point x="536" y="39" type="curve"/>
			<point x="780" y="457" type="line"/>
			<point x="780" y="480" type="line"/>
			<point x="425" y="480" type="line"/>
			<point x="425" y="442" type="line"/>
			<point x="727" y="442" type="line"/>
			<point x="483" y="24" type="line"/>
			<point x="483" y="0" type="line"/>
			<point x="540" y="0"/>
			<point x="646" y="-1"/>
			<point x="704" y="-1" type="curve" smooth="yes"/>
			<point x="801" y="-1"/>
			<point x="849" y="48"/>
			<point x="849" y="106" type="curve" smooth="yes"/>
			<point x="849" y="156"/>
			<point x="818" y="188"/>
			<point x="766" y="188" type="curve" smooth="yes"/>
			<point x="687" y="188"/>
			<point x="628" y="99"/>
			<point x="590" y="-73" type="curve"/>
		</contour>
	</outline>
	<anchor name="aboveUC" x="411" y="731"/>
	<anchor name="belowLC" x="422" y="-112"/>
</glyph>
<glyph name="tesh" format="2">
	<unicode hex="02A7"/>
	<advance width="530"/>
	<outline>
		<contour>
			<point x="223" y="-8" type="curve" smooth="yes"/>
			<point x="246" y="-8"/>
			<point x="274" y="0"/>
			<point x="300" y="13" type="curve"/>
			<point x="286" y="45" type="line"/>
			<point x="264" y="34"/>
			<point x="245" y="30"/>
			<point x="228" y="30" type="curve" smooth="yes"/>
			<point x="162" y="30"/>
			<point x="148" y="72"/>
			<point x="148" y="133" type="curve" smooth="yes"/>
			<point x="148" y="442" type="line"/>
			<point x="417" y="442" type="line"/>
			<point x="417" y="480" type="line"/>
			<point x="148" y="480" type="line"/>
			<point x="148" y="639" type="line"/>
			<point x="110" y="639" type="line"/>
			<point x="104" y="480" type="line"/>
			<point x="28" y="476" type="line"/>
			<point x="28" y="442" type="line"/>
			<point x="103" y="442" type="line"/>
			<point x="103" y="136" type="line" smooth="yes"/>
			<point x="103" y="50"/>
			<point x="130" y="-8"/>
		</contour>
		<component base="esh" xOffset="301"/>
	</outline>
	<anchor name="aboveUC" x="287" y="731"/>
	<anchor name="belowLC" x="253" y="-218"/>
</glyph>
<glyph name="tccurl" format="2">
	<unicode hex="02A8"/>
	<advance width="717"/>
	<outline>
		<contour>
			<point x="223" y="-8" type="curve" smooth="yes"/>
			<point x="246" y="-8"/>
			<point x="274" y="0"/>
			<point x="300" y="13" type="curve"/>
			<point x="286" y="45" type="line"/>
			<point x="264" y="34"/>
			<point x="245" y="30"/>
			<point x="228" y="30" type="curve" smooth="yes"/>
			<point x="162" y="30"/>
			<point x="148" y="72"/>
			<point x="148" y="133" type="curve" smooth="yes"/>
			<point x="148" y="442" type="line"/>
			<point x="472" y="442" type="line"/>
			<point x="472" y="480" type="line"/>
			<point x="148" y="480" type="line"/>
			<point x="148" y="639" type="line"/>
			<point x="110" y="639" type="line"/>
			<point x="104" y="480" type="line"/>
			<point x="28" y="476" type="line"/>
			<point x="28" y="442" type="line"/>
			<point x="103" y="442" type="line"/>
			<point x="103" y="136" type="line" smooth="yes"/>
			<point x="103" y="50"/>
			<point x="130" y="-8"/>
		</contour>
		<component base="ccurl" xOffset="267"/>
	</outline>
	<anchor name="aboveUC" x="341" y="641"/>
	<anchor name="belowLC" x="380" y="-22"/>
</glyph>
<glyph name="rturned.sups" format="2">
	<unicode hex="02B4"/>
	<advance width="221"/>
	<outline>
		<contour>
			<point x="33" y="398" type="curve" smooth="yes"/>
			<point x="71" y="398"/>
			<point x="99" y="421"/>
			<point x="124" y="462" type="curve"/>
			<point x="127" y="462" type="line"/>
			<point x="134" y="406" type="line"/>
			<point x="163" y="406" type="line"/>
			<point x="163" y="723" type="line"/>
			<point x="124" y="723" type="line"/>
			<point x="124" y="511" type="line"/>
			<point x="99" y="455"/>
			<point x="67" y="435"/>
			<point x="36" y="435" type="curve" smooth="yes"/>
			<point x="26" y="435"/>
			<point x="14" y="437"/>
			<point x="7" y="439" type="curve"/>
			<point x="-2" y="404" type="line"/>
			<point x="6" y="400"/>
			<point x="20" y="398"/>
		</contour>
	</outline>
</glyph>
<glyph name="commaturnedmod" format="2">
	<unicode hex="02BB"/>
	<advance width="230"/>
	<outline>
		<contour>
			<point x="127" y="475" type="curve" smooth="yes"/>
			<point x="156" y="475"/>
			<point x="177" y="493"/>
			<point x="177" y="519" type="curve" smooth="yes"/>
			<point x="177" y="548"/>
			<point x="154" y="560"/>
			<point x="136" y="560" type="curve" smooth="yes"/>
			<point x="119" y="560"/>
			<point x="105" y="553"/>
			<point x="98" y="537" type="curve"/>
			<point x="105" y="537" type="line"/>
			<point x="92" y="549"/>
			<point x="87" y="563"/>
			<point x="87" y="584" type="curve" smooth="yes"/>
			<point x="87" y="629"/>
			<point x="103" y="669"/>
			<point x="171" y="707" type="curve"/>
			<point x="154" y="733" type="line"/>
			<point x="75" y="697"/>
			<point x="47" y="637"/>
			<point x="47" y="572" type="curve" smooth="yes"/>
			<point x="47" y="508"/>
			<point x="88" y="475"/>
		</contour>
	</outline>
</glyph>
<glyph name="commareversedmod" format="2">
	<unicode hex="02BD"/>
	<advance width="230"/>
	<outline>
		<contour>
			<point x="154" y="474" type="curve"/>
			<point x="171" y="500" type="line"/>
			<point x="105" y="538"/>
			<point x="87" y="576"/>
			<point x="87" y="619" type="curve" smooth="yes"/>
			<point x="87" y="641"/>
			<point x="92" y="658"/>
			<point x="105" y="669" type="curve"/>
			<point x="98" y="669" type="line"/>
			<point x="105" y="654"/>
			<point x="119" y="647"/>
			<point x="136" y="647" type="curve" smooth="yes"/>
			<point x="154" y="647"/>
			<point x="177" y="659"/>
			<point x="177" y="688" type="curve" smooth="yes"/>
			<point x="177" y="713"/>
			<point x="156" y="731"/>
			<point x="127" y="731" type="curve" smooth="yes"/>
			<point x="88" y="731"/>
			<point x="47" y="699"/>
			<point x="47" y="627" type="curve" smooth="yes"/>
			<point x="47" y="565"/>
			<point x="75" y="510"/>
		</contour>
	</outline>
</glyph>
<glyph name="glottalstopmod" format="2">
	<unicode hex="02C0"/>
	<advance width="288"/>
	<outline>
		<contour>
			<point x="108" y="406" type="line"/>
			<point x="145" y="406" type="line"/>
			<point x="145" y="488" type="line"/>
			<point x="212" y="517"/>
			<point x="260" y="556"/>
			<point x="260" y="618" type="curve" smooth="yes"/>
			<point x="260" y="693"/>
			<point x="203" y="731"/>
			<point x="130" y="731" type="curve" smooth="yes"/>
			<point x="71" y="731"/>
			<point x="31" y="702"/>
			<point x="7" y="673" type="curve"/>
			<point x="30" y="652" type="line"/>
			<point x="55" y="679"/>
			<point x="83" y="698"/>
			<point x="129" y="698" type="curve" smooth="yes"/>
			<point x="184" y="698"/>
			<point x="221" y="669"/>
			<point x="221" y="620" type="curve" smooth="yes"/>
			<point x="221" y="569"/>
			<point x="189" y="538"/>
			<point x="108" y="507" type="curve"/>
		</contour>
	</outline>
</glyph>
<glyph name="glottalstopreversedmod" format="2">
	<unicode hex="02C1"/>
	<advance width="288"/>
	<outline>
		<contour>
			<point x="143" y="406" type="line"/>
			<point x="180" y="406" type="line"/>
			<point x="180" y="507" type="line"/>
			<point x="99" y="538"/>
			<point x="67" y="569"/>
			<point x="67" y="620" type="curve" smooth="yes"/>
			<point x="67" y="669"/>
			<point x="104" y="698"/>
			<point x="159" y="698" type="curve" smooth="yes"/>
			<point x="205" y="698"/>
			<point x="233" y="679"/>
			<point x="258" y="652" type="curve"/>
			<point x="281" y="673" type="line"/>
			<point x="257" y="702"/>
			<point x="217" y="731"/>
			<point x="158" y="731" type="curve" smooth="yes"/>
			<point x="85" y="731"/>
			<point x="28" y="693"/>
			<point x="28" y="618" type="curve" smooth="yes"/>
			<point x="28" y="556"/>
			<point x="76" y="517"/>
			<point x="143" y="488" type="curve"/>
		</contour>
	</outline>
</glyph>
<glyph name="colontriangularmod" format="2">
	<unicode hex="02D0"/>
	<advance width="219"/>
	<outline>
		<contour>
			<point x="54" y="0" type="line"/>
			<point x="165" y="0" type="line"/>
			<point x="114" y="113" type="line"/>
			<point x="105" y="113" type="line"/>
		</contour>
		<contour>
			<point x="105" y="369" type="line"/>
			<point x="114" y="369" type="line"/>
			<point x="165" y="480" type="line"/>
			<point x="54" y="480" type="line"/>
		</contour>
	</outline>
</glyph>
<glyph name="uptackmod" format="2">
	<unicode hex="02D4"/>
	<advance width="362"/>
	<outline>
		<contour>
			<point x="33" y="108" type="line"/>
			<point x="329" y="108" type="line"/>
			<point x="329" y="143" type="line"/>
			<point x="199" y="143" type="line"/>
			<point x="199" y="427" type="line"/>
			<point x="162" y="427" type="line"/>
			<point x="162" y="143" type="line"/>
			<point x="33" y="143" type="line"/>
		</contour>
	</outline>
</glyph>
<glyph name="downtackmod" format="2">
	<unicode hex="02D5"/>
	<advance width="362"/>
	<outline>
		<contour>
			<point x="162" y="108" type="line"/>
			<point x="199" y="108" type="line"/>
			<point x="199" y="393" type="line"/>
			<point x="329" y="393" type="line"/>
			<point x="329" y="427" type="line"/>
			<point x="33" y="427" type="line"/>
			<point x="33" y="393" type="line"/>
			<point x="162" y="393" type="line"/>
		</contour>
	</outline>
</glyph>
<glyph name="glottalstopreversed.sups" format="2">
	<unicode hex="02E4"/>
	<advance width="279"/>
	<outline>
		<contour>
			<point x="136" y="406" type="line"/>
			<point x="173" y="406" type="line"/>
			<point x="173" y="622" type="line"/>
			<point x="93" y="663"/>
			<point x="56" y="702"/>
			<point x="56" y="763" type="curve" smooth="yes"/>
			<point x="56" y="817"/>
			<point x="92" y="853"/>
			<point x="152" y="853" type="curve" smooth="yes"/>
			<point x="198" y="853"/>
			<point x="229" y="834"/>
			<point x="253" y="809" type="curve"/>
			<point x="273" y="830" type="line"/>
			<point x="250" y="858"/>
			<point x="209" y="886"/>
			<point x="151" y="886" type="curve" smooth="yes"/>
			<point x="74" y="886"/>
			<point x="17" y="841"/>
			<point x="17" y="762" type="curve" smooth="yes"/>
			<point x="17" y="687"/>
			<point x="68" y="645"/>
			<point x="136" y="602" type="curve"/>
		</contour>
	</outline>
</glyph>
<glyph name="hungarumlautcmb" format="2">
	<unicode hex="030B"/>
	<outline>
		<contour>
			<point x="-96" y="570" type="line"/>
			<point x="-64" y="570" type="line"/>
			<point x="42" y="719" type="line"/>
			<point x="39" y="724" type="line"/>
			<point x="-3" y="724" type="line"/>
		</contour>
		<contour>
			<point x="57" y="570" type="line"/>
			<point x="89" y="570" type="line"/>
			<point x="195" y="719" type="line"/>
			<point x="192" y="724" type="line"/>
			<point x="150" y="724" type="line"/>
		</contour>
	</outline>
	<anchor name="_aboveLC" x="0" y="504"/>
</glyph>
<glyph name="caroncmb" format="2">
	<unicode hex="030C"/>
	<outline>
		<contour>
			<point x="-17" y="570" type="line"/>
			<point x="17" y="570" type="line"/>
			<point x="156" y="724" type="line"/>
			<point x="116" y="724" type="line"/>
			<point x="2" y="612" type="line"/>
			<point x="-2" y="612" type="line"/>
			<point x="-116" y="724" type="line"/>
			<point x="-156" y="724" type="line"/>
		</contour>
	</outline>
	<anchor name="_aboveLC" x="0" y="504"/>
	<anchor name="aboveLC" x="0" y="706"/>
</glyph>
<glyph name="commaabovecmb" format="2">
	<unicode hex="0313"/>
	<outline>
		<contour>
			<point x="-24" y="557" type="line"/>
			<point x="30" y="584"/>
			<point x="51" y="626"/>
			<point x="51" y="670" type="curve" smooth="yes"/>
			<point x="51" y="707"/>
			<point x="29" y="733"/>
			<point x="-4" y="733" type="curve" smooth="yes"/>
			<point x="-28" y="733"/>
			<point x="-47" y="720"/>
			<point x="-47" y="695" type="curve" smooth="yes"/>
			<point x="-47" y="673"/>
			<point x="-28" y="661"/>
			<point x="-12" y="661" type="curve" smooth="yes"/>
			<point x="0" y="661"/>
			<point x="10" y="665"/>
			<point x="16" y="671" type="curve"/>
			<point x="16" y="630"/>
			<point x="2" y="604"/>
			<point x="-40" y="583" type="curve"/>
		</contour>
	</outline>
	<anchor name="_aboveLC" x="0" y="504"/>
</glyph>
<glyph name="leftangleabovecmb" format="2">
	<unicode hex="031A"/>
	<outline>
		<contour>
			<point x="43" y="572" type="line"/>
			<point x="77" y="572" type="line"/>
			<point x="77" y="708" type="line"/>
			<point x="-69" y="708" type="line"/>
			<point x="-69" y="675" type="line"/>
			<point x="43" y="675" type="line"/>
		</contour>
	</outline>
	<anchor name="_aboverightLC" x="0" y="504"/>
</glyph>
<glyph name="ringhalfleftbelowcmb" format="2">
	<unicode hex="031C"/>
	<outline>
		<contour>
			<point x="60" y="-257" type="curve"/>
			<point x="60" y="-231" type="line"/>
			<point x="2" y="-232"/>
			<point x="-25" y="-204"/>
			<point x="-25" y="-162" type="curve" smooth="yes"/>
			<point x="-25" y="-120"/>
			<point x="2" y="-93"/>
			<point x="60" y="-93" type="curve"/>
			<point x="60" y="-67" type="line"/>
			<point x="-19" y="-65"/>
			<point x="-61" y="-101"/>
			<point x="-61" y="-162" type="curve" smooth="yes"/>
			<point x="-61" y="-223"/>
			<point x="-19" y="-260"/>
		</contour>
	</outline>
	<anchor name="_belowLC" x="0" y="-22"/>
</glyph>
<glyph name="downtackbelowcmb" format="2">
	<unicode hex="031E"/>
	<outline>
		<contour>
			<point x="-17" y="-244" type="line"/>
			<point x="17" y="-244" type="line"/>
			<point x="17" y="-138" type="line"/>
			<point x="89" y="-138" type="line"/>
			<point x="89" y="-105" type="line"/>
			<point x="-89" y="-105" type="line"/>
			<point x="-89" y="-138" type="line"/>
			<point x="-17" y="-138" type="line"/>
		</contour>
	</outline>
	<anchor name="_belowLC" x="0" y="-22"/>
</glyph>
<glyph name="slashshortcmb" format="2">
	<unicode hex="0337"/>
	<outline>
		<contour>
			<point x="-463" y="-22" type="line"/>
			<point x="-46" y="480" type="line"/>
			<point x="-72" y="501" type="line"/>
			<point x="-489" y="-1" type="line"/>
		</contour>
	</outline>
</glyph>
<glyph name="slashlongcmb" format="2">
	<unicode hex="0338"/>
	<outline>
		<contour>
			<point x="-568" y="-23" type="line"/>
			<point x="-57" y="660" type="line"/>
			<point x="-86" y="682" type="line"/>
			<point x="-597" y="-1" type="line"/>
		</contour>
	</outline>
</glyph>
<glyph name="squarebelowcmb" format="2">
	<unicode hex="033B"/>
	<outline>
		<contour>
			<point x="-117" y="-236" type="line"/>
			<point x="117" y="-236" type="line"/>
			<point x="117" y="-84" type="line"/>
			<point x="-117" y="-84" type="line"/>
		</contour>
		<contour>
			<point x="-86" y="-204" type="line"/>
			<point x="-86" y="-115" type="line"/>
			<point x="86" y="-115" type="line"/>
			<point x="86" y="-204" type="line"/>
		</contour>
	</outline>
	<anchor name="_belowLC" x="0" y="-22"/>
</glyph>
<glyph name="xabovecmb" format="2">
	<unicode hex="033D"/>
	<outline>
		<contour>
			<point x="-51" y="564" type="line"/>
			<point x="0" y="615" type="line"/>
			<point x="51" y="564" type="line"/>
			<point x="75" y="587" type="line"/>
			<point x="24" y="638" type="line"/>
			<point x="75" y="689" type="line"/>
			<point x="51" y="713" type="line"/>
			<point x="0" y="662" type="line"/>
			<point x="-51" y="713" type="line"/>
			<point x="-75" y="689" type="line"/>
			<point x="-24" y="638" type="line"/>
			<point x="-75" y="587" type="line"/>
		</contour>
	</outline>
	<anchor name="_aboveLC" x="0" y="504"/>
</glyph>
<glyph name="dialytikatonoscmb" format="2">
	<unicode hex="0344"/>
	<outline>
		<contour>
			<point x="-103" y="600" type="curve" smooth="yes"/>
			<point x="-82" y="600"/>
			<point x="-68" y="614"/>
			<point x="-68" y="634" type="curve" smooth="yes"/>
			<point x="-68" y="655"/>
			<point x="-82" y="669"/>
			<point x="-103" y="669" type="curve" smooth="yes"/>
			<point x="-123" y="669"/>
			<point x="-137" y="655"/>
			<point x="-137" y="634" type="curve" smooth="yes"/>
			<point x="-137" y="614"/>
			<point x="-123" y="600"/>
		</contour>
		<contour>
			<point x="103" y="600" type="curve" smooth="yes"/>
			<point x="123" y="600"/>
			<point x="137" y="614"/>
			<point x="137" y="634" type="curve" smooth="yes"/>
			<point x="137" y="655"/>
			<point x="123" y="669"/>
			<point x="103" y="669" type="curve" smooth="yes"/>
			<point x="82" y="669"/>
			<point x="68" y="655"/>
			<point x="68" y="634" type="curve" smooth="yes"/>
			<point x="68" y="614"/>
			<point x="82" y="600"/>
		</contour>
		<contour>
			<point x="-33" y="561" type="line"/>
			<point x="-4" y="561" type="line"/>
			<point x="55" y="731" type="line"/>
			<point x="52" y="736" type="line"/>
			<point x="10" y="736" type="line"/>
		</contour>
	</outline>
	<anchor name="_aboveLC" x="0" y="504"/>
</glyph>
<glyph name="breveinverteddoublecmb" format="2">
	<unicode hex="0361"/>
	<outline>
		<contour>
			<point x="-437" y="559" type="line"/>
			<point x="-311" y="638"/>
			<point x="-156" y="678"/>
			<point x="0" y="678" type="curve" smooth="yes"/>
			<point x="156" y="678"/>
			<point x="311" y="638"/>
			<point x="437" y="559" type="curve"/>
			<point x="453" y="585" type="line"/>
			<point x="320" y="667"/>
			<point x="174" y="714"/>
			<point x="0" y="714" type="curve" smooth="yes"/>
			<point x="-174" y="714"/>
			<point x="-320" y="667"/>
			<point x="-453" y="585" type="curve"/>
		</contour>
	</outline>
</glyph>
<glyph name="Xi" format="2">
	<unicode hex="039E"/>
	<advance width="510"/>
	<outline>
		<contour>
			<point x="47" y="0" type="line"/>
			<point x="464" y="0" type="line"/>
			<point x="464" y="40" type="line"/>
			<point x="47" y="40" type="line"/>
		</contour>
		<contour>
			<point x="125" y="330" type="line"/>
			<point x="385" y="330" type="line"/>
			<point x="385" y="370" type="line"/>
			<point x="125" y="370" type="line"/>
		</contour>
		<contour>
			<point x="57" y="619" type="line"/>
			<point x="454" y="619" type="line"/>
			<point x="454" y="659" type="line"/>
			<point x="57" y="659" type="line"/>
		</contour>
	</outline>
</glyph>
<glyph name="iota" format="2">
	<unicode hex="03B9"/>
	<advance width="239"/>
	<outline>
		<contour>
			<point x="157" y="-8" type="curve" smooth="yes"/>
			<point x="175" y="-8"/>
			<point x="188" y="-4"/>
			<point x="199" y="1" type="curve"/>
			<point x="192" y="37" type="line"/>
			<point x="180" y="33"/>
			<point x="172" y="31"/>
			<point x="163" y="31" type="curve" smooth="yes"/>
			<point x="146" y="31"/>
			<point x="134" y="42"/>
			<point x="134" y="67" type="curve" smooth="yes"/>
			<point x="134" y="202"/>
			<point x="134" y="340"/>
			<point x="137" y="480" type="curve"/>
			<point x="92" y="480" type="line"/>
			<point x="92" y="73" type="line" smooth="yes"/>
			<point x="92" y="17"/>
			<point x="114" y="-8"/>
		</contour>
	</outline>
	<anchor name="aboveLC" x="113" y="504"/>
	<anchor name="belowLC" x="144" y="-22"/>
</glyph>
<glyph name="kappa" format="2">
	<unicode hex="03BA"/>
	<advance width="463"/>
	<outline>
		<contour>
			<point x="92" y="0" type="line"/>
			<point x="134" y="0" type="line"/>
			<point x="134" y="23" type="line" smooth="yes"/>
			<point x="134" y="79"/>
			<point x="142" y="133"/>
			<point x="168" y="172" type="curve" smooth="yes"/>
			<point x="259" y="319"/>
			<point x="359" y="417"/>
			<point x="441" y="449" type="curve"/>
			<point x="436" y="492" type="line"/>
			<point x="339" y="460"/>
			<point x="219" y="329"/>
			<point x="140" y="185" type="curve"/>
			<point x="136" y="185" type="line"/>
			<point x="136" y="372" type="line" smooth="yes"/>
			<point x="136" y="413"/>
			<point x="134" y="457"/>
			<point x="128" y="480" type="curve"/>
			<point x="84" y="480" type="line"/>
			<point x="92" y="442"/>
			<point x="92" y="396"/>
			<point x="92" y="358" type="curve" smooth="yes"/>
		</contour>
		<contour>
			<point x="418" y="-7" type="curve"/>
			<point x="466" y="0" type="line"/>
			<point x="387" y="85"/>
			<point x="307" y="207"/>
			<point x="259" y="303" type="curve"/>
			<point x="228" y="276" type="line"/>
			<point x="276" y="184"/>
			<point x="355" y="63"/>
		</contour>
	</outline>
	<anchor name="aboveLC" x="263" y="504"/>
	<anchor name="belowLC" x="273" y="-22"/>
</glyph>
<glyph name="xi" format="2">
	<unicode hex="03BE"/>
	<advance width="408"/>
	<outline>
		<contour>
			<point x="352" y="-183" type="line"/>
			<point x="390" y="-133"/>
			<point x="406" y="-93"/>
			<point x="406" y="-66" type="curve" smooth="yes"/>
			<point x="406" y="-6"/>
			<point x="361" y="12"/>
			<point x="271" y="29" type="curve" smooth="yes"/>
			<point x="181" y="45"/>
			<point x="99" y="77"/>
			<point x="99" y="188" type="curve" smooth="yes"/>
			<point x="99" y="303"/>
			<point x="199" y="365"/>
			<point x="291" y="365" type="curve" smooth="yes"/>
			<point x="315" y="365"/>
			<point x="331" y="365"/>
			<point x="354" y="361" type="curve"/>
			<point x="354" y="406" type="line"/>
			<point x="329" y="402"/>
			<point x="319" y="402"/>
			<point x="295" y="402" type="curve" smooth="yes"/>
			<point x="232" y="402"/>
			<point x="148" y="457"/>
			<point x="148" y="542" type="curve" smooth="yes"/>
			<point x="148" y="631"/>
			<point x="218" y="681"/>
			<point x="288" y="681" type="curve" smooth="yes"/>
			<point x="395" y="681" type="line"/>
			<point x="395" y="719" type="line"/>
			<point x="35" y="719" type="line"/>
			<point x="35" y="681" type="line"/>
			<point x="99" y="683"/>
			<point x="128" y="683"/>
			<point x="189" y="684" type="curve"/>
			<point x="136" y="658"/>
			<point x="102" y="610"/>
			<point x="102" y="542" type="curve" smooth="yes"/>
			<point x="102" y="467"/>
			<point x="150" y="417"/>
			<point x="210" y="391" type="curve"/>
			<point x="210" y="387" type="line"/>
			<point x="125" y="365"/>
			<point x="53" y="288"/>
			<point x="53" y="186" type="curve" smooth="yes"/>
			<point x="53" y="56"/>
			<point x="141" y="11"/>
			<point x="244" y="-8" type="curve" smooth="yes"/>
			<point x="341" y="-26"/>
			<point x="364" y="-41"/>
			<point x="364" y="-73" type="curve" smooth="yes"/>
			<point x="364" y="-100"/>
			<point x="353" y="-115"/>
			<point x="315" y="-162" type="curve"/>
		</contour>
	</outline>
	<anchor name="aboveUC" x="240" y="731"/>
	<anchor name="belowLC" x="220" y="-182"/>
</glyph>
<glyph name="omega" format="2">
	<unicode hex="03C9"/>
	<advance width="674"/>
	<outline>
		<contour>
			<point x="201" y="-12" type="curve" smooth="yes"/>
			<point x="264" y="-12"/>
			<point x="319" y="31"/>
			<point x="335" y="122" type="curve"/>
			<point x="339" y="122" type="line"/>
			<point x="353" y="31"/>
			<point x="410" y="-12"/>
			<point x="472" y="-12" type="curve" smooth="yes"/>
			<point x="560" y="-12"/>
			<point x="616" y="66"/>
			<point x="616" y="216" type="curve" smooth="yes"/>
			<point x="616" y="318"/>
			<point x="583" y="411"/>
			<point x="526" y="492" type="curve"/>
			<point x="487" y="472" type="line"/>
			<point x="546" y="389"/>
			<point x="570" y="308"/>
			<point x="570" y="216" type="curve" smooth="yes"/>
			<point x="570" y="91"/>
			<point x="531" y="27"/>
			<point x="466" y="27" type="curve" smooth="yes"/>
			<point x="418" y="27"/>
			<point x="357" y="69"/>
			<point x="357" y="213" type="curve" smooth="yes"/>
			<point x="357" y="245"/>
			<point x="358" y="282"/>
			<point x="362" y="325" type="curve"/>
			<point x="310" y="325" type="line"/>
			<point x="313" y="282"/>
			<point x="315" y="245"/>
			<point x="315" y="213" type="curve" smooth="yes"/>
			<point x="315" y="70"/>
			<point x="256" y="27"/>
			<point x="207" y="27" type="curve" smooth="yes"/>
			<point x="145" y="27"/>
			<point x="101" y="94"/>
			<point x="101" y="209" type="curve" smooth="yes"/>
			<point x="101" y="304"/>
			<point x="130" y="392"/>
			<point x="189" y="470" type="curve"/>
			<point x="151" y="492" type="line"/>
			<point x="97" y="415"/>
			<point x="58" y="312"/>
			<point x="58" y="214" type="curve" smooth="yes"/>
			<point x="58" y="67"/>
			<point x="120" y="-12"/>
		</contour>
	</outline>
	<anchor name="aboveLC" x="335" y="504"/>
	<anchor name="belowLC" x="335" y="-22"/>
</glyph>
<glyph name="digamma" format="2">
	<unicode hex="03DD"/>
	<advance width="402"/>
	<outline>
		<contour>
			<point x="92" y="-180" type="line"/>
			<point x="137" y="-180" type="line"/>
			<point x="136" y="-61"/>
			<point x="136" y="41"/>
			<point x="136" y="153" type="curve"/>
			<point x="356" y="153" type="line"/>
			<point x="356" y="191" type="line"/>
			<point x="135" y="191" type="line"/>
			<point x="133" y="442" type="line"/>
			<point x="376" y="442" type="line"/>
			<point x="376" y="480" type="line"/>
			<point x="92" y="480" type="line"/>
		</contour>
	</outline>
	<anchor name="aboveLC" x="250" y="504"/>
	<anchor name="belowLC" x="236" y="-182"/>
</glyph>
<glyph name="sho" format="2">
	<unicode hex="03F8"/>
	<advance width="506"/>
	<outline>
		<contour>
			<point x="92" y="-180" type="line"/>
			<point x="137" y="-180" type="line"/>
			<point x="136" y="-86"/>
			<point x="136" y="-29"/>
			<point x="134" y="65" type="curve"/>
			<point x="184" y="7"/>
			<point x="235" y="-12"/>
			<point x="293" y="-12" type="curve" smooth="yes"/>
			<point x="398" y="-12"/>
			<point x="490" y="84"/>
			<point x="490" y="247" type="curve" smooth="yes"/>
			<point x="490" y="396"/>
			<point x="430" y="492"/>
			<point x="311" y="492" type="curve" smooth="yes"/>
			<point x="233" y="492"/>
			<point x="184" y="451"/>
			<point x="136" y="372" type="curve"/>
			<point x="136" y="445"/>
			<point x="136" y="550"/>
			<point x="136" y="639" type="curve"/>
			<point x="92" y="639" type="line"/>
		</contour>
		<contour>
			<point x="290" y="27" type="curve" smooth="yes"/>
			<point x="241" y="27"/>
			<point x="190" y="40"/>
			<point x="135" y="108" type="curve"/>
			<point x="135" y="245" type="line" smooth="yes"/>
			<point x="135" y="385"/>
			<point x="234" y="453"/>
			<point x="302" y="453" type="curve" smooth="yes"/>
			<point x="403" y="453"/>
			<point x="444" y="365"/>
			<point x="444" y="247" type="curve" smooth="yes"/>
			<point x="444" y="117"/>
			<point x="375" y="27"/>
		</contour>
	</outline>
	<anchor name="aboveLC" x="304" y="635"/>
	<anchor name="belowLC" x="276" y="-182"/>
</glyph>
<glyph name="Lje" format="2">
	<unicode hex="0409"/>
	<advance width="892"/>
	<outline>
		<contour>
			<point x="50" y="-8" type="curve" smooth="yes"/>
			<point x="116" y="-8"/>
			<point x="145" y="30"/>
			<point x="189" y="217" type="curve" smooth="yes"/>
			<point x="221" y="352"/>
			<point x="246" y="483"/>
			<point x="263" y="619" type="curve"/>
			<point x="451" y="619" type="line"/>
			<point x="451" y="0" type="line"/>
			<point x="612" y="0" type="line" smooth="yes"/>
			<point x="760" y="0"/>
			<point x="844" y="65"/>
			<point x="844" y="195" type="curve" smooth="yes"/>
			<point x="844" y="319"/>
			<point x="751" y="372"/>
			<point x="609" y="372" type="curve" smooth="yes"/>
			<point x="497" y="372" type="line"/>
			<point x="497" y="659" type="line"/>
			<point x="227" y="659" type="line"/>
			<point x="206" y="503"/>
			<point x="181" y="369"/>
			<point x="146" y="222" type="curve" smooth="yes"/>
			<point x="107" y="60"/>
			<point x="83" y="38"/>
			<point x="46" y="38" type="curve" smooth="yes"/>
			<point x="36" y="38"/>
			<point x="28" y="40"/>
			<point x="18" y="44" type="curve"/>
			<point x="6" y="0" type="line"/>
			<point x="22" y="-6"/>
			<point x="37" y="-8"/>
		</contour>
		<contour>
			<point x="497" y="39" type="line"/>
			<point x="497" y="333" type="line"/>
			<point x="597" y="333" type="line" smooth="yes"/>
			<point x="730" y="333"/>
			<point x="798" y="291"/>
			<point x="798" y="193" type="curve" smooth="yes"/>
			<point x="798" y="86"/>
			<point x="731" y="39"/>
			<point x="600" y="39" type="curve" smooth="yes"/>
		</contour>
	</outline>
</glyph>
<glyph name="Zhe" format="2">
	<unicode hex="0416"/>
	<advance width="804"/>
	<outline>
		<contour>
			<point x="9" y="0" type="line"/>
			<point x="62" y="0" type="line"/>
			<point x="251" y="331" type="line"/>
			<point x="380" y="331" type="line"/>
			<point x="380" y="0" type="line"/>
			<point x="424" y="0" type="line"/>
			<point x="424" y="331" type="line"/>
			<point x="552" y="331" type="line"/>
			<point x="742" y="0" type="line"/>
			<point x="795" y="0" type="line"/>
			<point x="588" y="351" type="line"/>
			<point x="666" y="528" type="line" smooth="yes"/>
			<point x="704" y="612"/>
			<point x="731" y="621"/>
			<point x="758" y="621" type="curve" smooth="yes"/>
			<point x="765" y="621"/>
			<point x="773" y="619"/>
			<point x="778" y="617" type="curve"/>
			<point x="787" y="663" type="line"/>
			<point x="780" y="665"/>
			<point x="770" y="667"/>
			<point x="761" y="667" type="curve" smooth="yes"/>
			<point x="710" y="667"/>
			<point x="673" y="648"/>
			<point x="628" y="546" type="curve" smooth="yes"/>
			<point x="550" y="370" type="line"/>
			<point x="424" y="370" type="line"/>
			<point x="424" y="659" type="line"/>
			<point x="380" y="659" type="line"/>
			<point x="380" y="370" type="line"/>
			<point x="254" y="370" type="line"/>
			<point x="175" y="546" type="line" smooth="yes"/>
			<point x="131" y="648"/>
			<point x="94" y="667"/>
			<point x="43" y="667" type="curve" smooth="yes"/>
			<point x="34" y="667"/>
			<point x="24" y="665"/>
			<point x="17" y="663" type="curve"/>
			<point x="25" y="617" type="line"/>
			<point x="31" y="619"/>
			<point x="39" y="621"/>
			<point x="45" y="621" type="curve" smooth="yes"/>
			<point x="73" y="621"/>
			<point x="100" y="612"/>
			<point x="138" y="528" type="curve" smooth="yes"/>
			<point x="216" y="351" type="line"/>
		</contour>
	</outline>
	<anchor name="aboveUC" x="400" y="681"/>
</glyph>
<glyph name="El" format="2">
	<unicode hex="041B"/>
	<advance width="614"/>
	<outline>
		<contour>
			<point x="50" y="-8" type="curve" smooth="yes"/>
			<point x="116" y="-8"/>
			<point x="145" y="30"/>
			<point x="189" y="217" type="curve" smooth="yes"/>
			<point x="221" y="352"/>
			<point x="246" y="483"/>
			<point x="263" y="619" type="curve"/>
			<point x="471" y="619" type="line"/>
			<point x="471" y="0" type="line"/>
			<point x="517" y="0" type="line"/>
			<point x="517" y="659" type="line"/>
			<point x="227" y="659" type="line"/>
			<point x="206" y="503"/>
			<point x="181" y="369"/>
			<point x="146" y="222" type="curve" smooth="yes"/>
			<point x="107" y="60"/>
			<point x="83" y="38"/>
			<point x="46" y="38" type="curve" smooth="yes"/>
			<point x="36" y="38"/>
			<point x="28" y="40"/>
			<point x="18" y="44" type="curve"/>
			<point x="6" y="0" type="line"/>
			<point x="22" y="-6"/>
			<point x="37" y="-8"/>
		</contour>
	</outline>
</glyph>
<glyph name="Tse" format="2">
	<unicode hex="0426"/>
	<advance width="626"/>
	<outline>
		<contour>
			<point x="547" y="-188" type="line"/>
			<point x="586" y="-188" type="line"/>
			<point x="593" y="14" type="line"/>
			<point x="593" y="40" type="line"/>
			<point x="523" y="40" type="line"/>
			<point x="523" y="659" type="line"/>
			<point x="477" y="659" type="line"/>
			<point x="477" y="40" type="line"/>
			<point x="143" y="40" type="line"/>
			<point x="143" y="659" type="line"/>
			<point x="97" y="659" type="line"/>
			<point x="97" y="0" type="line"/>
			<point x="547" y="0" type="line"/>
		</contour>
	</outline>
	<anchor name="aboveUC" x="312" y="681"/>
</glyph>
<glyph name="Che" format="2">
	<unicode hex="0427"/>
	<advance width="579"/>
	<outline>
		<contour>
			<point x="436" y="0" type="line"/>
			<point x="482" y="0" type="line"/>
			<point x="482" y="659" type="line"/>
			<point x="436" y="659" type="line"/>
			<point x="436" y="334" type="line"/>
			<point x="403" y="327"/>
			<point x="358" y="321"/>
			<point x="299" y="321" type="curve" smooth="yes"/>
			<point x="184" y="321"/>
			<point x="116" y="358"/>
			<point x="116" y="479" type="curve" smooth="yes"/>
			<point x="116" y="659" type="line"/>
			<point x="71" y="659" type="line"/>
			<point x="71" y="479" type="line" smooth="yes"/>
			<point x="71" y="332"/>
			<point x="147" y="280"/>
			<point x="295" y="280" type="curve" smooth="yes"/>
			<point x="356" y="280"/>
			<point x="401" y="288"/>
			<point x="436" y="294" type="curve"/>
		</contour>
	</outline>
	<anchor name="aboveUC" x="283" y="681"/>
</glyph>
<glyph name="Ecyr" format="2">
	<unicode hex="042D"/>
	<advance width="564"/>
	<outline>
		<contour>
			<point x="245" y="-12" type="curve" smooth="yes"/>
			<point x="404" y="-12"/>
			<point x="510" y="113"/>
			<point x="510" y="331" type="curve" smooth="yes"/>
			<point x="510" y="549"/>
			<point x="408" y="671"/>
			<point x="244" y="671" type="curve" smooth="yes"/>
			<point x="165" y="671"/>
			<point x="95" y="633"/>
			<point x="57" y="592" type="curve"/>
			<point x="83" y="562" type="line"/>
			<point x="121" y="603"/>
			<point x="181" y="629"/>
			<point x="243" y="629" type="curve" smooth="yes"/>
			<point x="385" y="629"/>
			<point x="464" y="520"/>
			<point x="464" y="337" type="curve" smooth="yes"/>
			<point x="464" y="139"/>
			<point x="379" y="30"/>
			<point x="243" y="30" type="curve" smooth="yes"/>
			<point x="169" y="30"/>
			<point x="115" y="57"/>
			<point x="65" y="110" type="curve"/>
			<point x="38" y="82" type="line"/>
			<point x="91" y="23"/>
			<point x="154" y="-12"/>
		</contour>
		<contour>
			<point x="160" y="330" type="line"/>
			<point x="494" y="330" type="line"/>
			<point x="494" y="370" type="line"/>
			<point x="160" y="370" type="line"/>
		</contour>
	</outline>
	<anchor name="aboveUC" x="260" y="681"/>
</glyph>
<glyph name="icyr" format="2">
	<unicode hex="0438"/>
	<advance width="554"/>
	<outline>
		<contour>
			<point x="92" y="0" type="line"/>
			<point x="138" y="0" type="line"/>
			<point x="351" y="316" type="line" smooth="yes"/>
			<point x="371" y="346"/>
			<point x="400" y="390"/>
			<point x="419" y="422" type="curve"/>
			<point x="423" y="422" type="line"/>
			<point x="420" y="356"/>
			<point x="418" y="292"/>
			<point x="418" y="240" type="curve" smooth="yes"/>
			<point x="418" y="0" type="line"/>
			<point x="462" y="0" type="line"/>
			<point x="462" y="480" type="line"/>
			<point x="416" y="480" type="line"/>
			<point x="203" y="164" type="line" smooth="yes"/>
			<point x="183" y="134"/>
			<point x="154" y="90"/>
			<point x="135" y="58" type="curve"/>
			<point x="131" y="58" type="line"/>
			<point x="133" y="124"/>
			<point x="136" y="187"/>
			<point x="136" y="240" type="curve" smooth="yes"/>
			<point x="136" y="480" type="line"/>
			<point x="92" y="480" type="line"/>
		</contour>
	</outline>
	<anchor name="aboveLC" x="278" y="504"/>
</glyph>
<glyph name="tse" format="2">
	<unicode hex="0446"/>
	<advance width="536"/>
	<outline>
		<contour>
			<point x="463" y="-172" type="line"/>
			<point x="501" y="-172" type="line"/>
			<point x="507" y="13" type="line"/>
			<point x="507" y="39" type="line"/>
			<point x="441" y="39" type="line"/>
			<point x="441" y="480" type="line"/>
			<point x="397" y="480" type="line"/>
			<point x="397" y="39" type="line"/>
			<point x="136" y="39" type="line"/>
			<point x="136" y="480" type="line"/>
			<point x="92" y="480" type="line"/>
			<point x="92" y="0" type="line"/>
			<point x="463" y="0" type="line"/>
		</contour>
	</outline>
	<anchor name="aboveLC" x="273" y="504"/>
</glyph>
<glyph name="dje" format="2">
	<unicode hex="0452"/>
	<advance width="551"/>
	<outline>
		<contour>
			<point x="310" y="-229" type="curve" smooth="yes"/>
			<point x="426" y="-229"/>
			<point x="496" y="-126"/>
			<point x="496" y="166" type="curve" smooth="yes"/>
			<point x="496" y="375"/>
			<point x="432" y="458"/>
			<point x="319" y="458" type="curve" smooth="yes"/>
			<point x="254" y="458"/>
			<point x="204" y="421"/>
			<point x="154" y="371" type="curve"/>
			<point x="154" y="477" type="line"/>
			<point x="154" y="719" type="line"/>
			<point x="110" y="719" type="line"/>
			<point x="110" y="0" type="line"/>
			<point x="154" y="0" type="line"/>
			<point x="154" y="328" type="line"/>
			<point x="212" y="388"/>
			<point x="254" y="419"/>
			<point x="310" y="419" type="curve" smooth="yes"/>
			<point x="403" y="419"/>
			<point x="449" y="348"/>
			<point x="449" y="162" type="curve" smooth="yes"/>
			<point x="449" y="-99"/>
			<point x="390" y="-191"/>
			<point x="310" y="-191" type="curve" smooth="yes"/>
			<point x="295" y="-191"/>
			<point x="279" y="-185"/>
			<point x="269" y="-181" type="curve"/>
			<point x="259" y="-217" type="line"/>
			<point x="270" y="-223"/>
			<point x="292" y="-229"/>
		</contour>
		<contour>
			<point x="19" y="577" type="line"/>
			<point x="344" y="577" type="line"/>
			<point x="344" y="615" type="line"/>
			<point x="111" y="615" type="line"/>
			<point x="19" y="610" type="line"/>
		</contour>
	</outline>
</glyph>
<glyph name="lje" format="2">
	<unicode hex="0459"/>
	<advance width="708"/>
	<outline>
		<contour>
			<point x="48" y="-8" type="curve" smooth="yes"/>
			<point x="106" y="-8"/>
			<point x="142" y="39"/>
			<point x="155" y="141" type="curve" smooth="yes"/>
			<point x="167" y="241"/>
			<point x="179" y="341"/>
			<point x="190" y="442" type="curve"/>
			<point x="358" y="442" type="line"/>
			<point x="358" y="0" type="line"/>
			<point x="481" y="0" type="line" smooth="yes"/>
			<point x="594" y="0"/>
			<point x="663" y="49"/>
			<point x="663" y="146" type="curve" smooth="yes"/>
			<point x="663" y="241"/>
			<point x="594" y="289"/>
			<point x="481" y="289" type="curve" smooth="yes"/>
			<point x="402" y="289" type="line"/>
			<point x="402" y="480" type="line"/>
			<point x="154" y="480" type="line"/>
			<point x="142" y="370"/>
			<point x="128" y="261"/>
			<point x="115" y="153" type="curve" smooth="yes"/>
			<point x="105" y="73"/>
			<point x="81" y="37"/>
			<point x="44" y="37" type="curve" smooth="yes"/>
			<point x="35" y="37"/>
			<point x="29" y="39"/>
			<point x="23" y="41" type="curve"/>
			<point x="13" y="-2" type="line"/>
			<point x="24" y="-6"/>
			<point x="33" y="-8"/>
		</contour>
		<contour>
			<point x="402" y="38" type="line"/>
			<point x="402" y="251" type="line"/>
			<point x="471" y="251" type="line" smooth="yes"/>
			<point x="570" y="251"/>
			<point x="618" y="220"/>
			<point x="618" y="146" type="curve" smooth="yes"/>
			<point x="618" y="71"/>
			<point x="570" y="38"/>
			<point x="471" y="38" type="curve" smooth="yes"/>
		</contour>
	</outline>
</glyph>
<glyph name="dzhe" format="2">
	<unicode hex="045F"/>
	<advance width="546"/>
	<outline>
		<contour>
			<point x="255" y="-172" type="line"/>
			<point x="292" y="-172" type="line"/>
			<point x="297" y="0" type="line"/>
			<point x="454" y="0" type="line"/>
			<point x="454" y="480" type="line"/>
			<point x="410" y="480" type="line"/>
			<point x="410" y="39" type="line"/>
			<point x="136" y="39" type="line"/>
			<point x="136" y="480" type="line"/>
			<point x="92" y="480" type="line"/>
			<point x="92" y="0" type="line"/>
			<point x="253" y="0" type="line"/>
		</contour>
	</outline>
</glyph>
<glyph name="Izhitsa" format="2">
	<unicode hex="0474"/>
	<advance width="502"/>
	<outline>
		<contour>
			<point x="218" y="0" type="line"/>
			<point x="272" y="0" type="line"/>
			<point x="438" y="545" type="line" smooth="yes"/>
			<point x="455" y="600"/>
			<point x="469" y="624"/>
			<point x="498" y="624" type="curve" smooth="yes"/>
			<point x="508" y="624"/>
			<point x="514" y="622"/>
			<point x="521" y="618" type="curve"/>
			<point x="533" y="663" type="line"/>
			<point x="520" y="669"/>
			<point x="510" y="671"/>
			<point x="498" y="671" type="curve" smooth="yes"/>
			<point x="444" y="671"/>
			<point x="419" y="635"/>
			<point x="394" y="552" type="curve" smooth="yes"/>
			<point x="310" y="274" type="line"/>
			<point x="285" y="193"/>
			<point x="270" y="133"/>
			<point x="245" y="53" type="curve"/>
			<point x="241" y="53" type="line"/>
			<point x="214" y="133"/>
			<point x="196" y="193"/>
			<point x="171" y="274" type="curve" smooth="yes"/>
			<point x="53" y="659" type="line"/>
			<point x="4" y="659" type="line"/>
		</contour>
	</outline>
	<anchor name="aboveUC" x="247" y="681"/>
</glyph>
<glyph name="izhitsa" format="2">
	<unicode hex="0475"/>
	<advance width="444"/>
	<outline>
		<contour>
			<point x="192" y="0" type="line"/>
			<point x="249" y="0" type="line"/>
			<point x="370" y="367" type="line" smooth="yes"/>
			<point x="389" y="422"/>
			<point x="403" y="447"/>
			<point x="431" y="447" type="curve" smooth="yes"/>
			<point x="442" y="447"/>
			<point x="448" y="444"/>
			<point x="454" y="441" type="curve"/>
			<point x="466" y="484" type="line"/>
			<point x="453" y="490"/>
			<point x="443" y="492"/>
			<point x="431" y="492" type="curve" smooth="yes"/>
			<point x="378" y="492"/>
			<point x="355" y="455"/>
			<point x="329" y="373" type="curve" smooth="yes"/>
			<point x="265" y="179" type="line" smooth="yes"/>
			<point x="250" y="133"/>
			<point x="236" y="85"/>
			<point x="222" y="41" type="curve"/>
			<point x="218" y="41" type="line"/>
			<point x="203" y="85"/>
			<point x="183" y="133"/>
			<point x="168" y="179" type="curve" smooth="yes"/>
			<point x="60" y="480" type="line"/>
			<point x="12" y="480" type="line"/>
		</contour>
	</outline>
	<anchor name="aboveLC" x="237" y="504"/>
</glyph>
<glyph name="ghestroke" format="2">
	<unicode hex="0493"/>
	<advance width="407"/>
	<outline>
		<contour>
			<point x="32" y="230" type="line"/>
			<point x="286" y="230" type="line"/>
			<point x="286" y="268" type="line"/>
			<point x="100" y="268" type="line"/>
			<point x="32" y="264" type="line"/>
		</contour>
		<component base="ghe" xOffset="8"/>
	</outline>
</glyph>
<glyph name="Zhedescender" format="2">
	<unicode hex="0496"/>
	<advance width="851"/>
	<outline>
		<contour>
			<point x="772" y="-188" type="line"/>
			<point x="811" y="-188" type="line"/>
			<point x="817" y="14" type="line"/>
			<point x="817" y="40" type="line"/>
			<point x="747" y="40" type="line"/>
			<point x="747" y="0" type="line"/>
			<point x="772" y="0" type="line"/>
		</contour>
		<component base="Zhe"/>
	</outline>
</glyph>
<glyph name="Kadescender" format="2">
	<unicode hex="049A"/>
	<advance width="605"/>
	<outline>
		<contour>
			<point x="520" y="-188" type="line"/>
			<point x="559" y="-188" type="line"/>
			<point x="566" y="14" type="line"/>
			<point x="566" y="40" type="line"/>
			<point x="501" y="40" type="line"/>
			<point x="501" y="0" type="line"/>
			<point x="520" y="0" type="line"/>
		</contour>
		<component base="Ka"/>
	</outline>
</glyph>
<glyph name="Kabashkir" format="2">
	<unicode hex="04A0"/>
	<advance width="700"/>
	<outline>
		<contour>
			<point x="285" y="659" type="line"/>
			<point x="29" y="659" type="line"/>
			<point x="29" y="619" type="line"/>
			<point x="239" y="619" type="line"/>
		</contour>
		<component base="Ka" xOffset="142"/>
	</outline>
</glyph>
<glyph name="kabashkir" format="2">
	<unicode hex="04A1"/>
	<advance width="582"/>
	<outline>
		<contour>
			<point x="255" y="480" type="line"/>
			<point x="26" y="480" type="line"/>
			<point x="26" y="442" type="line"/>
			<point x="211" y="442" type="line"/>
		</contour>
		<component base="ka" xOffset="119"/>
	</outline>
</glyph>
<glyph name="Endescender" format="2">
	<unicode hex="04A2"/>
	<advance width="644"/>
	<outline>
		<contour>
			<point x="565" y="-188" type="line"/>
			<point x="604" y="-188" type="line"/>
			<point x="611" y="14" type="line"/>
			<point x="611" y="40" type="line"/>
			<point x="522" y="40" type="line"/>
			<point x="522" y="0" type="line"/>
			<point x="565" y="0" type="line"/>
		</contour>
		<component base="H"/>
	</outline>
</glyph>
<glyph name="Ustraightstroke" format="2">
	<unicode hex="04B0"/>
	<advance width="447"/>
	<outline>
		<contour>
			<point x="62" y="258" type="line"/>
			<point x="385" y="258" type="line"/>
			<point x="385" y="296" type="line"/>
			<point x="147" y="296" type="line"/>
			<point x="62" y="294" type="line"/>
		</contour>
		<component base="Y"/>
	</outline>
	<anchor name="aboveUC" x="223" y="681"/>
</glyph>
<glyph name="Kahook" format="2">
	<unicode hex="04C3"/>
	<advance width="568"/>
	<outline>
		<contour>
			<point x="328" y="-156" type="curve" smooth="yes"/>
			<point x="422" y="-156"/>
			<point x="527" y="-91"/>
			<point x="527" y="101" type="curve" smooth="yes"/>
			<point x="527" y="288"/>
			<point x="394" y="368"/>
			<point x="241" y="368" type="curve"/>
			<point x="317" y="351" type="line"/>
			<point x="413" y="528" type="line" smooth="yes"/>
			<point x="458" y="612"/>
			<point x="477" y="621"/>
			<point x="505" y="621" type="curve" smooth="yes"/>
			<point x="512" y="621"/>
			<point x="518" y="621"/>
			<point x="526" y="619" type="curve"/>
			<point x="534" y="663" type="line"/>
			<point x="527" y="665"/>
			<point x="517" y="667"/>
			<point x="508" y="667" type="curve" smooth="yes"/>
			<point x="458" y="667"/>
			<point x="431" y="651"/>
			<point x="375" y="546" type="curve" smooth="yes"/>
			<point x="281" y="370" type="line"/>
			<point x="143" y="370" type="line"/>
			<point x="143" y="659" type="line"/>
			<point x="97" y="659" type="line"/>
			<point x="97" y="0" type="line"/>
			<point x="143" y="0" type="line"/>
			<point x="143" y="331" type="line"/>
			<point x="222" y="331" type="line" smooth="yes"/>
			<point x="368" y="331"/>
			<point x="479" y="262"/>
			<point x="479" y="101" type="curve" smooth="yes"/>
			<point x="479" y="-62"/>
			<point x="393" y="-115"/>
			<point x="323" y="-115" type="curve" smooth="yes"/>
			<point x="307" y="-115"/>
			<point x="284" y="-111"/>
			<point x="274" y="-107" type="curve"/>
			<point x="264" y="-145" type="line"/>
			<point x="277" y="-151"/>
			<point x="305" y="-156"/>
		</contour>
	</outline>
</glyph>
<glyph name="Enhook" format="2">
	<unicode hex="04C7"/>
	<advance width="639"/>
	<outline>
		<contour>
			<point x="432" y="-156" type="curve" smooth="yes"/>
			<point x="507" y="-156"/>
			<point x="542" y="-109"/>
			<point x="542" y="-15" type="curve" smooth="yes"/>
			<point x="542" y="659" type="line"/>
			<point x="496" y="659" type="line"/>
			<point x="496" y="370" type="line"/>
			<point x="143" y="370" type="line"/>
			<point x="143" y="659" type="line"/>
			<point x="97" y="659" type="line"/>
			<point x="97" y="0" type="line"/>
			<point x="143" y="0" type="line"/>
			<point x="143" y="330" type="line"/>
			<point x="496" y="330" type="line"/>
			<point x="496" y="-9" type="line" smooth="yes"/>
			<point x="496" y="-70"/>
			<point x="485" y="-113"/>
			<point x="431" y="-113" type="curve" smooth="yes"/>
			<point x="412" y="-113"/>
			<point x="393" y="-108"/>
			<point x="381" y="-104" type="curve"/>
			<point x="371" y="-143" type="line"/>
			<point x="385" y="-150"/>
			<point x="410" y="-156"/>
		</contour>
	</outline>
</glyph>
<glyph name="ghedescender" format="2">
	<unicode hex="04F7"/>
	<advance width="399"/>
	<outline>
		<contour>
			<point x="159" y="-172" type="line"/>
			<point x="197" y="-172" type="line"/>
			<point x="202" y="13" type="line"/>
			<point x="202" y="39" type="line"/>
			<point x="116" y="39" type="line"/>
			<point x="116" y="0" type="line"/>
			<point x="159" y="0" type="line"/>
		</contour>
		<component base="ghe"/>
	</outline>
</glyph>
<glyph name="L.sups" format="2">
	<unicode hex="1D38"/>
	<advance width="310"/>
	<outline>
		<contour>
			<point x="61" y="406" type="line"/>
			<point x="298" y="406" type="line"/>
			<point x="298" y="438" type="line"/>
			<point x="100" y="438" type="line"/>
			<point x="100" y="838" type="line"/>
			<point x="61" y="838" type="line"/>
		</contour>
	</outline>
</glyph>
<glyph name="R.sups" format="2">
	<unicode hex="1D3F"/>
	<advance width="373"/>
	<outline>
		<contour>
			<point x="61" y="406" type="line"/>
			<point x="100" y="406" type="line"/>
			<point x="100" y="599" type="line"/>
			<point x="190" y="599" type="line" smooth="yes"/>
			<point x="278" y="599"/>
			<point x="337" y="641"/>
			<point x="337" y="722" type="curve" smooth="yes"/>
			<point x="337" y="806"/>
			<point x="278" y="838"/>
			<point x="190" y="838" type="curve" smooth="yes"/>
			<point x="61" y="838" type="line"/>
		</contour>
		<contour>
			<point x="100" y="631" type="line"/>
			<point x="100" y="806" type="line"/>
			<point x="182" y="806" type="line" smooth="yes"/>
			<point x="257" y="806"/>
			<point x="298" y="784"/>
			<point x="298" y="722" type="curve" smooth="yes"/>
			<point x="298" y="660"/>
			<point x="257" y="631"/>
			<point x="182" y="631" type="curve" smooth="yes"/>
		</contour>
		<contour>
			<point x="303" y="406" type="line"/>
			<point x="347" y="406" type="line"/>
			<point x="216" y="626" type="line"/>
			<point x="182" y="610" type="line"/>
		</contour>
	</outline>
</glyph>
<glyph name="d.sups" format="2">
	<unicode hex="1D48"/>
	<advance width="367"/>
	<outline>
		<contour>
			<point x="174" y="398" type="curve" smooth="yes"/>
			<point x="214" y="398"/>
			<point x="242" y="419"/>
			<point x="269" y="443" type="curve"/>
			<point x="273" y="443" type="line"/>
			<point x="279" y="406" type="line"/>
			<point x="309" y="406" type="line"/>
			<point x="309" y="878" type="line"/>
			<point x="272" y="878" type="line"/>
			<point x="272" y="751" type="line"/>
			<point x="274" y="694" type="line"/>
			<point x="243" y="717"/>
			<point x="214" y="731"/>
			<point x="178" y="731" type="curve" smooth="yes"/>
			<point x="103" y="731"/>
			<point x="37" y="669"/>
			<point x="37" y="571" type="curve" smooth="yes"/>
			<point x="37" y="460"/>
			<point x="89" y="398"/>
		</contour>
		<contour>
			<point x="180" y="431" type="curve" smooth="yes"/>
			<point x="108" y="431"/>
			<point x="76" y="485"/>
			<point x="76" y="571" type="curve" smooth="yes"/>
			<point x="76" y="644"/>
			<point x="123" y="699"/>
			<point x="179" y="699" type="curve" smooth="yes"/>
			<point x="208" y="699"/>
			<point x="240" y="687"/>
			<point x="272" y="659" type="curve"/>
			<point x="272" y="480" type="line"/>
			<point x="238" y="449"/>
			<point x="210" y="431"/>
		</contour>
	</outline>
</glyph>
<glyph name="k.sups" format="2">
	<unicode hex="1D4F"/>
	<advance width="317"/>
	<outline>
		<contour>
			<point x="58" y="406" type="line"/>
			<point x="95" y="406" type="line"/>
			<point x="95" y="488" type="line"/>
			<point x="163" y="568" type="line"/>
			<point x="268" y="406" type="line"/>
			<point x="312" y="406" type="line"/>
			<point x="187" y="596" type="line"/>
			<point x="295" y="723" type="line"/>
			<point x="250" y="723" type="line"/>
			<point x="99" y="543" type="line"/>
			<point x="95" y="543" type="line"/>
			<point x="95" y="878" type="line"/>
			<point x="58" y="878" type="line"/>
		</contour>
	</outline>
</glyph>
<glyph name="m.sups" format="2">
	<unicode hex="1D50"/>
	<advance width="548"/>
	<outline>
		<contour>
			<point x="58" y="406" type="line"/>
			<point x="95" y="406" type="line"/>
			<point x="95" y="642" type="line"/>
			<point x="133" y="681"/>
			<point x="159" y="698"/>
			<point x="187" y="698" type="curve" smooth="yes"/>
			<point x="242" y="698"/>
			<point x="257" y="660"/>
			<point x="257" y="603" type="curve" smooth="yes"/>
			<point x="257" y="406" type="line"/>
			<point x="295" y="406" type="line"/>
			<point x="295" y="642" type="line"/>
			<point x="332" y="681"/>
			<point x="359" y="698"/>
			<point x="387" y="698" type="curve" smooth="yes"/>
			<point x="442" y="698"/>
			<point x="457" y="660"/>
			<point x="457" y="603" type="curve" smooth="yes"/>
			<point x="457" y="406" type="line"/>
			<point x="494" y="406" type="line"/>
			<point x="494" y="610" type="line" smooth="yes"/>
			<point x="494" y="681"/>
			<point x="467" y="731"/>
			<point x="397" y="731" type="curve" smooth="yes"/>
			<point x="355" y="731"/>
			<point x="317" y="702"/>
			<point x="286" y="668" type="curve"/>
			<point x="273" y="711"/>
			<point x="242" y="731"/>
			<point x="197" y="731" type="curve" smooth="yes"/>
			<point x="155" y="731"/>
			<point x="123" y="707"/>
			<point x="96" y="676" type="curve"/>
			<point x="92" y="676" type="line"/>
			<point x="87" y="723" type="line"/>
			<point x="58" y="723" type="line"/>
		</contour>
	</outline>
</glyph>
<glyph name="mmiddletilde" format="2">
	<unicode hex="1D6F"/>
	<advance width="900"/>
	<outline>
		<contour>
			<point x="808" y="153" type="curve" smooth="yes"/>
			<point x="887" y="153"/>
			<point x="909" y="216"/>
			<point x="913" y="276" type="curve"/>
			<point x="879" y="280" type="line"/>
			<point x="877" y="230"/>
			<point x="856" y="188"/>
			<point x="808" y="188" type="curve" smooth="yes"/>
			<point x="702" y="188"/>
			<point x="216" y="284"/>
			<point x="92" y="284" type="curve" smooth="yes"/>
			<point x="13" y="284"/>
			<point x="-10" y="222"/>
			<point x="-14" y="160" type="curve"/>
			<point x="20" y="156" type="line"/>
			<point x="22" y="208"/>
			<point x="44" y="248"/>
			<point x="93" y="248" type="curve" smooth="yes"/>
			<point x="197" y="248"/>
			<point x="684" y="153"/>
		</contour>
		<component base="m" xOffset="37"/>
	</outline>
	<anchor name="aboveLC" x="451" y="504"/>
	<anchor name="belowLC" x="450" y="-22"/>
</glyph>
<glyph name="nmiddletilde" format="2">
	<unicode hex="1D70"/>
	<advance width="619"/>
	<outline>
		<contour>
			<point x="528" y="153" type="curve" smooth="yes"/>
			<point x="606" y="153"/>
			<point x="629" y="216"/>
			<point x="633" y="276" type="curve"/>
			<point x="599" y="280" type="line"/>
			<point x="597" y="230"/>
			<point x="575" y="188"/>
			<point x="527" y="188" type="curve" smooth="yes"/>
			<point x="440" y="188"/>
			<point x="198" y="284"/>
			<point x="92" y="284" type="curve" smooth="yes"/>
			<point x="13" y="284"/>
			<point x="-10" y="222"/>
			<point x="-14" y="160" type="curve"/>
			<point x="20" y="156" type="line"/>
			<point x="22" y="208"/>
			<point x="44" y="248"/>
			<point x="93" y="248" type="curve" smooth="yes"/>
			<point x="179" y="248"/>
			<point x="421" y="153"/>
		</contour>
		<component base="n" xOffset="37"/>
	</outline>
	<anchor name="aboveLC" x="321" y="504"/>
	<anchor name="belowLC" x="309" y="-22"/>
</glyph>
<glyph name="c.sups" format="2">
	<unicode hex="1D9C"/>
	<advance width="302"/>
	<outline>
		<contour>
			<point x="183" y="398" type="curve" smooth="yes"/>
			<point x="231" y="398"/>
			<point x="260" y="416"/>
			<point x="284" y="436" type="curve"/>
			<point x="267" y="461" type="line"/>
			<point x="246" y="444"/>
			<point x="221" y="431"/>
			<point x="184" y="431" type="curve" smooth="yes"/>
			<point x="118" y="431"/>
			<point x="72" y="486"/>
			<point x="72" y="565" type="curve" smooth="yes"/>
			<point x="72" y="643"/>
			<point x="120" y="699"/>
			<point x="183" y="699" type="curve" smooth="yes"/>
			<point x="218" y="699"/>
			<point x="236" y="689"/>
			<point x="259" y="670" type="curve"/>
			<point x="278" y="696" type="line"/>
			<point x="257" y="713"/>
			<point x="228" y="731"/>
			<point x="183" y="731" type="curve" smooth="yes"/>
			<point x="104" y="731"/>
			<point x="33" y="671"/>
			<point x="33" y="565" type="curve" smooth="yes"/>
			<point x="33" y="458"/>
			<point x="96" y="398"/>
		</contour>
	</outline>
</glyph>
<glyph name="nsmall.sups" format="2">
	<unicode hex="1DB0"/>
	<advance width="361"/>
	<outline>
		<contour>
			<point x="58" y="406" type="line"/>
			<point x="94" y="406" type="line"/>
			<point x="94" y="555" type="line" smooth="yes"/>
			<point x="94" y="589"/>
			<point x="94" y="628"/>
			<point x="89" y="673" type="curve"/>
			<point x="93" y="673" type="line"/>
			<point x="107" y="651"/>
			<point x="122" y="626"/>
			<point x="136" y="604" type="curve" smooth="yes"/>
			<point x="260" y="406" type="line"/>
			<point x="303" y="406" type="line"/>
			<point x="303" y="723" type="line"/>
			<point x="267" y="723" type="line"/>
			<point x="267" y="574" type="line" smooth="yes"/>
			<point x="267" y="540"/>
			<point x="267" y="501"/>
			<point x="271" y="456" type="curve"/>
			<point x="267" y="456" type="line"/>
			<point x="252" y="480"/>
			<point x="238" y="504"/>
			<point x="225" y="525" type="curve" smooth="yes"/>
			<point x="100" y="723" type="line"/>
			<point x="58" y="723" type="line"/>
		</contour>
	</outline>
</glyph>
<glyph name="circumflexdoublecmb" format="2">
	<unicode hex="1DCD"/>
	<outline>
		<contour>
			<point x="-437" y="559" type="line"/>
			<point x="0" y="678" type="line"/>
			<point x="437" y="559" type="line"/>
			<point x="453" y="585" type="line"/>
			<point x="19" y="714" type="line"/>
			<point x="-19" y="714" type="line"/>
			<point x="-453" y="585" type="line"/>
		</contour>
	</outline>
</glyph>
<glyph name="deltalatin" format="2">
	<unicode hex="1E9F"/>
	<advance width="522"/>
	<outline>
		<contour>
			<point x="265" y="-12" type="curve" smooth="yes"/>
			<point x="392" y="-12"/>
			<point x="469" y="87"/>
			<point x="469" y="248" type="curve" smooth="yes"/>
			<point x="469" y="433"/>
			<point x="263" y="595"/>
			<point x="144" y="681" type="curve"/>
			<point x="448" y="681" type="line"/>
			<point x="448" y="719" type="line"/>
			<point x="81" y="719" type="line"/>
			<point x="81" y="680" type="line"/>
			<point x="227" y="578"/>
			<point x="425" y="416"/>
			<point x="425" y="246" type="curve" smooth="yes"/>
			<point x="425" y="115"/>
			<point x="372" y="27"/>
			<point x="265" y="27" type="curve" smooth="yes"/>
			<point x="173" y="27"/>
			<point x="104" y="104"/>
			<point x="104" y="226" type="curve" smooth="yes"/>
			<point x="104" y="338"/>
			<point x="173" y="440"/>
			<point x="343" y="449" type="curve"/>
			<point x="323" y="483" type="line"/>
			<point x="151" y="474"/>
			<point x="60" y="360"/>
			<point x="60" y="224" type="curve" smooth="yes"/>
			<point x="60" y="74"/>
			<point x="155" y="-12"/>
		</contour>
	</outline>
	<anchor name="aboveUC" x="281" y="731"/>
	<anchor name="belowLC" x="262" y="-22"/>
</glyph>
<glyph name="dagger" format="2">
	<unicode hex="2020"/>
	<advance width="420"/>
	<outline>
		<contour>
			<point x="189" y="-80" type="line"/>
			<point x="231" y="-80" type="line"/>
			<point x="229" y="512" type="line"/>
			<point x="361" y="509" type="line"/>
			<point x="361" y="551" type="line"/>
			<point x="229" y="548" type="line"/>
			<point x="231" y="712" type="line"/>
			<point x="189" y="712" type="line"/>
			<point x="192" y="548" type="line"/>
			<point x="60" y="551" type="line"/>
			<point x="60" y="509" type="line"/>
			<point x="192" y="512" type="line"/>
		</contour>
	</outline>
</glyph>
<glyph name="i.sups" format="2">
	<unicode hex="2071"/>
	<advance width="153"/>
	<outline>
		<contour>
			<point x="58" y="406" type="line"/>
			<point x="95" y="406" type="line"/>
			<point x="95" y="723" type="line"/>
			<point x="58" y="723" type="line"/>
		</contour>
		<contour>
			<point x="78" y="796" type="curve" smooth="yes"/>
			<point x="96" y="796"/>
			<point x="110" y="809"/>
			<point x="110" y="827" type="curve" smooth="yes"/>
			<point x="110" y="844"/>
			<point x="96" y="858"/>
			<point x="78" y="858" type="curve" smooth="yes"/>
			<point x="60" y="858"/>
			<point x="46" y="844"/>
			<point x="46" y="827" type="curve" smooth="yes"/>
			<point x="46" y="809"/>
			<point x="60" y="796"/>
		</contour>
	</outline>
</glyph>
<glyph name="franc" format="2">
	<unicode hex="20A3"/>
	<advance width="479"/>
	<outline>
		<contour>
			<point x="136" y="0" type="line"/>
			<point x="180" y="0" type="line"/>
			<point x="180" y="319" type="line"/>
			<point x="397" y="319" type="line"/>
			<point x="397" y="358" type="line"/>
			<point x="180" y="358" type="line"/>
			<point x="180" y="600" type="line"/>
			<point x="450" y="600" type="line"/>
			<point x="450" y="639" type="line"/>
			<point x="136" y="639" type="line"/>
		</contour>
		<contour>
			<point x="55" y="140" type="line"/>
			<point x="333" y="140" type="line"/>
			<point x="333" y="176" type="line"/>
			<point x="138" y="176" type="line"/>
			<point x="55" y="173" type="line"/>
		</contour>
	</outline>
</glyph>
<glyph name="dong" format="2">
	<unicode hex="20AB"/>
	<advance width="479"/>
	<outline>
		<contour>
			<point x="224" y="107" type="curve" smooth="yes"/>
			<point x="275" y="107"/>
			<point x="313" y="132"/>
			<point x="343" y="164" type="curve"/>
			<point x="346" y="164" type="line"/>
			<point x="351" y="117" type="line"/>
			<point x="384" y="117" type="line"/>
			<point x="384" y="651" type="line"/>
			<point x="343" y="651" type="line"/>
			<point x="343" y="516" type="line"/>
			<point x="347" y="411" type="line"/>
			<point x="312" y="442"/>
			<point x="283" y="462"/>
			<point x="232" y="462" type="curve" smooth="yes"/>
			<point x="146" y="462"/>
			<point x="69" y="395"/>
			<point x="69" y="289" type="curve" smooth="yes"/>
			<point x="69" y="171"/>
			<point x="130" y="107"/>
		</contour>
		<contour>
			<point x="230" y="144" type="curve" smooth="yes"/>
			<point x="154" y="144"/>
			<point x="113" y="201"/>
			<point x="113" y="291" type="curve" smooth="yes"/>
			<point x="113" y="364"/>
			<point x="166" y="425"/>
			<point x="234" y="425" type="curve" smooth="yes"/>
			<point x="277" y="425"/>
			<point x="304" y="410"/>
			<point x="343" y="374" type="curve"/>
			<point x="343" y="206" type="line"/>
			<point x="305" y="162"/>
			<point x="268" y="144"/>
		</contour>
		<contour>
			<point x="197" y="550" type="line"/>
			<point x="384" y="550" type="line"/>
			<point x="465" y="554" type="line"/>
			<point x="465" y="585" type="line"/>
			<point x="197" y="585" type="line"/>
		</contour>
		<contour>
			<point x="80" y="0" type="line"/>
			<point x="415" y="0" type="line"/>
			<point x="415" y="35" type="line"/>
			<point x="80" y="35" type="line"/>
		</contour>
	</outline>
</glyph>
<glyph name="tugrik" format="2">
	<unicode hex="20AE"/>
	<advance width="479"/>
	<outline>
		<contour>
			<point x="216" y="0" type="line"/>
			<point x="261" y="0" type="line"/>
			<point x="261" y="602" type="line"/>
			<point x="441" y="602" type="line"/>
			<point x="441" y="639" type="line"/>
			<point x="34" y="639" type="line"/>
			<point x="34" y="602" type="line"/>
			<point x="216" y="602" type="line"/>
		</contour>
		<contour>
			<point x="84" y="160" type="line"/>
			<point x="220" y="233" type="line"/>
			<point x="258" y="248" type="line"/>
			<point x="408" y="327" type="line"/>
			<point x="392" y="357" type="line"/>
			<point x="258" y="287" type="line"/>
			<point x="220" y="272" type="line"/>
			<point x="68" y="190" type="line"/>
		</contour>
		<contour>
			<point x="84" y="279" type="line"/>
			<point x="220" y="352" type="line"/>
			<point x="258" y="367" type="line"/>
			<point x="408" y="446" type="line"/>
			<point x="392" y="476" type="line"/>
			<point x="258" y="406" type="line"/>
			<point x="220" y="391" type="line"/>
			<point x="68" y="309" type="line"/>
		</contour>
	</outline>
</glyph>
<glyph name="cedi" format="2">
	<unicode hex="20B5"/>
	<advance width="479"/>
	<outline>
		<contour>
			<point x="294" y="-12" type="curve" smooth="yes"/>
			<point x="365" y="-12"/>
			<point x="415" y="22"/>
			<point x="453" y="82" type="curve"/>
			<point x="425" y="101" type="line"/>
			<point x="392" y="50"/>
			<point x="351" y="26"/>
			<point x="297" y="26" type="curve" smooth="yes"/>
			<point x="178" y="26"/>
			<point x="112" y="143"/>
			<point x="112" y="322" type="curve" smooth="yes"/>
			<point x="112" y="500"/>
			<point x="181" y="613"/>
			<point x="305" y="613" type="curve" smooth="yes"/>
			<point x="355" y="613"/>
			<point x="391" y="593"/>
			<point x="419" y="552" type="curve"/>
			<point x="446" y="573" type="line"/>
			<point x="418" y="620"/>
			<point x="367" y="651"/>
			<point x="305" y="651" type="curve" smooth="yes"/>
			<point x="158" y="651"/>
			<point x="65" y="524"/>
			<point x="65" y="321" type="curve" smooth="yes"/>
			<point x="65" y="118"/>
			<point x="154" y="-12"/>
		</contour>
		<contour>
			<point x="274" y="-110" type="line"/>
			<point x="310" y="-110" type="line"/>
			<point x="310" y="750" type="line"/>
			<point x="274" y="750" type="line"/>
		</contour>
	</outline>
</glyph>
<glyph name="liraturkish" format="2">
	<unicode hex="20BA"/>
	<advance width="479"/>
	<outline>
		<contour>
			<point x="130" y="-12" type="line"/>
			<point x="295" y="-15"/>
			<point x="445" y="57"/>
			<point x="445" y="218" type="curve" smooth="yes"/>
			<point x="445" y="239"/>
			<point x="443" y="253"/>
			<point x="437" y="279" type="curve"/>
			<point x="398" y="266" type="line"/>
			<point x="404" y="245"/>
			<point x="404" y="231"/>
			<point x="404" y="215" type="curve" smooth="yes"/>
			<point x="404" y="91"/>
			<point x="273" y="32"/>
			<point x="176" y="31" type="curve"/>
			<point x="176" y="639" type="line"/>
			<point x="130" y="639" type="line"/>
		</contour>
		<contour>
			<point x="37" y="228" type="line"/>
			<point x="136" y="280" type="line"/>
			<point x="172" y="294" type="line"/>
			<point x="362" y="395" type="line"/>
			<point x="346" y="424" type="line"/>
			<point x="172" y="332" type="line"/>
			<point x="136" y="318" type="line"/>
			<point x="21" y="257" type="line"/>
		</contour>
		<contour>
			<point x="37" y="347" type="line"/>
			<point x="136" y="399" type="line"/>
			<point x="172" y="413" type="line"/>
			<point x="362" y="514" type="line"/>
			<point x="346" y="543" type="line"/>
			<point x="172" y="451" type="line"/>
			<point x="136" y="437" type="line"/>
			<point x="21" y="376" type="line"/>
		</contour>
	</outline>
</glyph>
<glyph name="prescription" format="2">
	<unicode hex="211E"/>
	<advance width="668"/>
	<outline>
		<contour>
			<point x="97" y="0" type="line"/>
			<point x="143" y="0" type="line"/>
			<point x="143" y="303" type="line"/>
			<point x="286" y="303" type="line" smooth="yes"/>
			<point x="417" y="303"/>
			<point x="502" y="365"/>
			<point x="502" y="485" type="curve" smooth="yes"/>
			<point x="502" y="611"/>
			<point x="417" y="659"/>
			<point x="286" y="659" type="curve" smooth="yes"/>
			<point x="97" y="659" type="line"/>
		</contour>
		<contour>
			<point x="143" y="341" type="line"/>
			<point x="143" y="620" type="line"/>
			<point x="274" y="620" type="line" smooth="yes"/>
			<point x="390" y="620"/>
			<point x="455" y="584"/>
			<point x="455" y="485" type="curve" smooth="yes"/>
			<point x="455" y="388"/>
			<point x="390" y="341"/>
			<point x="274" y="341" type="curve" smooth="yes"/>
		</contour>
		<contour>
			<point x="288" y="-217" type="line"/>
			<point x="338" y="-217" type="line"/>
			<point x="423" y="-89" type="line" smooth="yes"/>
			<point x="440" y="-61"/>
			<point x="457" y="-33"/>
			<point x="474" y="-5" type="curve"/>
			<point x="478" y="-5" type="line"/>
			<point x="496" y="-33"/>
			<point x="514" y="-61"/>
			<point x="532" y="-89" type="curve" smooth="yes"/>
			<point x="617" y="-217" type="line"/>
			<point x="664" y="-217" type="line"/>
			<point x="507" y="27" type="line"/>
			<point x="651" y="257" type="line"/>
			<point x="601" y="257" type="line"/>
			<point x="530" y="138" type="line" smooth="yes"/>
			<point x="514" y="112"/>
			<point x="501" y="89"/>
			<point x="486" y="63" type="curve"/>
			<point x="482" y="63" type="line"/>
			<point x="466" y="89"/>
			<point x="454" y="111"/>
			<point x="436" y="138" type="curve" smooth="yes"/>
			<point x="321" y="321" type="line"/>
			<point x="272" y="321" type="line"/>
			<point x="453" y="31" type="line"/>
		</contour>
	</outline>
</glyph>
<glyph name="universal" format="2">
	<unicode hex="2200"/>
	<advance width="526"/>
	<outline>
		<contour>
			<point x="240" y="0" type="line"/>
			<point x="286" y="0" type="line"/>
			<point x="518" y="659" type="line"/>
			<point x="472" y="659" type="line"/>
			<point x="339" y="271" type="line" smooth="yes"/>
			<point x="312" y="193"/>
			<point x="289" y="124"/>
			<point x="266" y="43" type="curve"/>
			<point x="262" y="43" type="line"/>
			<point x="238" y="124"/>
			<point x="215" y="193"/>
			<point x="188" y="271" type="curve" smooth="yes"/>
			<point x="57" y="659" type="line"/>
			<point x="8" y="659" type="line"/>
		</contour>
		<contour>
			<point x="117" y="394" type="line"/>
			<point x="412" y="394" type="line"/>
			<point x="412" y="433" type="line"/>
			<point x="117" y="433" type="line"/>
		</contour>
	</outline>
</glyph>
<glyph name="partialdiff" format="2">
	<unicode hex="2202"/>
	<advance width="499"/>
	<outline>
		<contour>
			<point x="209" y="-12" type="curve" smooth="yes"/>
			<point x="361" y="-12"/>
			<point x="461" y="140"/>
			<point x="461" y="364" type="curve" smooth="yes"/>
			<point x="461" y="584"/>
			<point x="376" y="671"/>
			<point x="263" y="671" type="curve" smooth="yes"/>
			<point x="205" y="671"/>
			<point x="154" y="647"/>
			<point x="118" y="608" type="curve"/>
			<point x="141" y="579" type="line"/>
			<point x="173" y="612"/>
			<point x="216" y="632"/>
			<point x="259" y="632" type="curve" smooth="yes"/>
			<point x="349" y="632"/>
			<point x="416" y="563"/>
			<point x="416" y="363" type="curve" smooth="yes"/>
			<point x="416" y="174"/>
			<point x="342" y="27"/>
			<point x="213" y="27" type="curve" smooth="yes"/>
			<point x="141" y="27"/>
			<point x="80" y="88"/>
			<point x="80" y="180" type="curve" smooth="yes"/>
			<point x="80" y="275"/>
			<point x="131" y="360"/>
			<point x="254" y="360" type="curve" smooth="yes"/>
			<point x="304" y="360"/>
			<point x="359" y="337"/>
			<point x="414" y="273" type="curve"/>
			<point x="419" y="317" type="line"/>
			<point x="375" y="367"/>
			<point x="314" y="398"/>
			<point x="253" y="398" type="curve" smooth="yes"/>
			<point x="113" y="398"/>
			<point x="36" y="306"/>
			<point x="36" y="177" type="curve" smooth="yes"/>
			<point x="36" y="59"/>
			<point x="119" y="-12"/>
		</contour>
	</outline>
</glyph>
<glyph name="intersection" format="2">
	<unicode hex="2229"/>
	<advance width="479"/>
	<outline>
		<contour>
			<point x="48" y="110" type="line"/>
			<point x="90" y="110" type="line"/>
			<point x="90" y="348" type="line" smooth="yes"/>
			<point x="90" y="459"/>
			<point x="148" y="521"/>
			<point x="239" y="521" type="curve" smooth="yes"/>
			<point x="331" y="521"/>
			<point x="389" y="459"/>
			<point x="389" y="348" type="curve" smooth="yes"/>
			<point x="389" y="110" type="line"/>
			<point x="430" y="110" type="line"/>
			<point x="430" y="360" type="line" smooth="yes"/>
			<point x="430" y="483"/>
			<point x="350" y="564"/>
			<point x="239" y="564" type="curve" smooth="yes"/>
			<point x="129" y="564"/>
			<point x="48" y="483"/>
			<point x="48" y="360" type="curve" smooth="yes"/>
		</contour>
	</outline>
</glyph>
<glyph name="integral" format="2">
	<unicode hex="222B"/>
	<advance width="299"/>
	<outline>
		<contour>
			<point x="100" y="-158" type="curve" smooth="yes"/>
			<point x="189" y="-158"/>
			<point x="209" y="-64"/>
			<point x="209" y="60" type="curve" smooth="yes"/>
			<point x="209" y="198"/>
			<point x="166" y="431"/>
			<point x="166" y="573" type="curve" smooth="yes"/>
			<point x="166" y="681"/>
			<point x="176" y="750"/>
			<point x="233" y="750" type="curve" smooth="yes"/>
			<point x="247" y="750"/>
			<point x="259" y="748"/>
			<point x="267" y="746" type="curve"/>
			<point x="274" y="782" type="line"/>
			<point x="268" y="786"/>
			<point x="251" y="788"/>
			<point x="234" y="788" type="curve" smooth="yes"/>
			<point x="143" y="788"/>
			<point x="123" y="693"/>
			<point x="123" y="570" type="curve" smooth="yes"/>
			<point x="123" y="433"/>
			<point x="168" y="198"/>
			<point x="168" y="56" type="curve" smooth="yes"/>
			<point x="168" y="-52"/>
			<point x="158" y="-120"/>
			<point x="99" y="-120" type="curve" smooth="yes"/>
			<point x="85" y="-120"/>
			<point x="73" y="-118"/>
			<point x="65" y="-116" type="curve"/>
			<point x="58" y="-152" type="line"/>
			<point x="66" y="-156"/>
			<point x="81" y="-158"/>
		</contour>
	</outline>
</glyph>
<glyph name="notequal" format="2">
	<unicode hex="2260"/>
	<advance width="479"/>
	<outline>
		<contour>
			<point x="66" y="80" type="line"/>
			<point x="107" y="80" type="line"/>
			<point x="186" y="209" type="line"/>
			<point x="445" y="209" type="line"/>
			<point x="445" y="247" type="line"/>
			<point x="209" y="247" type="line"/>
			<point x="311" y="413" type="line"/>
			<point x="445" y="413" type="line"/>
			<point x="445" y="451" type="line"/>
			<point x="334" y="451" type="line"/>
			<point x="413" y="580" type="line"/>
			<point x="372" y="580" type="line"/>
			<point x="293" y="451" type="line"/>
			<point x="34" y="451" type="line"/>
			<point x="34" y="413" type="line"/>
			<point x="270" y="413" type="line"/>
			<point x="168" y="247" type="line"/>
			<point x="34" y="247" type="line"/>
			<point x="34" y="209" type="line"/>
			<point x="145" y="209" type="line"/>
		</contour>
	</outline>
</glyph>
<glyph name="lessequal" format="2">
	<unicode hex="2264"/>
	<advance width="479"/>
	<outline>
		<contour>
			<point x="445" y="152" type="line"/>
			<point x="445" y="195" type="line"/>
			<point x="213" y="283" type="line"/>
			<point x="80" y="333" type="line"/>
			<point x="80" y="337" type="line"/>
			<point x="213" y="387" type="line"/>
			<point x="445" y="475" type="line"/>
			<point x="445" y="518" type="line"/>
			<point x="34" y="358" type="line"/>
			<point x="34" y="312" type="line"/>
		</contour>
		<contour>
			<point x="34" y="0" type="line"/>
			<point x="445" y="0" type="line"/>
			<point x="445" y="37" type="line"/>
			<point x="34" y="37" type="line"/>
		</contour>
	</outline>
</glyph>
<glyph name="integraltp" format="2">
	<unicode hex="2320"/>
	<advance width="331"/>
	<outline>
		<contour>
			<point x="145" y="-72" type="line"/>
			<point x="187" y="-72" type="line"/>
			<point x="187" y="712" type="line" smooth="yes"/>
			<point x="187" y="820"/>
			<point x="197" y="890"/>
			<point x="255" y="890" type="curve" smooth="yes"/>
			<point x="269" y="890"/>
			<point x="281" y="888"/>
			<point x="289" y="886" type="curve"/>
			<point x="296" y="922" type="line"/>
			<point x="289" y="926"/>
			<point x="272" y="928"/>
			<point x="256" y="928" type="curve" smooth="yes"/>
			<point x="164" y="928"/>
			<point x="145" y="833"/>
			<point x="145" y="710" type="curve" smooth="yes"/>
		</contour>
	</outline>
</glyph>
<glyph name="integralbt" format="2">
	<unicode hex="2321"/>
	<advance width="331"/>
	<outline>
		<contour>
			<point x="76" y="-284" type="curve" smooth="yes"/>
			<point x="166" y="-284"/>
			<point x="187" y="-190"/>
			<point x="187" y="-66" type="curve" smooth="yes"/>
			<point x="187" y="716" type="line"/>
			<point x="145" y="716" type="line"/>
			<point x="145" y="-70" type="line" smooth="yes"/>
			<point x="145" y="-178"/>
			<point x="135" y="-246"/>
			<point x="76" y="-246" type="curve" smooth="yes"/>
			<point x="62" y="-246"/>
			<point x="50" y="-244"/>
			<point x="41" y="-242" type="curve"/>
			<point x="34" y="-278" type="line"/>
			<point x="43" y="-282"/>
			<point x="58" y="-284"/>
		</contour>
	</outline>
</glyph>
<glyph name="deleteright" format="2">
	<unicode hex="2326"/>
	<advance width="1000"/>
	<outline>
		<contour>
			<point x="96" y="-1" type="line"/>
			<point x="702" y="-1" type="line"/>
			<point x="980" y="328" type="line"/>
			<point x="980" y="332" type="line"/>
			<point x="702" y="651" type="line"/>
			<point x="96" y="651" type="line"/>
		</contour>
		<contour>
			<point x="138" y="35" type="line"/>
			<point x="138" y="615" type="line"/>
			<point x="675" y="615" type="line"/>
			<point x="928" y="330" type="line"/>
			<point x="675" y="35" type="line"/>
		</contour>
		<contour>
			<point x="267" y="138" type="line"/>
			<point x="425" y="303" type="line"/>
			<point x="583" y="138" type="line"/>
			<point x="610" y="166" type="line"/>
			<point x="451" y="330" type="line"/>
			<point x="610" y="493" type="line"/>
			<point x="583" y="522" type="line"/>
			<point x="425" y="356" type="line"/>
			<point x="267" y="522" type="line"/>
			<point x="240" y="493" type="line"/>
			<point x="398" y="330" type="line"/>
			<point x="240" y="166" type="line"/>
		</contour>
	</outline>
</glyph>
<glyph name="delete" format="2">
	<unicode hex="232B"/>
	<advance width="1000"/>
	<outline>
		<contour>
			<point x="298" y="-1" type="line"/>
			<point x="904" y="-1" type="line"/>
			<point x="904" y="651" type="line"/>
			<point x="298" y="651" type="line"/>
			<point x="20" y="332" type="line"/>
			<point x="20" y="328" type="line"/>
		</contour>
		<contour>
			<point x="325" y="35" type="line"/>
			<point x="72" y="330" type="line"/>
			<point x="325" y="615" type="line"/>
			<point x="862" y="615" type="line"/>
			<point x="862" y="35" type="line"/>
		</contour>
		<contour>
			<point x="417" y="138" type="line"/>
			<point x="575" y="303" type="line"/>
			<point x="733" y="138" type="line"/>
			<point x="760" y="166" type="line"/>
			<point x="602" y="330" type="line"/>
			<point x="760" y="493" type="line"/>
			<point x="733" y="522" type="line"/>
			<point x="575" y="356" type="line"/>
			<point x="417" y="522" type="line"/>
			<point x="390" y="493" type="line"/>
			<point x="549" y="330" type="line"/>
			<point x="390" y="166" type="line"/>
		</contour>
	</outline>
</glyph>
<glyph name="bulletsquare" format="2">
	<unicode hex="25AA"/>
	<advance width="281"/>
	<outline>
		<contour>
			<point x="36" y="158" type="line"/>
			<point x="245" y="158" type="line"/>
			<point x="245" y="366" type="line"/>
			<point x="36" y="366" type="line"/>
		</contour>
	</outline>
</glyph>
<glyph name="bulletsquarewhite" format="2">
	<unicode hex="25AB"/>
	<advance width="281"/>
	<outline>
		<contour>
			<point x="26" y="148" type="line"/>
			<point x="254" y="148" type="line"/>
			<point x="254" y="376" type="line"/>
			<point x="26" y="376" type="line"/>
		</contour>
		<contour>
			<point x="59" y="178" type="line"/>
			<point x="59" y="346" type="line"/>
			<point x="222" y="346" type="line"/>
			<point x="222" y="178" type="line"/>
		</contour>
	</outline>
</glyph>
<glyph name="trianglesmallupblack" format="2">
	<unicode hex="25B4"/>
	<advance width="281"/>
	<outline>
		<contour>
			<point x="8" y="158" type="line"/>
			<point x="273" y="158" type="line"/>
			<point x="273" y="160" type="line"/>
			<point x="142" y="397" type="line"/>
			<point x="139" y="397" type="line"/>
			<point x="8" y="160" type="line"/>
		</contour>
	</outline>
</glyph>
<glyph name="trianglesmallupwhite" format="2">
	<unicode hex="25B5"/>
	<advance width="281"/>
	<outline>
		<contour>
			<point x="-8" y="148" type="line"/>
			<point x="289" y="148" type="line"/>
			<point x="289" y="151" type="line"/>
			<point x="142" y="410" type="line"/>
			<point x="139" y="410" type="line"/>
			<point x="-8" y="151" type="line"/>
		</contour>
		<contour>
			<point x="40" y="176" type="line"/>
			<point x="140" y="355" type="line"/>
			<point x="241" y="176" type="line"/>
		</contour>
	</outline>
</glyph>
<glyph name="trianglesmallrightblack" format="2">
	<unicode hex="25B8"/>
	<advance width="281"/>
	<outline>
		<contour>
			<point x="35" y="129" type="line"/>
			<point x="38" y="129" type="line"/>
			<point x="274" y="262" type="line"/>
			<point x="274" y="264" type="line"/>
			<point x="38" y="396" type="line"/>
			<point x="35" y="396" type="line"/>
		</contour>
	</outline>
</glyph>
<glyph name="trianglesmallrightwhite" format="2">
	<unicode hex="25B9"/>
	<advance width="281"/>
	<outline>
		<contour>
			<point x="25" y="114" type="line"/>
			<point x="27" y="114" type="line"/>
			<point x="286" y="262" type="line"/>
			<point x="286" y="264" type="line"/>
			<point x="27" y="412" type="line"/>
			<point x="25" y="412" type="line"/>
		</contour>
		<contour>
			<point x="53" y="162" type="line"/>
			<point x="53" y="364" type="line"/>
			<point x="231" y="263" type="line"/>
		</contour>
	</outline>
</glyph>
<glyph name="trianglesmalldownwhite" format="2">
	<unicode hex="25BF"/>
	<advance width="281"/>
	<outline>
		<contour>
			<point x="139" y="114" type="line"/>
			<point x="142" y="114" type="line"/>
			<point x="289" y="373" type="line"/>
			<point x="289" y="376" type="line"/>
			<point x="-8" y="376" type="line"/>
			<point x="-8" y="373" type="line"/>
		</contour>
		<contour>
			<point x="140" y="169" type="line"/>
			<point x="40" y="348" type="line"/>
			<point x="241" y="348" type="line"/>
		</contour>
	</outline>
</glyph>
<glyph name="trianglesmallleftwhite" format="2">
	<unicode hex="25C3"/>
	<advance width="281"/>
	<outline>
		<contour>
			<point x="253" y="114" type="line"/>
			<point x="256" y="114" type="line"/>
			<point x="256" y="412" type="line"/>
			<point x="253" y="412" type="line"/>
			<point x="-6" y="264" type="line"/>
			<point x="-6" y="262" type="line"/>
		</contour>
		<contour>
			<point x="228" y="162" type="line"/>
			<point x="49" y="263" type="line"/>
			<point x="228" y="364" type="line"/>
		</contour>
	</outline>
</glyph>
<glyph name="invbullet" format="2">
	<unicode hex="25D8"/>
	<advance width="281"/>
	<outline>
		<contour>
			<point x="17" y="139" type="line"/>
			<point x="264" y="139" type="line"/>
			<point x="264" y="385" type="line"/>
			<point x="17" y="385" type="line"/>
		</contour>
		<contour>
			<point x="140" y="151" type="curve" smooth="yes"/>
			<point x="77" y="151"/>
			<point x="29" y="198"/>
			<point x="29" y="262" type="curve" smooth="yes"/>
			<point x="29" y="326"/>
			<point x="77" y="373"/>
			<point x="140" y="373" type="curve" smooth="yes"/>
			<point x="204" y="373"/>
			<point x="252" y="326"/>
			<point x="252" y="262" type="curve" smooth="yes"/>
			<point x="252" y="198"/>
			<point x="204" y="151"/>
		</contour>
	</outline>
</glyph>
<glyph name="checkheavy" format="2">
	<unicode hex="2714"/>
	<advance width="639"/>
	<outline>
		<contour>
			<point x="163" y="-20" type="curve"/>
			<point x="287" y="-5" type="line"/>
			<point x="366" y="280"/>
			<point x="500" y="485"/>
			<point x="640" y="615" type="curve"/>
			<point x="559" y="687" type="line"/>
			<point x="417" y="546"/>
			<point x="290" y="318"/>
			<point x="221" y="79" type="curve"/>
			<point x="217" y="79" type="line"/>
			<point x="185" y="163"/>
			<point x="142" y="251"/>
			<point x="89" y="333" type="curve"/>
			<point x="5" y="278" type="line"/>
			<point x="75" y="181"/>
			<point x="122" y="91"/>
		</contour>
	</outline>
</glyph>
<glyph name="xballotheavy" format="2">
	<unicode hex="2718"/>
	<advance width="549"/>
	<outline>
		<contour>
			<point x="148" y="-19" type="line"/>
			<point x="234" y="225"/>
			<point x="382" y="469"/>
			<point x="556" y="622" type="curve"/>
			<point x="487" y="681" type="line"/>
			<point x="312" y="522"/>
			<point x="138" y="269"/>
			<point x="54" y="20" type="curve"/>
		</contour>
		<contour>
			<point x="402" y="-3" type="curve"/>
			<point x="499" y="19" type="line"/>
			<point x="443" y="273"/>
			<point x="333" y="505"/>
			<point x="207" y="673" type="curve"/>
			<point x="122" y="630" type="line"/>
			<point x="249" y="454"/>
			<point x="342" y="242"/>
		</contour>
	</outline>
</glyph>
<glyph name="quoterightheavy" format="2">
	<unicode hex="275C"/>
	<advance width="360"/>
	<outline>
		<contour>
			<point x="130" y="204" type="line"/>
			<point x="272" y="255"/>
			<point x="342" y="365"/>
			<point x="342" y="506" type="curve" smooth="yes"/>
			<point x="342" y="628"/>
			<point x="279" y="706"/>
			<point x="170" y="706" type="curve" smooth="yes"/>
			<point x="80" y="706"/>
			<point x="18" y="638"/>
			<point x="18" y="540" type="curve" smooth="yes"/>
			<point x="18" y="450"/>
			<point x="83" y="394"/>
			<point x="167" y="394" type="curve" smooth="yes"/>
			<point x="227" y="394"/>
			<point x="277" y="424"/>
			<point x="302" y="463" type="curve"/>
			<point x="270" y="543" type="line"/>
			<point x="289" y="460" type="line"/>
			<point x="289" y="351"/>
			<point x="226" y="276"/>
			<point x="116" y="233" type="curve"/>
		</contour>
	</outline>
</glyph>
<glyph name="bracketleftwhite" format="2">
	<unicode hex="27E6"/>
	<advance width="343"/>
	<outline>
		<contour>
			<point x="98" y="-152" type="line"/>
			<point x="322" y="-152" type="line"/>
			<point x="322" y="-123" type="line"/>
			<point x="201" y="-123" type="line"/>
			<point x="201" y="679" type="line"/>
			<point x="322" y="679" type="line"/>
			<point x="322" y="708" type="line"/>
			<point x="98" y="708" type="line"/>
		</contour>
		<contour>
			<point x="130" y="-123" type="line"/>
			<point x="130" y="679" type="line"/>
			<point x="171" y="679" type="line"/>
			<point x="171" y="-123" type="line"/>
		</contour>
	</outline>
</glyph>
<glyph name="bracketangleleft" format="2">
	<unicode hex="27E8"/>
	<advance width="279"/>
	<outline>
		<contour>
			<point x="221" y="-175" type="line"/>
			<point x="249" y="-163" type="line"/>
			<point x="78" y="278" type="line"/>
			<point x="249" y="719" type="line"/>
			<point x="221" y="731" type="line"/>
			<point x="43" y="289" type="line"/>
			<point x="43" y="267" type="line"/>
		</contour>
	</outline>
</glyph>
<glyph name="tstroke" format="2">
	<unicode hex="2C66"/>
	<advance width="312"/>
	<outline>
		<contour>
			<point x="40" y="-24" type="line"/>
			<point x="310" y="509" type="line"/>
			<point x="283" y="523" type="line"/>
			<point x="13" y="-11" type="line"/>
		</contour>
		<component base="t"/>
	</outline>
	<anchor name="aboveLC" x="135" y="635"/>
	<anchor name="belowLC" x="204" y="-22"/>
</glyph>
<glyph name="interrobangdown" format="2">
	<unicode hex="2E18"/>
	<advance width="404"/>
	<outline>
		<contour>
			<point x="209" y="-202" type="curve" smooth="yes"/>
			<point x="278" y="-202"/>
			<point x="331" y="-168"/>
			<point x="371" y="-123" type="curve"/>
			<point x="343" y="-98" type="line"/>
			<point x="309" y="-141"/>
			<point x="261" y="-164"/>
			<point x="212" y="-164" type="curve" smooth="yes"/>
			<point x="132" y="-164"/>
			<point x="95" y="-107"/>
			<point x="95" y="-45" type="curve" smooth="yes"/>
			<point x="95" y="55"/>
			<point x="183" y="101"/>
			<point x="214" y="203" type="curve"/>
			<point x="205" y="203" type="line"/>
			<point x="199" y="-2" type="line"/>
			<point x="199" y="-65" type="line"/>
			<point x="241" y="-65" type="line"/>
			<point x="240" y="3" type="line"/>
			<point x="234" y="301" type="line"/>
			<point x="205" y="301" type="line"/>
			<point x="205" y="126"/>
			<point x="51" y="95"/>
			<point x="51" y="-50" type="curve" smooth="yes"/>
			<point x="51" y="-134"/>
			<point x="109" y="-202"/>
		</contour>
		<contour>
			<point x="218" y="401" type="curve" smooth="yes"/>
			<point x="240" y="401"/>
			<point x="260" y="418"/>
			<point x="260" y="448" type="curve" smooth="yes"/>
			<point x="260" y="475"/>
			<point x="240" y="492"/>
			<point x="218" y="492" type="curve" smooth="yes"/>
			<point x="196" y="492"/>
			<point x="176" y="475"/>
			<point x="176" y="448" type="curve" smooth="yes"/>
			<point x="176" y="418"/>
			<point x="196" y="401"/>
		</contour>
	</outline>
</glyph>
<glyph name="brackhalftopleft" format="2">
	<unicode hex="2E22"/>
	<advance width="279"/>
	<outline>
		<contour>
			<point x="98" y="278" type="line"/>
			<point x="133" y="278" type="line"/>
			<point x="133" y="679" type="line"/>
			<point x="258" y="679" type="line"/>
			<point x="258" y="708" type="line"/>
			<point x="98" y="708" type="line"/>
		</contour>
	</outline>
</glyph>
<glyph name="Ettironian" format="2">
	<unicode hex="2E52"/>
	<advance width="465"/>
	<outline>
		<contour>
			<point x="188" y="0" type="line"/>
			<point x="234" y="0" type="line"/>
			<point x="406" y="632" type="line"/>
			<point x="406" y="659" type="line"/>
			<point x="42" y="659" type="line"/>
			<point x="42" y="619" type="line"/>
			<point x="363" y="619" type="line"/>
		</contour>
	</outline>
</glyph>
<glyph name="AlefEgypt" format="2">
	<unicode hex="A722"/>
	<advance width="259"/>
	<outline>
		<contour>
			<point x="69" y="-12" type="line"/>
			<point x="156" y="-3"/>
			<point x="209" y="47"/>
			<point x="209" y="127" type="curve" smooth="yes"/>
			<point x="209" y="195"/>
			<point x="164" y="239"/>
			<point x="111" y="239" type="curve" smooth="yes"/>
			<point x="73" y="239"/>
			<point x="49" y="217"/>
			<point x="49" y="184" type="curve" smooth="yes"/>
			<point x="49" y="157"/>
			<point x="69" y="137"/>
			<point x="95" y="137" type="curve" smooth="yes"/>
			<point x="117" y="137"/>
			<point x="135" y="152"/>
			<point x="136" y="176" type="curve"/>
			<point x="127" y="176" type="line"/>
			<point x="149" y="173"/>
			<point x="167" y="153"/>
			<point x="167" y="118" type="curve" smooth="yes"/>
			<point x="167" y="63"/>
			<point x="124" y="28"/>
			<point x="63" y="18" type="curve"/>
		</contour>
		<contour>
			<point x="69" y="419" type="line"/>
			<point x="156" y="428"/>
			<point x="209" y="478"/>
			<point x="209" y="558" type="curve" smooth="yes"/>
			<point x="209" y="626"/>
			<point x="164" y="669"/>
			<point x="111" y="669" type="curve" smooth="yes"/>
			<point x="73" y="669"/>
			<point x="49" y="647"/>
			<point x="49" y="614" type="curve" smooth="yes"/>
			<point x="49" y="587"/>
			<point x="69" y="568"/>
			<point x="95" y="568" type="curve" smooth="yes"/>
			<point x="117" y="568"/>
			<point x="135" y="582"/>
			<point x="136" y="606" type="curve"/>
			<point x="127" y="606" type="line"/>
			<point x="149" y="604"/>
			<point x="167" y="583"/>
			<point x="167" y="548" type="curve" smooth="yes"/>
			<point x="167" y="493"/>
			<point x="124" y="459"/>
			<point x="63" y="449" type="curve"/>
		</contour>
	</outline>
</glyph>
<glyph name="AinEgypt" format="2">
	<unicode hex="A724"/>
	<advance width="259"/>
	<outline>
		<contour>
			<point x="190" y="417" type="curve"/>
			<point x="196" y="447" type="line"/>
			<point x="135" y="457"/>
			<point x="93" y="494"/>
			<point x="93" y="552" type="curve" smooth="yes"/>
			<point x="93" y="583"/>
			<point x="111" y="604"/>
			<point x="132" y="606" type="curve"/>
			<point x="123" y="606" type="line"/>
			<point x="125" y="582"/>
			<point x="142" y="568"/>
			<point x="164" y="568" type="curve" smooth="yes"/>
			<point x="190" y="568"/>
			<point x="210" y="587"/>
			<point x="210" y="614" type="curve" smooth="yes"/>
			<point x="210" y="647"/>
			<point x="186" y="669"/>
			<point x="147" y="669" type="curve" smooth="yes"/>
			<point x="96" y="669"/>
			<point x="50" y="626"/>
			<point x="50" y="553" type="curve" smooth="yes"/>
			<point x="50" y="479"/>
			<point x="103" y="426"/>
		</contour>
	</outline>
</glyph>
<glyph name="OO" format="2">
	<unicode hex="A74E"/>
	<advance width="1067"/>
	<outline>
		<contour>
			<point x="305" y="-12" type="curve" smooth="yes"/>
			<point x="412" y="-12"/>
			<point x="505" y="58"/>
			<point x="542" y="220" type="curve"/>
			<point x="525" y="220" type="line"/>
			<point x="562" y="58"/>
			<point x="655" y="-12"/>
			<point x="762" y="-12" type="curve" smooth="yes"/>
			<point x="907" y="-12"/>
			<point x="1012" y="123"/>
			<point x="1012" y="332" type="curve" smooth="yes"/>
			<point x="1012" y="540"/>
			<point x="907" y="671"/>
			<point x="762" y="671" type="curve" smooth="yes"/>
			<point x="655" y="671"/>
			<point x="562" y="601"/>
			<point x="525" y="439" type="curve"/>
			<point x="542" y="439" type="line"/>
			<point x="505" y="601"/>
			<point x="412" y="671"/>
			<point x="305" y="671" type="curve" smooth="yes"/>
			<point x="159" y="671"/>
			<point x="55" y="540"/>
			<point x="55" y="332" type="curve" smooth="yes"/>
			<point x="55" y="123"/>
			<point x="159" y="-12"/>
		</contour>
		<contour>
			<point x="307" y="30" type="curve" smooth="yes"/>
			<point x="184" y="30"/>
			<point x="103" y="149"/>
			<point x="103" y="332" type="curve" smooth="yes"/>
			<point x="103" y="514"/>
			<point x="184" y="629"/>
			<point x="307" y="629" type="curve" smooth="yes"/>
			<point x="429" y="629"/>
			<point x="510" y="514"/>
			<point x="510" y="332" type="curve" smooth="yes"/>
			<point x="510" y="149"/>
			<point x="429" y="30"/>
		</contour>
		<contour>
			<point x="760" y="30" type="curve" smooth="yes"/>
			<point x="638" y="30"/>
			<point x="557" y="149"/>
			<point x="557" y="332" type="curve" smooth="yes"/>
			<point x="557" y="514"/>
			<point x="638" y="629"/>
			<point x="760" y="629" type="curve" smooth="yes"/>
			<point x="883" y="629"/>
			<point x="964" y="514"/>
			<point x="964" y="332" type="curve" smooth="yes"/>
			<point x="964" y="149"/>
			<point x="883" y="30"/>
		</contour>
	</outline>
	<anchor name="aboveUC" x="533" y="681"/>
	<anchor name="belowLC" x="533" y="-22"/>
</glyph>
<glyph name="rrotunda" format="2">
	<unicode hex="A75B"/>
	<advance width="354"/>
	<outline>
		<contour>
			<point x="255" y="-12" type="curve" smooth="yes"/>
			<point x="280" y="-12"/>
			<point x="300" y="-8"/>
			<point x="314" y="-1" type="curve"/>
			<point x="304" y="35" type="line"/>
			<point x="292" y="31"/>
			<point x="278" y="27"/>
			<point x="258" y="27" type="curve" smooth="yes"/>
			<point x="190" y="27"/>
			<point x="118" y="52"/>
			<point x="98" y="110" type="curve"/>
			<point x="227" y="174"/>
			<point x="304" y="250"/>
			<point x="304" y="362" type="curve" smooth="yes"/>
			<point x="304" y="445"/>
			<point x="250" y="492"/>
			<point x="168" y="492" type="curve" smooth="yes"/>
			<point x="109" y="492"/>
			<point x="64" y="464"/>
			<point x="24" y="428" type="curve"/>
			<point x="47" y="402" type="line"/>
			<point x="77" y="431"/>
			<point x="116" y="453"/>
			<point x="163" y="453" type="curve" smooth="yes"/>
			<point x="223" y="453"/>
			<point x="258" y="417"/>
			<point x="258" y="358" type="curve" smooth="yes"/>
			<point x="258" y="266"/>
			<point x="197" y="195"/>
			<point x="51" y="125" type="curve"/>
			<point x="79" y="17"/>
			<point x="167" y="-12"/>
		</contour>
	</outline>
	<anchor name="aboveLC" x="176" y="504"/>
	<anchor name="belowLC" x="174" y="-22"/>
</glyph>
<glyph name="That" format="2">
	<unicode hex="A764"/>
	<advance width="585"/>
	<outline>
		<contour>
			<point x="117" y="0" type="line"/>
			<point x="163" y="0" type="line"/>
			<point x="163" y="165" type="line"/>
			<point x="297" y="165" type="line" smooth="yes"/>
			<point x="444" y="165"/>
			<point x="532" y="228"/>
			<point x="532" y="358" type="curve" smooth="yes"/>
			<point x="532" y="494"/>
			<point x="444" y="543"/>
			<point x="297" y="543" type="curve" smooth="yes"/>
			<point x="163" y="543" type="line"/>
			<point x="163" y="659" type="line"/>
			<point x="117" y="659" type="line"/>
		</contour>
		<contour>
			<point x="163" y="204" type="line"/>
			<point x="163" y="504" type="line"/>
			<point x="286" y="504" type="line" smooth="yes"/>
			<point x="420" y="504"/>
			<point x="485" y="469"/>
			<point x="485" y="358" type="curve" smooth="yes"/>
			<point x="485" y="249"/>
			<point x="420" y="204"/>
			<point x="286" y="204" type="curve" smooth="yes"/>
		</contour>
		<contour>
			<point x="22" y="332" type="line"/>
			<point x="326" y="332" type="line"/>
			<point x="326" y="368" type="line"/>
			<point x="119" y="368" type="line"/>
			<point x="22" y="364" type="line"/>
		</contour>
	</outline>
</glyph>
<glyph name="that" format="2">
	<unicode hex="A765"/>
	<advance width="560"/>
	<outline>
		<contour>
			<point x="110" y="-217" type="line"/>
			<point x="154" y="-217" type="line"/>
			<point x="154" y="-42" type="line"/>
			<point x="154" y="47" type="line"/>
			<point x="204" y="10"/>
			<point x="253" y="-12"/>
			<point x="298" y="-12" type="curve" smooth="yes"/>
			<point x="411" y="-12"/>
			<point x="510" y="78"/>
			<point x="510" y="230" type="curve" smooth="yes"/>
			<point x="510" y="368"/>
			<point x="446" y="458"/>
			<point x="318" y="458" type="curve" smooth="yes"/>
			<point x="259" y="458"/>
			<point x="201" y="424"/>
			<point x="152" y="383" type="curve"/>
			<point x="154" y="477" type="line"/>
			<point x="154" y="719" type="line"/>
			<point x="110" y="719" type="line"/>
		</contour>
		<contour>
			<point x="19" y="577" type="line"/>
			<point x="344" y="577" type="line"/>
			<point x="344" y="614" type="line"/>
			<point x="111" y="614" type="line"/>
			<point x="19" y="610" type="line"/>
		</contour>
		<contour>
			<point x="463" y="230" type="curve" smooth="yes"/>
			<point x="463" y="111"/>
			<point x="393" y="27"/>
			<point x="296" y="27" type="curve" smooth="yes"/>
			<point x="259" y="27"/>
			<point x="209" y="44"/>
			<point x="154" y="89" type="curve"/>
			<point x="154" y="340" type="line"/>
			<point x="211" y="391"/>
			<point x="263" y="419"/>
			<point x="311" y="419" type="curve" smooth="yes"/>
			<point x="421" y="419"/>
			<point x="463" y="337"/>
		</contour>
	</outline>
</glyph>
<glyph name="dinsular" format="2">
	<unicode hex="A77A"/>
	<advance width="522"/>
	<outline>
		<contour>
			<point x="265" y="-12" type="curve" smooth="yes"/>
			<point x="397" y="-12"/>
			<point x="469" y="86"/>
			<point x="469" y="268" type="curve" smooth="yes"/>
			<point x="469" y="477"/>
			<point x="284" y="641"/>
			<point x="106" y="723" type="curve"/>
			<point x="83" y="690" type="line"/>
			<point x="255" y="610"/>
			<point x="425" y="457"/>
			<point x="425" y="264" type="curve" smooth="yes"/>
			<point x="425" y="113"/>
			<point x="368" y="27"/>
			<point x="265" y="27" type="curve" smooth="yes"/>
			<point x="175" y="27"/>
			<point x="104" y="104"/>
			<point x="104" y="227" type="curve" smooth="yes"/>
			<point x="104" y="343"/>
			<point x="182" y="445"/>
			<point x="368" y="455" type="curve"/>
			<point x="344" y="489" type="line"/>
			<point x="158" y="479"/>
			<point x="60" y="364"/>
			<point x="60" y="225" type="curve" smooth="yes"/>
			<point x="60" y="74"/>
			<point x="155" y="-12"/>
		</contour>
	</outline>
	<anchor name="aboveUC" x="282" y="731"/>
	<anchor name="belowLC" x="261" y="-22"/>
</glyph>
<glyph name="Finsular" format="2">
	<unicode hex="A77B"/>
	<advance width="549"/>
	<outline>
		<contour>
			<point x="97" y="-144" type="line"/>
			<point x="143" y="-144" type="line"/>
			<point x="143" y="0" type="line"/>
			<point x="445" y="0" type="line"/>
			<point x="445" y="40" type="line"/>
			<point x="143" y="40" type="line"/>
			<point x="143" y="523" type="line"/>
			<point x="186" y="580"/>
			<point x="260" y="629"/>
			<point x="318" y="629" type="curve" smooth="yes"/>
			<point x="406" y="629"/>
			<point x="457" y="586"/>
			<point x="457" y="442" type="curve" smooth="yes"/>
			<point x="457" y="382" type="line"/>
			<point x="503" y="388" type="line"/>
			<point x="503" y="448" type="line" smooth="yes"/>
			<point x="503" y="611"/>
			<point x="437" y="671"/>
			<point x="326" y="671" type="curve" smooth="yes"/>
			<point x="255" y="671"/>
			<point x="187" y="624"/>
			<point x="143" y="572" type="curve"/>
			<point x="143" y="659" type="line"/>
			<point x="97" y="659" type="line"/>
		</contour>
	</outline>
	<anchor name="aboveUC" x="307" y="681"/>
	<anchor name="belowLC" x="124" y="-146"/>
</glyph>
<glyph name="Ginsular" format="2">
	<unicode hex="A77D"/>
	<advance width="592"/>
	<outline>
		<contour>
			<point x="305" y="-156" type="curve" smooth="yes"/>
			<point x="478" y="-156"/>
			<point x="567" y="-71"/>
			<point x="567" y="33" type="curve" smooth="yes"/>
			<point x="567" y="131"/>
			<point x="503" y="162"/>
			<point x="361" y="214" type="curve" smooth="yes"/>
			<point x="210" y="270"/>
			<point x="141" y="334"/>
			<point x="141" y="439" type="curve" smooth="yes"/>
			<point x="141" y="528"/>
			<point x="217" y="619"/>
			<point x="387" y="619" type="curve" smooth="yes"/>
			<point x="551" y="619" type="line"/>
			<point x="551" y="659" type="line"/>
			<point x="30" y="659" type="line"/>
			<point x="30" y="620" type="line"/>
			<point x="230" y="620" type="line"/>
			<point x="230" y="616" type="line"/>
			<point x="153" y="588"/>
			<point x="96" y="524"/>
			<point x="96" y="436" type="curve" smooth="yes"/>
			<point x="96" y="326"/>
			<point x="157" y="270"/>
			<point x="233" y="224" type="curve"/>
			<point x="233" y="220" type="line"/>
			<point x="134" y="173"/>
			<point x="61" y="106"/>
			<point x="61" y="16" type="curve" smooth="yes"/>
			<point x="61" y="-102"/>
			<point x="160" y="-156"/>
		</contour>
		<contour>
			<point x="306" y="-115" type="curve" smooth="yes"/>
			<point x="188" y="-115"/>
			<point x="105" y="-70"/>
			<point x="105" y="18" type="curve" smooth="yes"/>
			<point x="105" y="92"/>
			<point x="163" y="151"/>
			<point x="268" y="203" type="curve"/>
			<point x="406" y="147"/>
			<point x="521" y="133"/>
			<point x="521" y="30" type="curve" smooth="yes"/>
			<point x="521" y="-47"/>
			<point x="450" y="-115"/>
		</contour>
	</outline>
	<anchor name="aboveUC" x="309" y="681"/>
	<anchor name="belowLC" x="301" y="-146"/>
</glyph>
<glyph name="ginsularturned" format="2">
	<unicode hex="A77F"/>
	<advance width="467"/>
	<outline>
		<contour>
			<point x="21" y="-217" type="line"/>
			<point x="434" y="-217" type="line"/>
			<point x="434" y="-179" type="line"/>
			<point x="287" y="-179" type="line"/>
			<point x="287" y="-175" type="line"/>
			<point x="348" y="-148"/>
			<point x="389" y="-93"/>
			<point x="389" y="-21" type="curve" smooth="yes"/>
			<point x="389" y="71"/>
			<point x="338" y="119"/>
			<point x="279" y="162" type="curve"/>
			<point x="279" y="166" type="line"/>
			<point x="358" y="207"/>
			<point x="415" y="263"/>
			<point x="415" y="343" type="curve" smooth="yes"/>
			<point x="415" y="436"/>
			<point x="333" y="492"/>
			<point x="222" y="492" type="curve" smooth="yes"/>
			<point x="84" y="492"/>
			<point x="11" y="422"/>
			<point x="11" y="330" type="curve" smooth="yes"/>
			<point x="11" y="244"/>
			<point x="59" y="215"/>
			<point x="174" y="167" type="curve" smooth="yes"/>
			<point x="289" y="119"/>
			<point x="345" y="63"/>
			<point x="345" y="-27" type="curve" smooth="yes"/>
			<point x="345" y="-99"/>
			<point x="286" y="-177"/>
			<point x="155" y="-179" type="curve" smooth="yes"/>
			<point x="88" y="-179" type="line"/>
			<point x="21" y="-185" type="line"/>
		</contour>
		<contour>
			<point x="250" y="181" type="curve"/>
			<point x="143" y="229"/>
			<point x="56" y="243"/>
			<point x="56" y="334" type="curve" smooth="yes"/>
			<point x="56" y="399"/>
			<point x="107" y="455"/>
			<point x="220" y="455" type="curve" smooth="yes"/>
			<point x="307" y="455"/>
			<point x="372" y="414"/>
			<point x="372" y="340" type="curve" smooth="yes"/>
			<point x="372" y="271"/>
			<point x="330" y="226"/>
		</contour>
	</outline>
	<anchor name="aboveLC" x="225" y="504"/>
	<anchor name="belowLC" x="216" y="-218"/>
</glyph>
<glyph name="lturned" format="2">
	<unicode hex="A781"/>
	<advance width="237"/>
	<outline>
		<contour>
			<point x="100" y="-217" type="line"/>
			<point x="144" y="-217" type="line"/>
			<point x="144" y="412" type="line" smooth="yes"/>
			<point x="144" y="465"/>
			<point x="124" y="489"/>
			<point x="86" y="489" type="curve" smooth="yes"/>
			<point x="73" y="489"/>
			<point x="63" y="486"/>
			<point x="54" y="482" type="curve"/>
			<point x="61" y="448" type="line"/>
			<point x="69" y="450"/>
			<point x="73" y="450"/>
			<point x="78" y="450" type="curve" smooth="yes"/>
			<point x="91" y="450"/>
			<point x="100" y="441"/>
			<point x="100" y="418" type="curve" smooth="yes"/>
		</contour>
	</outline>
	<anchor name="aboveLC" x="103" y="504"/>
	<anchor name="belowLC" x="123" y="-218"/>
</glyph>
<glyph name="Rinsular" format="2">
	<unicode hex="A782"/>
	<advance width="544"/>
	<outline>
		<contour>
			<point x="97" y="-144" type="line"/>
			<point x="143" y="-144" type="line"/>
			<point x="143" y="523" type="line"/>
			<point x="197" y="600"/>
			<point x="261" y="629"/>
			<point x="318" y="629" type="curve" smooth="yes"/>
			<point x="391" y="629"/>
			<point x="436" y="584"/>
			<point x="436" y="506" type="curve" smooth="yes"/>
			<point x="436" y="397"/>
			<point x="360" y="293"/>
			<point x="133" y="167" type="curve"/>
			<point x="172" y="45"/>
			<point x="274" y="-12"/>
			<point x="430" y="-12" type="curve" smooth="yes"/>
			<point x="469" y="-12"/>
			<point x="507" y="-6"/>
			<point x="527" y="1" type="curve"/>
			<point x="517" y="39" type="line"/>
			<point x="496" y="34"/>
			<point x="471" y="30"/>
			<point x="434" y="30" type="curve" smooth="yes"/>
			<point x="305" y="30"/>
			<point x="219" y="72"/>
			<point x="184" y="151" type="curve"/>
			<point x="388" y="271"/>
			<point x="484" y="383"/>
			<point x="484" y="510" type="curve" smooth="yes"/>
			<point x="484" y="611"/>
			<point x="421" y="671"/>
			<point x="324" y="671" type="curve" smooth="yes"/>
			<point x="252" y="671"/>
			<point x="193" y="640"/>
			<point x="143" y="571" type="curve"/>
			<point x="143" y="659" type="line"/>
			<point x="97" y="659" type="line"/>
		</contour>
	</outline>
	<anchor name="aboveUC" x="305" y="681"/>
	<anchor name="belowLC" x="124" y="-146"/>
</glyph>
<glyph name="rinsular" format="2">
	<unicode hex="A783"/>
	<advance width="476"/>
	<outline>
		<contour>
			<point x="92" y="-217" type="line"/>
			<point x="136" y="-217" type="line"/>
			<point x="136" y="347" type="line"/>
			<point x="194" y="424"/>
			<point x="240" y="453"/>
			<point x="294" y="453" type="curve" smooth="yes"/>
			<point x="354" y="453"/>
			<point x="392" y="417"/>
			<point x="392" y="356" type="curve" smooth="yes"/>
			<point x="392" y="261"/>
			<point x="346" y="178"/>
			<point x="210" y="102" type="curve"/>
			<point x="238" y="13"/>
			<point x="314" y="-12"/>
			<point x="391" y="-12" type="curve" smooth="yes"/>
			<point x="416" y="-12"/>
			<point x="434" y="-7"/>
			<point x="449" y="-1" type="curve"/>
			<point x="439" y="35" type="line"/>
			<point x="427" y="31"/>
			<point x="413" y="27"/>
			<point x="394" y="27" type="curve" smooth="yes"/>
			<point x="336" y="27"/>
			<point x="273" y="50"/>
			<point x="257" y="93" type="curve"/>
			<point x="380" y="166"/>
			<point x="439" y="251"/>
			<point x="439" y="360" type="curve" smooth="yes"/>
			<point x="439" y="445"/>
			<point x="383" y="492"/>
			<point x="298" y="492" type="curve" smooth="yes"/>
			<point x="236" y="492"/>
			<point x="182" y="458"/>
			<point x="137" y="396" type="curve"/>
			<point x="134" y="396" type="line"/>
			<point x="130" y="480" type="line"/>
			<point x="92" y="480" type="line"/>
		</contour>
	</outline>
	<anchor name="aboveLC" x="276" y="504"/>
	<anchor name="belowLC" x="114" y="-218"/>
</glyph>
<glyph name="Tinsular" format="2">
	<unicode hex="A786"/>
	<advance width="524"/>
	<outline>
		<contour>
			<point x="294" y="-12" type="curve" smooth="yes"/>
			<point x="377" y="-12"/>
			<point x="433" y="17"/>
			<point x="481" y="73" type="curve"/>
			<point x="455" y="98" type="line"/>
			<point x="410" y="49"/>
			<point x="362" y="30"/>
			<point x="298" y="30" type="curve" smooth="yes"/>
			<point x="178" y="30"/>
			<point x="103" y="116"/>
			<point x="103" y="264" type="curve" smooth="yes"/>
			<point x="103" y="411"/>
			<point x="211" y="619"/>
			<point x="405" y="619" type="curve" smooth="yes"/>
			<point x="495" y="619" type="line"/>
			<point x="495" y="659" type="line"/>
			<point x="29" y="659" type="line"/>
			<point x="29" y="620" type="line"/>
			<point x="265" y="620" type="line"/>
			<point x="265" y="616" type="line"/>
			<point x="173" y="578"/>
			<point x="55" y="436"/>
			<point x="55" y="262" type="curve" smooth="yes"/>
			<point x="55" y="87"/>
			<point x="152" y="-12"/>
		</contour>
	</outline>
	<anchor name="aboveUC" x="282" y="681"/>
	<anchor name="belowLC" x="284" y="-22"/>
</glyph>
<glyph name="tinsular" format="2">
	<unicode hex="A787"/>
	<advance width="419"/>
	<outline>
		<contour>
			<point x="250" y="-12" type="curve" smooth="yes"/>
			<point x="312" y="-12"/>
			<point x="358" y="19"/>
			<point x="391" y="51" type="curve"/>
			<point x="370" y="78" type="line"/>
			<point x="339" y="49"/>
			<point x="305" y="27"/>
			<point x="253" y="27" type="curve" smooth="yes"/>
			<point x="170" y="27"/>
			<point x="109" y="90"/>
			<point x="109" y="185" type="curve" smooth="yes"/>
			<point x="109" y="303"/>
			<point x="190" y="442"/>
			<point x="340" y="442" type="curve" smooth="yes"/>
			<point x="394" y="442" type="line"/>
			<point x="394" y="480" type="line"/>
			<point x="95" y="480" type="line"/>
			<point x="28" y="474" type="line"/>
			<point x="28" y="442" type="line"/>
			<point x="213" y="442" type="line"/>
			<point x="213" y="438" type="line"/>
			<point x="141" y="403"/>
			<point x="63" y="310"/>
			<point x="63" y="181" type="curve" smooth="yes"/>
			<point x="63" y="59"/>
			<point x="147" y="-12"/>
		</contour>
	</outline>
	<anchor name="aboveLC" x="232" y="504"/>
	<anchor name="belowLC" x="234" y="-22"/>
</glyph>
<glyph name="Lbelt" format="2">
	<unicode hex="A7AD"/>
	<advance width="495"/>
	<outline>
		<contour>
			<point x="113" y="273" type="curve" smooth="yes"/>
			<point x="331" y="273" type="line"/>
			<point x="331" y="311" type="line"/>
			<point x="106" y="311" type="line" smooth="yes"/>
			<point x="58" y="311"/>
			<point x="37" y="330"/>
			<point x="37" y="353" type="curve" smooth="yes"/>
			<point x="37" y="372"/>
			<point x="48" y="389"/>
			<point x="74" y="389" type="curve" smooth="yes"/>
			<point x="107" y="389"/>
			<point x="125" y="364"/>
			<point x="125" y="320" type="curve"/>
			<point x="150" y="311" type="line"/>
			<point x="150" y="370"/>
			<point x="127" y="423"/>
			<point x="69" y="423" type="curve" smooth="yes"/>
			<point x="26" y="423"/>
			<point x="-2" y="393"/>
			<point x="-2" y="354" type="curve" smooth="yes"/>
			<point x="-2" y="307"/>
			<point x="35" y="273"/>
		</contour>
		<component base="L" xOffset="28"/>
	</outline>
	<anchor name="aboveUC" x="152" y="681"/>
	<anchor name="belowLC" x="309" y="-22"/>
</glyph>
<glyph name="Chilatin" format="2">
	<unicode hex="A7B3"/>
	<advance width="480"/>
	<outline>
		<contour>
			<point x="16" y="-187" type="line"/>
			<point x="63" y="-187" type="line"/>
			<point x="178" y="74" type="line" smooth="yes"/>
			<point x="196" y="116"/>
			<point x="213" y="157"/>
			<point x="234" y="208" type="curve"/>
			<point x="238" y="208" type="line"/>
			<point x="262" y="157"/>
			<point x="281" y="116"/>
			<point x="299" y="74" type="curve" smooth="yes"/>
			<point x="414" y="-187" type="line"/>
			<point x="464" y="-187" type="line"/>
			<point x="266" y="248" type="line"/>
			<point x="450" y="659" type="line"/>
			<point x="403" y="659" type="line"/>
			<point x="295" y="410" type="line" smooth="yes"/>
			<point x="277" y="372"/>
			<point x="265" y="341"/>
			<point x="246" y="294" type="curve"/>
			<point x="242" y="294" type="line"/>
			<point x="220" y="341"/>
			<point x="206" y="372"/>
			<point x="188" y="410" type="curve" smooth="yes"/>
			<point x="80" y="659" type="line"/>
			<point x="30" y="659" type="line"/>
			<point x="214" y="252" type="line"/>
		</contour>
	</outline>
	<anchor name="aboveUC" x="241" y="681"/>
	<anchor name="belowLC" x="240" y="-218"/>
</glyph>
<glyph name="tshook" format="2">
	<unicode hex="AB67"/>
	<advance width="606"/>
	<outline>
		<contour>
			<point x="420" y="-229" type="curve" smooth="yes"/>
			<point x="442" y="-229"/>
			<point x="466" y="-223"/>
			<point x="481" y="-217" type="curve"/>
			<point x="470" y="-182" type="line"/>
			<point x="458" y="-186"/>
			<point x="439" y="-191"/>
			<point x="420" y="-191" type="curve" smooth="yes"/>
			<point x="367" y="-191"/>
			<point x="355" y="-148"/>
			<point x="355" y="-86" type="curve" smooth="yes"/>
			<point x="355" y="-2" type="line"/>
			<point x="314" y="14" type="line"/>
			<point x="314" y="-89" type="line" smooth="yes"/>
			<point x="314" y="-183"/>
			<point x="347" y="-229"/>
		</contour>
		<component base="ts"/>
	</outline>
	<anchor name="aboveLC" x="339" y="635"/>
	<anchor name="belowLC" x="353" y="-218"/>
</glyph>
<glyph name="norights" format="2">
	<unicode hex="1F10D"/>
	<advance width="741"/>
	<outline>
		<contour>
			<point x="371" y="-12" type="curve" smooth="yes"/>
			<point x="543" y="-12"/>
			<point x="690" y="120"/>
			<point x="690" y="322" type="curve" smooth="yes"/>
			<point x="690" y="523"/>
			<point x="543" y="652"/>
			<point x="371" y="652" type="curve" smooth="yes"/>
			<point x="198" y="652"/>
			<point x="51" y="523"/>
			<point x="51" y="322" type="curve" smooth="yes"/>
			<point x="51" y="120"/>
			<point x="198" y="-12"/>
		</contour>
		<contour>
			<point x="371" y="19" type="curve" smooth="yes"/>
			<point x="217" y="19"/>
			<point x="86" y="141"/>
			<point x="86" y="322" type="curve" smooth="yes"/>
			<point x="86" y="502"/>
			<point x="217" y="622"/>
			<point x="371" y="622" type="curve" smooth="yes"/>
			<point x="524" y="622"/>
			<point x="655" y="502"/>
			<point x="655" y="322" type="curve" smooth="yes"/>
			<point x="655" y="141"/>
			<point x="524" y="19"/>
		</contour>
		<contour>
			<point x="371" y="128" type="curve" smooth="yes"/>
			<point x="475" y="128"/>
			<point x="539" y="218"/>
			<point x="539" y="322" type="curve" smooth="yes"/>
			<point x="539" y="424"/>
			<point x="475" y="513"/>
			<point x="371" y="513" type="curve" smooth="yes"/>
			<point x="266" y="513"/>
			<point x="202" y="424"/>
			<point x="202" y="322" type="curve" smooth="yes"/>
			<point x="202" y="218"/>
			<point x="266" y="128"/>
		</contour>
		<contour>
			<point x="371" y="163" type="curve" smooth="yes"/>
			<point x="296" y="163"/>
			<point x="243" y="238"/>
			<point x="243" y="322" type="curve" smooth="yes"/>
			<point x="243" y="406"/>
			<point x="296" y="478"/>
			<point x="371" y="478" type="curve" smooth="yes"/>
			<point x="445" y="478"/>
			<point x="498" y="406"/>
			<point x="498" y="322" type="curve" smooth="yes"/>
			<point x="498" y="238"/>
			<point x="445" y="163"/>
		</contour>
		<contour>
			<point x="453" y="180" type="line"/>
			<point x="487" y="186" type="line"/>
			<point x="289" y="465" type="line"/>
			<point x="255" y="459" type="line"/>
		</contour>
	</outline>
</glyph>
<glyph name="copyleft" format="2">
	<unicode hex="1F12F"/>
	<advance width="741"/>
	<outline>
		<contour>
			<point x="371" y="-12" type="curve" smooth="yes"/>
			<point x="543" y="-12"/>
			<point x="690" y="120"/>
			<point x="690" y="322" type="curve" smooth="yes"/>
			<point x="690" y="523"/>
			<point x="543" y="652"/>
			<point x="371" y="652" type="curve" smooth="yes"/>
			<point x="198" y="652"/>
			<point x="51" y="523"/>
			<point x="51" y="322" type="curve" smooth="yes"/>
			<point x="51" y="120"/>
			<point x="198" y="-12"/>
		</contour>
		<contour>
			<point x="371" y="19" type="curve" smooth="yes"/>
			<point x="217" y="19"/>
			<point x="86" y="141"/>
			<point x="86" y="322" type="curve" smooth="yes"/>
			<point x="86" y="502"/>
			<point x="217" y="622"/>
			<point x="371" y="622" type="curve" smooth="yes"/>
			<point x="524" y="622"/>
			<point x="655" y="502"/>
			<point x="655" y="322" type="curve" smooth="yes"/>
			<point x="655" y="141"/>
			<point x="524" y="19"/>
		</contour>
		<contour>
			<point x="364" y="128" type="curve" smooth="yes"/>
			<point x="461" y="128"/>
			<point x="540" y="200"/>
			<point x="540" y="324" type="curve" smooth="yes"/>
			<point x="540" y="446"/>
			<point x="459" y="513"/>
			<point x="370" y="513" type="curve" smooth="yes"/>
			<point x="311" y="513"/>
			<point x="273" y="490"/>
			<point x="239" y="454" type="curve"/>
			<point x="263" y="431" type="line"/>
			<point x="294" y="462"/>
			<point x="325" y="476"/>
			<point x="367" y="476" type="curve" smooth="yes"/>
			<point x="443" y="476"/>
			<point x="498" y="416"/>
			<point x="498" y="324" type="curve" smooth="yes"/>
			<point x="498" y="226"/>
			<point x="444" y="165"/>
			<point x="365" y="165" type="curve" smooth="yes"/>
			<point x="310" y="165"/>
			<point x="283" y="182"/>
			<point x="252" y="213" type="curve"/>
			<point x="230" y="189" type="line"/>
			<point x="265" y="152"/>
			<point x="300" y="128"/>
		</contour>
	</outline>
</glyph>
<glyph name="attribution" format="2">
	<unicode hex="1F16F"/>
	<advance width="740"/>
	<outline>
		<contour>
			<point x="371" y="-12" type="curve" smooth="yes"/>
			<point x="543" y="-12"/>
			<point x="690" y="120"/>
			<point x="690" y="322" type="curve" smooth="yes"/>
			<point x="690" y="523"/>
			<point x="543" y="652"/>
			<point x="371" y="652" type="curve" smooth="yes"/>
			<point x="198" y="652"/>
			<point x="51" y="523"/>
			<point x="51" y="322" type="curve" smooth="yes"/>
			<point x="51" y="120"/>
			<point x="198" y="-12"/>
		</contour>
		<contour>
			<point x="371" y="19" type="curve" smooth="yes"/>
			<point x="217" y="19"/>
			<point x="86" y="141"/>
			<point x="86" y="322" type="curve" smooth="yes"/>
			<point x="86" y="502"/>
			<point x="217" y="622"/>
			<point x="371" y="622" type="curve" smooth="yes"/>
			<point x="524" y="622"/>
			<point x="655" y="502"/>
			<point x="655" y="322" type="curve" smooth="yes"/>
			<point x="655" y="141"/>
			<point x="524" y="19"/>
		</contour>
		<contour>
			<point x="371" y="88" type="line"/>
			<point x="431" y="88" type="line"/>
			<point x="435" y="139"/>
			<point x="439" y="184"/>
			<point x="439" y="251" type="curve" smooth="yes"/>
			<point x="439" y="287"/>
			<point x="428" y="293"/>
			<point x="428" y="304" type="curve" smooth="yes"/>
			<point x="428" y="331"/>
			<point x="445" y="346"/>
			<point x="448" y="376" type="curve"/>
			<point x="408" y="380" type="line"/>
			<point x="417" y="310"/>
			<point x="426" y="280"/>
			<point x="439" y="230" type="curve"/>
			<point x="465" y="230"/>
			<point x="485" y="248"/>
			<point x="485" y="276" type="curve" smooth="yes"/>
			<point x="485" y="311"/>
			<point x="481" y="348"/>
			<point x="473" y="380" type="curve" smooth="yes"/>
			<point x="465" y="409"/>
			<point x="452" y="420"/>
			<point x="429" y="426" type="curve" smooth="yes"/>
			<point x="419" y="428"/>
			<point x="397" y="430"/>
			<point x="371" y="430" type="curve" smooth="yes"/>
			<point x="345" y="430"/>
			<point x="323" y="428"/>
			<point x="313" y="426" type="curve" smooth="yes"/>
			<point x="290" y="420"/>
			<point x="276" y="408"/>
			<point x="269" y="380" type="curve" smooth="yes"/>
			<point x="261" y="348"/>
			<point x="257" y="310"/>
			<point x="257" y="276" type="curve" smooth="yes"/>
			<point x="257" y="248"/>
			<point x="277" y="230"/>
			<point x="303" y="230" type="curve"/>
			<point x="316" y="280"/>
			<point x="325" y="310"/>
			<point x="334" y="380" type="curve"/>
			<point x="294" y="376" type="line"/>
			<point x="297" y="346"/>
			<point x="314" y="331"/>
			<point x="314" y="304" type="curve" smooth="yes"/>
			<point x="314" y="293"/>
			<point x="303" y="287"/>
			<point x="303" y="251" type="curve" smooth="yes"/>
			<point x="303" y="184"/>
			<point x="307" y="139"/>
			<point x="311" y="88" type="curve"/>
		</contour>
		<contour>
			<point x="371" y="454" type="curve" smooth="yes"/>
			<point x="401" y="454"/>
			<point x="429" y="480"/>
			<point x="429" y="512" type="curve" smooth="yes"/>
			<point x="429" y="546"/>
			<point x="403" y="570"/>
			<point x="371" y="570" type="curve" smooth="yes"/>
			<point x="339" y="570"/>
			<point x="313" y="546"/>
			<point x="313" y="512" type="curve" smooth="yes"/>
			<point x="313" y="480"/>
			<point x="339" y="454"/>
		</contour>
	</outline>
</glyph>
<glyph name="tincture" format="2">
	<unicode hex="1F748"/>
	<advance width="622"/>
	<outline>
		<contour>
			<point x="239" y="0" type="line"/>
			<point x="285" y="0" type="line"/>
			<point x="285" y="205" type="line"/>
			<point x="403" y="205" type="line" smooth="yes"/>
			<point x="489" y="205"/>
			<point x="566" y="246"/>
			<point x="566" y="343" type="curve" smooth="yes"/>
			<point x="566" y="440"/>
			<point x="494" y="475"/>
			<point x="394" y="475" type="curve" smooth="yes"/>
			<point x="285" y="475" type="line"/>
			<point x="285" y="619" type="line"/>
			<point x="495" y="619" type="line"/>
			<point x="495" y="659" type="line"/>
			<point x="29" y="659" type="line"/>
			<point x="29" y="619" type="line"/>
			<point x="239" y="619" type="line"/>
		</contour>
		<contour>
			<point x="285" y="242" type="line"/>
			<point x="285" y="438" type="line"/>
			<point x="383" y="438" type="line" smooth="yes"/>
			<point x="468" y="438"/>
			<point x="520" y="410"/>
			<point x="520" y="343" type="curve" smooth="yes"/>
			<point x="520" y="276"/>
			<point x="468" y="242"/>
			<point x="383" y="242" type="curve" smooth="yes"/>
		</contour>
		<contour>
			<point x="530" y="0" type="line"/>
			<point x="580" y="0" type="line"/>
			<point x="429" y="226" type="line"/>
			<point x="392" y="211" type="line"/>
		</contour>
	</outline>
</glyph>
<glyph name="AinEgypt.sc" format="2">
	<advance width="259"/>
	<outline>
		<contour>
			<point x="189" y="276" type="curve"/>
			<point x="195" y="305" type="line"/>
			<point x="133" y="314"/>
			<point x="93" y="351"/>
			<point x="93" y="408" type="curve" smooth="yes"/>
			<point x="93" y="439"/>
			<point x="111" y="460"/>
			<point x="132" y="462" type="curve"/>
			<point x="122" y="462" type="line"/>
			<point x="124" y="438"/>
			<point x="142" y="424"/>
			<point x="164" y="424" type="curve" smooth="yes"/>
			<point x="190" y="424"/>
			<point x="210" y="442"/>
			<point x="210" y="470" type="curve" smooth="yes"/>
			<point x="210" y="502"/>
			<point x="186" y="522"/>
			<point x="148" y="522" type="curve" smooth="yes"/>
			<point x="96" y="522"/>
			<point x="50" y="480"/>
			<point x="50" y="409" type="curve" smooth="yes"/>
			<point x="50" y="336"/>
			<point x="101" y="285"/>
		</contour>
	</outline>
</glyph>
<glyph name="Aogonek.d" format="2">
	<advance width="526"/>
	<outline>
		<contour>
			<point x="276" y="-215" type="curve" smooth="yes"/>
			<point x="307" y="-215"/>
			<point x="335" y="-201"/>
			<point x="352" y="-186" type="curve"/>
			<point x="336" y="-159" type="line"/>
			<point x="319" y="-172"/>
			<point x="303" y="-178"/>
			<point x="281" y="-178" type="curve" smooth="yes"/>
			<point x="252" y="-178"/>
			<point x="223" y="-161"/>
			<point x="223" y="-121" type="curve" smooth="yes"/>
			<point x="223" y="-85"/>
			<point x="251" y="-40"/>
			<point x="295" y="-10" type="curve"/>
			<point x="274" y="13" type="line"/>
			<point x="225" y="-22"/>
			<point x="183" y="-73"/>
			<point x="183" y="-128" type="curve" smooth="yes"/>
			<point x="183" y="-188"/>
			<point x="225" y="-215"/>
		</contour>
		<component base="A"/>
	</outline>
	<anchor name="aboveUC" x="263" y="681"/>
</glyph>
<glyph name="Aogonek.ds" format="2">
	<advance width="451"/>
	<outline>
		<contour>
			<point x="238" y="-215" type="curve" smooth="yes"/>
			<point x="269" y="-215"/>
			<point x="298" y="-201"/>
			<point x="315" y="-186" type="curve"/>
			<point x="299" y="-159" type="line"/>
			<point x="282" y="-172"/>
			<point x="266" y="-178"/>
			<point x="244" y="-178" type="curve" smooth="yes"/>
			<point x="215" y="-178"/>
			<point x="186" y="-161"/>
			<point x="186" y="-121" type="curve" smooth="yes"/>
			<point x="186" y="-85"/>
			<point x="214" y="-40"/>
			<point x="258" y="-10" type="curve"/>
			<point x="237" y="13" type="line"/>
			<point x="188" y="-22"/>
			<point x="146" y="-73"/>
			<point x="146" y="-128" type="curve" smooth="yes"/>
			<point x="146" y="-188"/>
			<point x="188" y="-215"/>
		</contour>
		<component base="A.sc"/>
	</outline>
	<anchor name="aboveUC" x="223" y="562"/>
</glyph>
<glyph name="B.sc" format="2">
	<advance width="514"/>
	<outline>
		<contour>
			<point x="97" y="0" type="line"/>
			<point x="260" y="0" type="line" smooth="yes"/>
			<point x="386" y="0"/>
			<point x="468" y="49"/>
			<point x="468" y="149" type="curve" smooth="yes"/>
			<point x="468" y="220"/>
			<point x="417" y="260"/>
			<point x="345" y="273" type="curve"/>
			<point x="345" y="277" type="line"/>
			<point x="404" y="293"/>
			<point x="435" y="334"/>
			<point x="435" y="386" type="curve" smooth="yes"/>
			<point x="435" y="474"/>
			<point x="363" y="512"/>
			<point x="250" y="512" type="curve" smooth="yes"/>
			<point x="97" y="512" type="line"/>
		</contour>
		<contour>
			<point x="143" y="289" type="line"/>
			<point x="143" y="475" type="line"/>
			<point x="241" y="475" type="line" smooth="yes"/>
			<point x="340" y="475"/>
			<point x="391" y="448"/>
			<point x="391" y="385" type="curve" smooth="yes"/>
			<point x="391" y="323"/>
			<point x="346" y="289"/>
			<point x="238" y="289" type="curve" smooth="yes"/>
		</contour>
		<contour>
			<point x="143" y="37" type="line"/>
			<point x="143" y="253" type="line"/>
			<point x="252" y="253" type="line" smooth="yes"/>
			<point x="361" y="253"/>
			<point x="423" y="221"/>
			<point x="423" y="149" type="curve" smooth="yes"/>
			<point x="423" y="65"/>
			<point x="352" y="37"/>
			<point x="252" y="37" type="curve" smooth="yes"/>
		</contour>
	</outline>
	<anchor name="aboveUC" x="268" y="562"/>
	<anchor name="belowLC" x="278" y="-22"/>
</glyph>
<glyph name="Bstroke.sc" format="2">
	<advance width="535"/>
	<outline>
		<contour>
			<point x="23" y="130" type="line"/>
			<point x="309" y="130" type="line"/>
			<point x="309" y="168" type="line"/>
			<point x="120" y="168" type="line"/>
			<point x="23" y="164" type="line"/>
		</contour>
		<contour>
			<point x="118" y="0" type="line"/>
			<point x="281" y="0" type="line" smooth="yes"/>
			<point x="406" y="0"/>
			<point x="489" y="49"/>
			<point x="489" y="149" type="curve" smooth="yes"/>
			<point x="489" y="222"/>
			<point x="437" y="262"/>
			<point x="365" y="275" type="curve"/>
			<point x="365" y="279" type="line"/>
			<point x="424" y="295"/>
			<point x="456" y="336"/>
			<point x="456" y="387" type="curve" smooth="yes"/>
			<point x="456" y="474"/>
			<point x="384" y="512"/>
			<point x="270" y="512" type="curve" smooth="yes"/>
			<point x="118" y="512" type="line"/>
		</contour>
		<contour>
			<point x="164" y="291" type="line"/>
			<point x="164" y="477" type="line"/>
			<point x="261" y="477" type="line" smooth="yes"/>
			<point x="360" y="477"/>
			<point x="411" y="450"/>
			<point x="411" y="387" type="curve" smooth="yes"/>
			<point x="411" y="325"/>
			<point x="367" y="291"/>
			<point x="258" y="291" type="curve" smooth="yes"/>
		</contour>
		<contour>
			<point x="164" y="35" type="line"/>
			<point x="164" y="256" type="line"/>
			<point x="272" y="256" type="line" smooth="yes"/>
			<point x="382" y="256"/>
			<point x="444" y="223"/>
			<point x="444" y="149" type="curve" smooth="yes"/>
			<point x="444" y="63"/>
			<point x="374" y="35"/>
			<point x="272" y="35" type="curve" smooth="yes"/>
		</contour>
	</outline>
</glyph>
